<?xml version="1.0" standalone="no"?>
<!DOCTYPE svg PUBLIC "-//W3C//DTD SVG 1.1//EN" "http://www.w3.org/Graphics/SVG/1.1/DTD/svg11.dtd" >
<svg xmlns="http://www.w3.org/2000/svg">
<metadata></metadata>
<defs>
<font id="estrogenroman" horiz-adv-x="1310" >
<font-face units-per-em="2048" ascent="1638" descent="-410" />
<missing-glyph horiz-adv-x="616" />
<glyph horiz-adv-x="2048" />
<glyph horiz-adv-x="2048" />
<glyph unicode="&#xd;" horiz-adv-x="2048" />
<glyph unicode=" "  horiz-adv-x="616" />
<glyph unicode="&#x09;" horiz-adv-x="616" />
<glyph unicode="&#xa0;" horiz-adv-x="616" />
<glyph unicode="!" horiz-adv-x="573" d="M92 14q0 -25 10 -24h369q10 0 10 24v60q0 25 -10 24h-369q-10 0 -10 -24v-60zM92 135q0 -25 10 -24h369q10 0 10 24v60q0 25 -10 24h-369q-10 0 -10 -24v-60zM92 254q0 -23 10 -23h369q10 0 10 23v61q0 23 -10 23h-369q-10 0 -10 -23v-61zM92 496q0 -25 10 -25h369 q10 0 10 25v59q0 25 -10 25h-369q-10 0 -10 -25v-59zM92 614q0 -23 10 -22h369q10 0 10 22v62q0 25 -10 24h-369q-10 0 -10 -24v-62zM92 735q0 -25 10 -24h369q10 0 10 24v62q0 23 -10 22h-369q-10 0 -10 -22v-62zM92 856q0 -25 10 -25h369q10 0 10 25v59q0 25 -10 25h-369 q-10 0 -10 -25v-59zM92 977q0 -25 10 -25h369q10 0 10 25v59q0 25 -10 25h-369q-10 0 -10 -25v-59zM92 1096q0 -23 10 -23h369q10 0 10 23v61q0 23 -10 23h-369q-10 0 -10 -23v-61zM92 1217q0 -25 10 -25h369q10 0 10 25v59q0 25 -10 24h-369q-10 0 -10 -24v-59z" />
<glyph unicode="&#x22;" horiz-adv-x="757" d="M92 918q0 -23 10 -23h185q10 0 10 23v55q0 23 -10 22h-185q-10 0 -10 -22v-55zM92 1030q0 -23 10 -22h185q10 0 10 22v57q0 23 -10 23h-185q-10 0 -10 -23v-57zM92 1143q0 -23 10 -23h185q10 0 10 23v57q0 23 -10 23h-185q-10 0 -10 -23v-57zM461 918q0 -23 10 -23h184 q10 0 11 23v55q0 23 -11 22h-184q-10 0 -10 -22v-55zM461 1030q0 -23 10 -22h184q10 0 11 22v57q0 23 -11 23h-184q-10 0 -10 -23v-57zM461 1143q0 -23 10 -23h184q10 0 11 23v57q0 23 -11 23h-184q-10 0 -10 -23v-57z" />
<glyph unicode="#" horiz-adv-x="1386" d="M37 393q0 -23 10 -22h1157q10 0 10 22v60q0 23 -10 22h-1157q-10 0 -10 -22v-60zM37 510q0 -23 10 -23h1157q10 0 10 23v59q0 23 -10 23h-1157q-10 0 -10 -23v-59zM168 29q0 -25 10 -25h184q10 0 11 25v59q0 25 -11 25h-184q-10 0 -10 -25v-59zM168 150q0 -25 10 -25h184 q10 0 11 25v59q0 25 -11 24h-184q-10 0 -10 -24v-59zM168 268q0 -23 10 -22h184q10 0 11 22v62q0 23 -11 22h-184q-10 0 -10 -22v-62zM170 743q0 -23 10 -22h1157q10 0 11 22v60q0 23 -11 22h-1157q-10 0 -10 -22v-60zM170 862q0 -25 10 -24h1157q10 0 11 24v58q0 25 -11 24 h-1157q-10 0 -10 -24v-58zM352 629q0 -23 10 -23h185q10 0 10 23v61q0 16 -10 17h-185q-10 0 -10 -17v-61zM537 991q0 -25 10 -24h184q10 0 10 24v60q0 25 -10 24h-184q-10 0 -10 -24v-60zM537 1110q0 -23 10 -23h184q10 0 10 23v61q0 23 -10 23h-184q-10 0 -10 -23v-61z M537 1231q0 -25 10 -25h184q10 0 10 25v59q0 25 -10 25h-184q-10 0 -10 -25v-59zM623 25q0 -25 10 -25h184q10 0 10 25v59q0 25 -10 25h-184q-10 0 -10 -25v-59zM623 145q0 -25 10 -24h184q10 0 10 24v60q0 25 -10 24h-184q-10 0 -10 -24v-60zM623 264q0 -23 10 -22h184 q10 0 10 22v62q0 23 -10 22h-184q-10 0 -10 -22v-62zM807 625q0 -23 10 -23h184q10 0 11 23v61q0 25 -11 25h-184q-10 0 -10 -25v-61zM991 987q0 -25 10 -24h185q10 0 10 24v60q0 25 -10 24h-185q-10 0 -10 -24v-60zM991 1106q0 -23 10 -23h185q10 0 10 23v61q0 23 -10 23 h-185q-10 0 -10 -23v-61zM991 1227q0 -25 10 -25h185q10 0 10 25v59q0 25 -10 25h-185q-10 0 -10 -25v-59z" />
<glyph unicode="$" d="M92 303q0 -25 10 -24h369q10 0 10 24v62q0 23 -10 22h-369q-10 0 -10 -22v-62zM92 664q0 -25 10 -25h924q10 0 10 25v59q0 25 -10 25h-924q-10 0 -10 -25v-59zM92 782q0 -23 10 -22h369q10 0 10 22v62q0 25 -10 24h-369q-10 0 -10 -24v-62zM92 903q0 -23 10 -22h369 q10 0 10 22v62q0 23 -10 22h-369q-10 0 -10 -22v-62zM276 182q0 -25 11 -24h737q10 0 10 24v62q0 23 -10 22h-737q-10 0 -11 -22v-62zM276 545q0 -25 11 -25h921q10 0 11 25v59q0 25 -11 25h-921q-10 0 -11 -25v-59zM276 1024q0 -25 11 -25h737q10 0 10 25v61q0 23 -10 23 h-737q-10 0 -11 -23v-61zM549 -8v-60q0 -25 10 -24h184q10 0 11 24v60q0 25 -11 24h-184q-10 0 -10 -24zM549 51q0 -23 10 -22h184q10 0 11 22v62q0 25 -11 24h-184q-10 0 -10 -24v-62zM553 1159q0 -25 10 -24h185q10 0 10 24v60q0 25 -10 24h-185q-10 0 -10 -24v-60z M553 1280q0 -25 10 -25h185q10 0 10 25v59q0 25 -10 25h-185q-10 0 -10 -25v-59zM829 303q0 -25 11 -24h368q10 0 11 24v62q0 23 -11 22h-368q-10 0 -11 -22v-62zM829 424q0 -25 11 -25h368q10 0 11 25v59q0 25 -11 25h-368q-10 0 -11 -25v-59zM829 903q0 -23 11 -22h368 q10 0 11 22v62q0 23 -11 22h-368q-10 0 -11 -22v-62z" />
<glyph unicode="%" horiz-adv-x="2404" d="M102 729q0 -25 9 -24h286q8 0 9 24v59q0 23 -9 23h-286q-8 0 -9 -23v-59zM102 848q0 -25 9 -25h286q8 0 9 25v59q0 23 -9 23h-286q-8 0 -9 -23v-59zM102 967q0 -25 9 -25h286q8 0 9 25v59q0 23 -9 23h-286q-8 0 -9 -23v-59zM246 492q0 -25 8 -25h571q8 0 9 25v59 q0 23 -9 22h-571q-8 0 -8 -22v-59zM246 610q0 -25 8 -24h571q8 0 9 24v60q0 23 -9 22h-571q-8 0 -8 -22v-60zM246 1098q0 -23 8 -23h571q8 0 9 23v59q0 25 -9 25h-571q-8 0 -8 -25v-59zM246 1217q0 -23 8 -23h571q8 0 9 23v59q0 25 -9 24h-571q-8 0 -8 -24v-59zM676 729 q0 -25 8 -24h285q8 0 8 24v59q0 23 -8 23h-285q-8 0 -8 -23v-59zM676 848q0 -25 8 -25h285q8 0 8 25v59q0 23 -8 23h-285q-8 0 -8 -23v-59zM676 967q0 -25 8 -25h285q8 0 8 25v59q0 23 -8 23h-285q-8 0 -8 -23v-59zM907 14q0 -25 11 -24h184q10 0 10 24v60q0 25 -10 24h-184 q-10 0 -11 -24v-60zM907 135q0 -25 11 -24h184q10 0 10 24v60q0 25 -10 24h-184q-10 0 -11 -24v-60zM907 254q0 -23 11 -23h184q10 0 10 23v61q0 23 -10 23h-184q-10 0 -11 -23v-61zM1092 375q0 -25 10 -25h184q10 0 10 25v59q0 25 -10 25h-184q-10 0 -10 -25v-59zM1092 496 q0 -25 10 -25h184q10 0 10 25v59q0 25 -10 25h-184q-10 0 -10 -25v-59zM1092 614q0 -23 10 -22h184q10 0 10 22v62q0 25 -10 24h-184q-10 0 -10 -24v-62zM1092 735q0 -25 10 -24h184q10 0 10 24v62q0 23 -10 22h-184q-10 0 -10 -22v-62zM1092 856q0 -25 10 -25h184 q10 0 10 25v59q0 25 -10 25h-184q-10 0 -10 -25v-59zM1276 977q0 -25 10 -25h184q10 0 11 25v59q0 25 -11 25h-184q-10 0 -10 -25v-59zM1276 1096q0 -23 10 -23h184q10 0 11 23v61q0 23 -11 23h-184q-10 0 -10 -23v-61zM1276 1217q0 -25 10 -25h184q10 0 11 25v59 q0 25 -11 24h-184q-10 0 -10 -24v-59zM1427 262q0 -25 9 -24h286q8 0 9 24v60q0 23 -9 22h-286q-8 0 -9 -22v-60zM1427 381q0 -25 9 -25h286q8 0 9 25v59q0 23 -9 23h-286q-8 0 -9 -23v-59zM1427 500q0 -25 9 -25h286q8 0 9 25v59q0 23 -9 23h-286q-8 0 -9 -23v-59zM1571 25 q0 -25 8 -25h571q8 0 9 25v59q0 23 -9 22h-571q-8 0 -8 -22v-59zM1571 143q0 -25 8 -24h571q8 0 9 24v60q0 23 -9 22h-571q-8 0 -8 -22v-60zM1571 631q0 -23 8 -23h571q8 0 9 23v59q0 25 -9 25h-571q-8 0 -8 -25v-59zM1571 750q0 -23 8 -23h571q8 0 9 23v59q0 25 -9 25h-571 q-8 0 -8 -25v-59zM2001 262q0 -25 8 -24h285q8 0 8 24v60q0 23 -8 22h-285q-8 0 -8 -22v-60zM2001 381q0 -25 8 -25h285q8 0 8 25v59q0 23 -8 23h-285q-8 0 -8 -23v-59zM2001 500q0 -25 8 -25h285q8 0 8 25v59q0 23 -8 23h-285q-8 0 -8 -23v-59z" />
<glyph unicode="&#x26;" horiz-adv-x="1273" d="M92 254q0 -23 10 -23h369q10 0 10 23v61q0 23 -10 23h-369q-10 0 -10 -23v-61zM92 375q0 -25 10 -25h369q10 0 10 25v59q0 25 -10 25h-369q-10 0 -10 -25v-59zM92 614q0 -23 10 -22h1063q10 0 11 22v62q0 25 -11 24h-1063q-10 0 -10 -24v-62zM92 856q0 -25 10 -25h369 q10 0 10 25v59q0 25 -10 25h-369q-10 0 -10 -25v-59zM92 977q0 -25 10 -25h369q10 0 10 25v59q0 25 -10 25h-369q-10 0 -10 -25v-59zM170 496q0 -25 10 -25h291q10 0 10 25v59q0 25 -10 25h-291q-10 0 -10 -25v-59zM170 735q0 -25 10 -24h291q10 0 10 24v62q0 23 -10 22 h-291q-10 0 -10 -22v-62zM254 14q0 -25 10 -24h760q10 0 10 24v60q0 25 -10 24h-760q-10 0 -10 -24v-60zM254 135q0 -25 10 -24h907q10 0 11 24v60q0 25 -11 24h-907q-10 0 -10 -24v-60zM256 1096q0 -23 10 -23h555q10 0 10 23v61q0 23 -10 23h-555q-10 0 -10 -23v-61z M256 1217q0 -25 10 -25h555q10 0 10 25v59q0 25 -10 24h-555q-10 0 -10 -24v-59zM786 254q0 -23 11 -23h374q10 0 11 23v61q0 23 -11 23h-374q-10 0 -11 -23v-61zM786 375q0 -25 11 -25h368q10 0 11 25v59q0 25 -11 25h-368q-10 0 -11 -25v-59zM786 496q0 -25 11 -25h293 q10 0 10 25v59q0 25 -10 25h-293q-10 0 -11 -25v-59zM788 735q0 -25 11 -24h200q10 0 11 24v62q0 23 -11 22h-200q-10 0 -11 -22v-62z" />
<glyph unicode="'" horiz-adv-x="389" d="M92 918q0 -23 10 -23h185q10 0 10 23v55q0 23 -10 22h-185q-10 0 -10 -22v-55zM92 1030q0 -23 10 -22h185q10 0 10 22v57q0 23 -10 23h-185q-10 0 -10 -23v-57zM92 1143q0 -23 10 -23h185q10 0 10 23v57q0 23 -10 23h-185q-10 0 -10 -23v-57z" />
<glyph unicode="(" horiz-adv-x="573" d="M92 254q0 -23 10 -23h185q10 0 10 23v61q0 23 -10 23h-185q-10 0 -10 -23v-61zM92 375q0 -25 10 -25h185q10 0 10 25v59q0 25 -10 25h-185q-10 0 -10 -25v-59zM92 496q0 -25 10 -25h185q10 0 10 25v59q0 25 -10 25h-185q-10 0 -10 -25v-59zM92 614q0 -23 10 -22h185 q10 0 10 22v62q0 25 -10 24h-185q-10 0 -10 -24v-62zM92 735q0 -25 10 -24h185q10 0 10 24v62q0 23 -10 22h-185q-10 0 -10 -22v-62zM92 856q0 -25 10 -25h185q10 0 10 25v59q0 25 -10 25h-185q-10 0 -10 -25v-59zM92 977q0 -25 10 -25h185q10 0 10 25v59q0 25 -10 25h-185 q-10 0 -10 -25v-59zM276 14q0 -25 11 -24h184q10 0 10 24v60q0 25 -10 24h-184q-10 0 -11 -24v-60zM276 135q0 -25 11 -24h184q10 0 10 24v60q0 25 -10 24h-184q-10 0 -11 -24v-60zM276 1096q0 -23 11 -23h184q10 0 10 23v61q0 23 -10 23h-184q-10 0 -11 -23v-61zM276 1217 q0 -25 11 -25h184q10 0 10 25v59q0 25 -10 24h-184q-10 0 -11 -24v-59z" />
<glyph unicode=")" horiz-adv-x="573" d="M92 14q0 -25 10 -24h185q10 0 10 24v60q0 25 -10 24h-185q-10 0 -10 -24v-60zM92 135q0 -25 10 -24h185q10 0 10 24v60q0 25 -10 24h-185q-10 0 -10 -24v-60zM92 1096q0 -23 10 -23h185q10 0 10 23v61q0 23 -10 23h-185q-10 0 -10 -23v-61zM92 1217q0 -25 10 -25h185 q10 0 10 25v59q0 25 -10 24h-185q-10 0 -10 -24v-59zM276 254q0 -23 11 -23h184q10 0 10 23v61q0 23 -10 23h-184q-10 0 -11 -23v-61zM276 375q0 -25 11 -25h184q10 0 10 25v59q0 25 -10 25h-184q-10 0 -11 -25v-59zM276 496q0 -25 11 -25h184q10 0 10 25v59q0 25 -10 25 h-184q-10 0 -11 -25v-59zM276 614q0 -23 11 -22h184q10 0 10 22v62q0 25 -10 24h-184q-10 0 -11 -24v-62zM276 735q0 -25 11 -24h184q10 0 10 24v62q0 23 -10 22h-184q-10 0 -11 -22v-62zM276 856q0 -25 11 -25h184q10 0 10 25v59q0 25 -10 25h-184q-10 0 -11 -25v-59z M276 977q0 -25 11 -25h184q10 0 10 25v59q0 25 -10 25h-184q-10 0 -11 -25v-59z" />
<glyph unicode="*" horiz-adv-x="757" d="M92 365q0 -23 10 -23h185q10 0 10 23v59q0 23 -10 22h-185q-10 0 -10 -22v-59zM92 481q0 -23 10 -22h553q10 0 11 22v60q0 23 -11 22h-553q-10 0 -10 -22v-60zM92 717q0 -25 10 -25h553q10 0 11 25v57q0 25 -11 25h-553q-10 0 -10 -25v-57zM92 834q0 -25 10 -25h185 q10 0 10 25v57q0 25 -10 24h-185q-10 0 -10 -24v-57zM276 598q0 -23 11 -23h184q10 0 10 23v59q0 23 -10 23h-184q-10 0 -11 -23v-59zM461 365q0 -23 10 -23h184q10 0 11 23v59q0 23 -11 22h-184q-10 0 -10 -22v-59zM461 834q0 -25 10 -25h184q10 0 11 25v57q0 25 -11 24 h-184q-10 0 -10 -24v-57z" />
<glyph unicode="+" horiz-adv-x="757" d="M92 604q0 -25 10 -24h553q10 0 11 24v60q0 23 -11 22h-553q-10 0 -10 -22v-60zM92 721q0 -23 10 -23h553q10 0 11 23v59q0 25 -11 25h-553q-10 0 -10 -25v-59zM276 369q0 -25 11 -25h184q10 0 10 25v57q0 25 -10 25h-184q-10 0 -11 -25v-57zM276 485q0 -23 11 -22h184 q10 0 10 22v60q0 25 -10 24h-184q-10 0 -11 -24v-60zM276 840q0 -23 11 -23h184q10 0 10 23v59q0 23 -10 23h-184q-10 0 -11 -23v-59zM276 958q0 -25 11 -24h184q10 0 10 24v60q0 23 -10 22h-184q-10 0 -11 -22v-60z" />
<glyph unicode="," horiz-adv-x="737" d="M92 -45v-57q0 -25 10 -25h369q10 0 10 25v57q0 25 -10 25h-369q-10 0 -10 -25zM92 -162v-59q0 -23 10 -23h369q10 0 10 23v59q0 23 -10 23h-369q-10 0 -10 -23zM256 14q0 -25 10 -24h369q10 0 10 24v58q0 25 -10 24h-369q-10 0 -10 -24v-58zM256 131q0 -25 10 -25h369 q10 0 10 25v57q0 25 -10 25h-369q-10 0 -10 -25v-57zM256 248q0 -23 10 -23h369q10 0 10 23v59q0 23 -10 23h-369q-10 0 -10 -23v-59z" />
<glyph unicode="-" horiz-adv-x="757" d="M92 551q0 -20 10 -21h553q10 0 11 21v55q0 20 -11 21h-553q-10 0 -10 -21v-55zM92 659q0 -23 10 -22h553q10 0 11 22v54q0 23 -11 22h-553q-10 0 -10 -22v-54z" />
<glyph unicode="." horiz-adv-x="573" d="M92 12q0 -23 10 -22h369q10 0 10 22v58q0 23 -10 22h-369q-10 0 -10 -22v-58zM92 127q0 -23 10 -23h369q10 0 10 23v55q0 23 -10 23h-369q-10 0 -10 -23v-55zM92 240q0 -23 10 -23h369q10 0 10 23v55q0 23 -10 22h-369q-10 0 -10 -22v-55z" />
<glyph unicode="/" horiz-adv-x="757" d="M92 14q0 -25 10 -24h185q10 0 10 24v60q0 25 -10 24h-185q-10 0 -10 -24v-60zM92 135q0 -25 10 -24h185q10 0 10 24v60q0 25 -10 24h-185q-10 0 -10 -24v-60zM92 254q0 -23 10 -23h185q10 0 10 23v61q0 23 -10 23h-185q-10 0 -10 -23v-61zM276 375q0 -25 11 -25h184 q10 0 10 25v59q0 25 -10 25h-184q-10 0 -11 -25v-59zM276 496q0 -25 11 -25h184q10 0 10 25v59q0 25 -10 25h-184q-10 0 -11 -25v-59zM276 614q0 -23 11 -22h184q10 0 10 22v62q0 25 -10 24h-184q-10 0 -11 -24v-62zM276 735q0 -25 11 -24h184q10 0 10 24v62q0 23 -10 22 h-184q-10 0 -11 -22v-62zM276 856q0 -25 11 -25h184q10 0 10 25v59q0 25 -10 25h-184q-10 0 -11 -25v-59zM461 977q0 -25 10 -25h184q10 0 11 25v59q0 25 -11 25h-184q-10 0 -10 -25v-59zM461 1096q0 -23 10 -23h184q10 0 11 23v61q0 23 -11 23h-184q-10 0 -10 -23v-61z M461 1217q0 -25 10 -25h184q10 0 11 25v59q0 25 -11 24h-184q-10 0 -10 -24v-59z" />
<glyph unicode="0" d="M92 254q0 -23 10 -23h369q10 0 10 23v61q0 23 -10 23h-369q-10 0 -10 -23v-61zM92 375q0 -25 10 -25h369q10 0 10 25v59q0 25 -10 25h-369q-10 0 -10 -25v-59zM92 496q0 -25 10 -25h369q10 0 10 25v59q0 25 -10 25h-369q-10 0 -10 -25v-59zM92 614q0 -23 10 -22h369 q10 0 10 22v62q0 25 -10 24h-369q-10 0 -10 -24v-62zM92 735q0 -25 10 -24h369q10 0 10 24v62q0 23 -10 22h-369q-10 0 -10 -22v-62zM92 856q0 -25 10 -25h369q10 0 10 25v59q0 25 -10 25h-369q-10 0 -10 -25v-59zM92 977q0 -25 10 -25h369q10 0 10 25v59q0 25 -10 25h-369 q-10 0 -10 -25v-59zM276 14q0 -25 11 -24h737q10 0 10 24v60q0 25 -10 24h-737q-10 0 -11 -24v-60zM276 135q0 -25 11 -24h737q10 0 10 24v60q0 25 -10 24h-737q-10 0 -11 -24v-60zM276 1096q0 -23 11 -23h737q10 0 10 23v61q0 23 -10 23h-737q-10 0 -11 -23v-61zM276 1217 q0 -25 11 -25h737q10 0 10 25v59q0 25 -10 24h-737q-10 0 -11 -24v-59zM829 254q0 -23 11 -23h368q10 0 11 23v61q0 23 -11 23h-368q-10 0 -11 -23v-61zM829 375q0 -25 11 -25h368q10 0 11 25v59q0 25 -11 25h-368q-10 0 -11 -25v-59zM829 496q0 -25 11 -25h368q10 0 11 25 v59q0 25 -11 25h-368q-10 0 -11 -25v-59zM829 614q0 -23 11 -22h368q10 0 11 22v62q0 25 -11 24h-368q-10 0 -11 -24v-62zM829 735q0 -25 11 -24h368q10 0 11 24v62q0 23 -11 22h-368q-10 0 -11 -22v-62zM829 856q0 -25 11 -25h368q10 0 11 25v59q0 25 -11 25h-368 q-10 0 -11 -25v-59zM829 977q0 -25 11 -25h368q10 0 11 25v59q0 25 -11 25h-368q-10 0 -11 -25v-59z" />
<glyph unicode="1" d="M92 14q0 -25 10 -24h1106q10 0 11 24v60q0 25 -11 24h-1106q-10 0 -10 -24v-60zM92 135q0 -25 10 -24h1106q10 0 11 24v60q0 25 -11 24h-1106q-10 0 -10 -24v-60zM92 614q0 -23 10 -22h738q10 0 10 22v62q0 25 -10 24h-738q-10 0 -10 -24v-62zM92 735q0 -25 10 -24h738 q10 0 10 24v62q0 23 -10 22h-738q-10 0 -10 -22v-62zM276 856q0 -25 11 -25h553q10 0 10 25v59q0 25 -10 25h-553q-10 0 -11 -25v-59zM276 977q0 -25 11 -25h553q10 0 10 25v59q0 25 -10 25h-553q-10 0 -11 -25v-59zM461 254q0 -23 10 -23h369q10 0 10 23v61q0 23 -10 23 h-369q-10 0 -10 -23v-61zM461 375q0 -25 10 -25h369q10 0 10 25v59q0 25 -10 25h-369q-10 0 -10 -25v-59zM461 496q0 -25 10 -25h369q10 0 10 25v59q0 25 -10 25h-369q-10 0 -10 -25v-59zM461 1096q0 -23 10 -23h369q10 0 10 23v61q0 23 -10 23h-369q-10 0 -10 -23v-61z M461 1217q0 -25 10 -25h369q10 0 10 25v59q0 25 -10 24h-369q-10 0 -10 -24v-59z" />
<glyph unicode="2" d="M92 14q0 -25 10 -24h1106q10 0 11 24v60q0 25 -11 24h-1106q-10 0 -10 -24v-60zM92 135q0 -25 10 -24h1106q10 0 11 24v60q0 25 -11 24h-1106q-10 0 -10 -24v-60zM92 254q0 -23 10 -23h369q10 0 10 23v61q0 23 -10 23h-369q-10 0 -10 -23v-61zM92 375q0 -25 10 -25h369 q10 0 10 25v59q0 25 -10 25h-369q-10 0 -10 -25v-59zM92 856q0 -25 10 -25h369q10 0 10 25v59q0 25 -10 25h-369q-10 0 -10 -25v-59zM92 977q0 -25 10 -25h369q10 0 10 25v59q0 25 -10 25h-369q-10 0 -10 -25v-59zM256 496q0 -25 10 -25h758q10 0 10 25v59q0 25 -10 25h-758 q-10 0 -10 -25v-59zM276 1096q0 -23 11 -23h737q10 0 10 23v61q0 23 -10 23h-737q-10 0 -11 -23v-61zM276 1217q0 -25 11 -25h737q10 0 10 25v59q0 25 -10 24h-737q-10 0 -11 -24v-59zM461 614q0 -23 10 -22h553q10 0 10 22v62q0 25 -10 24h-553q-10 0 -10 -24v-62zM829 735 q0 -25 11 -24h368q10 0 11 24v62q0 23 -11 22h-368q-10 0 -11 -22v-62zM829 856q0 -25 11 -25h368q10 0 11 25v59q0 25 -11 25h-368q-10 0 -11 -25v-59zM829 977q0 -25 11 -25h368q10 0 11 25v59q0 25 -11 25h-368q-10 0 -11 -25v-59z" />
<glyph unicode="3" d="M92 254q0 -23 10 -23h369q10 0 10 23v61q0 23 -10 23h-369q-10 0 -10 -23v-61zM92 375q0 -25 10 -25h369q10 0 10 25v59q0 25 -10 25h-369q-10 0 -10 -25v-59zM92 856q0 -25 10 -25h369q10 0 10 25v59q0 25 -10 25h-369q-10 0 -10 -25v-59zM92 977q0 -25 10 -25h369 q10 0 10 25v59q0 25 -10 25h-369q-10 0 -10 -25v-59zM276 14q0 -25 11 -24h737q10 0 10 24v60q0 25 -10 24h-737q-10 0 -11 -24v-60zM276 135q0 -25 11 -24h737q10 0 10 24v60q0 25 -10 24h-737q-10 0 -11 -24v-60zM276 1096q0 -23 11 -23h737q10 0 10 23v61q0 23 -10 23 h-737q-10 0 -11 -23v-61zM276 1217q0 -25 11 -25h737q10 0 10 25v59q0 25 -10 24h-737q-10 0 -11 -24v-59zM461 614q0 -23 10 -22h553q10 0 10 22v62q0 25 -10 24h-553q-10 0 -10 -24v-62zM829 254q0 -23 11 -23h368q10 0 11 23v61q0 23 -11 23h-368q-10 0 -11 -23v-61z M829 375q0 -25 11 -25h368q10 0 11 25v59q0 25 -11 25h-368q-10 0 -11 -25v-59zM829 496q0 -25 11 -25h368q10 0 11 25v59q0 25 -11 25h-368q-10 0 -11 -25v-59zM829 735q0 -25 11 -24h368q10 0 11 24v62q0 23 -11 22h-368q-10 0 -11 -22v-62zM829 856q0 -25 11 -25h368 q10 0 11 25v59q0 25 -11 25h-368q-10 0 -11 -25v-59zM829 977q0 -25 11 -25h368q10 0 11 25v59q0 25 -11 25h-368q-10 0 -11 -25v-59z" />
<glyph unicode="4" horiz-adv-x="1126" d="M92 496q0 -25 10 -25h922q10 0 10 25v59q0 25 -10 25h-922q-10 0 -10 -25v-59zM92 614q0 -23 10 -22h922q10 0 10 22v62q0 25 -10 24h-922q-10 0 -10 -24v-62zM92 735q0 -25 10 -24h369q10 0 10 24v62q0 23 -10 22h-369q-10 0 -10 -22v-62zM92 856q0 -25 10 -25h369 q10 0 10 25v59q0 25 -10 25h-369q-10 0 -10 -25v-59zM92 977q0 -25 10 -25h369q10 0 10 25v59q0 25 -10 25h-369q-10 0 -10 -25v-59zM92 1096q0 -23 10 -23h369q10 0 10 23v61q0 23 -10 23h-369q-10 0 -10 -23v-61zM92 1217q0 -25 10 -25h369q10 0 10 25v59q0 25 -10 24 h-369q-10 0 -10 -24v-59zM645 14q0 -25 10 -24h369q10 0 10 24v60q0 25 -10 24h-369q-10 0 -10 -24v-60zM645 135q0 -25 10 -24h369q10 0 10 24v60q0 25 -10 24h-369q-10 0 -10 -24v-60zM645 254q0 -23 10 -23h369q10 0 10 23v61q0 23 -10 23h-369q-10 0 -10 -23v-61z M645 375q0 -25 10 -25h369q10 0 10 25v59q0 25 -10 25h-369q-10 0 -10 -25v-59zM645 735q0 -25 10 -24h369q10 0 10 24v62q0 23 -10 22h-369q-10 0 -10 -22v-62zM645 856q0 -25 10 -25h369q10 0 10 25v59q0 25 -10 25h-369q-10 0 -10 -25v-59z" />
<glyph unicode="5" d="M92 254q0 -23 10 -23h369q10 0 10 23v61q0 23 -10 23h-369q-10 0 -10 -23v-61zM92 375q0 -25 10 -25h369q10 0 10 25v59q0 25 -10 25h-369q-10 0 -10 -25v-59zM92 856q0 -25 10 -25h369q10 0 10 25v59q0 25 -10 25h-369q-10 0 -10 -25v-59zM92 977q0 -25 10 -25h369 q10 0 10 25v59q0 25 -10 25h-369q-10 0 -10 -25v-59zM92 1096q0 -23 10 -23h1106q10 0 11 23v61q0 23 -11 23h-1106q-10 0 -10 -23v-61zM92 1217q0 -25 10 -25h1106q10 0 11 25v59q0 25 -11 24h-1106q-10 0 -10 -24v-59zM256 735q0 -25 10 -24h758q10 0 10 24v62 q0 23 -10 22h-758q-10 0 -10 -22v-62zM276 14q0 -25 11 -24h737q10 0 10 24v60q0 25 -10 24h-737q-10 0 -11 -24v-60zM276 135q0 -25 11 -24h737q10 0 10 24v60q0 25 -10 24h-737q-10 0 -11 -24v-60zM461 614q0 -23 10 -22h553q10 0 10 22v62q0 25 -10 24h-553 q-10 0 -10 -24v-62zM829 254q0 -23 11 -23h368q10 0 11 23v61q0 23 -11 23h-368q-10 0 -11 -23v-61zM829 375q0 -25 11 -25h368q10 0 11 25v59q0 25 -11 25h-368q-10 0 -11 -25v-59zM829 496q0 -25 11 -25h368q10 0 11 25v59q0 25 -11 25h-368q-10 0 -11 -25v-59z" />
<glyph unicode="6" d="M92 254q0 -23 10 -23h369q10 0 10 23v61q0 23 -10 23h-369q-10 0 -10 -23v-61zM92 375q0 -25 10 -25h369q10 0 10 25v59q0 25 -10 25h-369q-10 0 -10 -25v-59zM92 496q0 -25 10 -25h369q10 0 10 25v59q0 25 -10 25h-369q-10 0 -10 -25v-59zM92 735q0 -25 10 -24h369 q10 0 10 24v62q0 23 -10 22h-369q-10 0 -10 -22v-62zM276 14q0 -25 11 -24h737q10 0 10 24v60q0 25 -10 24h-737q-10 0 -11 -24v-60zM276 135q0 -25 11 -24h737q10 0 10 24v60q0 25 -10 24h-737q-10 0 -11 -24v-60zM276 614q0 -23 11 -22h737q10 0 10 22v62q0 25 -10 24 h-737q-10 0 -11 -24v-62zM276 856q0 -25 11 -25h368q10 0 11 25v59q0 25 -11 25h-368q-10 0 -11 -25v-59zM276 977q0 -25 11 -25h368q10 0 11 25v59q0 25 -11 25h-368q-10 0 -11 -25v-59zM461 1096q0 -23 10 -23h369q10 0 10 23v61q0 23 -10 23h-369q-10 0 -10 -23v-61z M461 1217q0 -25 10 -25h369q10 0 10 25v59q0 25 -10 24h-369q-10 0 -10 -24v-59zM829 254q0 -23 11 -23h368q10 0 11 23v61q0 23 -11 23h-368q-10 0 -11 -23v-61zM829 375q0 -25 11 -25h368q10 0 11 25v59q0 25 -11 25h-368q-10 0 -11 -25v-59zM829 496q0 -25 11 -25h368 q10 0 11 25v59q0 25 -11 25h-368q-10 0 -11 -25v-59z" />
<glyph unicode="7" horiz-adv-x="1126" d="M92 1096q0 -23 10 -23h922q10 0 10 23v61q0 23 -10 23h-922q-10 0 -10 -23v-61zM92 1217q0 -25 10 -25h922q10 0 10 25v59q0 25 -10 24h-922q-10 0 -10 -24v-59zM276 14q0 -25 11 -24h368q10 0 11 24v60q0 25 -11 24h-368q-10 0 -11 -24v-60zM276 135q0 -25 11 -24h368 q10 0 11 24v60q0 25 -11 24h-368q-10 0 -11 -24v-60zM276 254q0 -23 11 -23h368q10 0 11 23v61q0 23 -11 23h-368q-10 0 -11 -23v-61zM276 375q0 -25 11 -25h368q10 0 11 25v59q0 25 -11 25h-368q-10 0 -11 -25v-59zM276 496q0 -25 11 -25h368q10 0 11 25v59q0 25 -11 25 h-368q-10 0 -11 -25v-59zM461 614q0 -23 10 -22h369q10 0 10 22v62q0 25 -10 24h-369q-10 0 -10 -24v-62zM461 735q0 -25 10 -24h369q10 0 10 24v62q0 23 -10 22h-369q-10 0 -10 -22v-62zM645 856q0 -25 10 -25h369q10 0 10 25v59q0 25 -10 25h-369q-10 0 -10 -25v-59z M645 977q0 -25 10 -25h369q10 0 10 25v59q0 25 -10 25h-369q-10 0 -10 -25v-59z" />
<glyph unicode="8" d="M92 254q0 -23 10 -23h369q10 0 10 23v61q0 23 -10 23h-369q-10 0 -10 -23v-61zM92 375q0 -25 10 -25h369q10 0 10 25v59q0 25 -10 25h-369q-10 0 -10 -25v-59zM92 496q0 -25 10 -25h369q10 0 10 25v59q0 25 -10 25h-369q-10 0 -10 -25v-59zM92 735q0 -25 10 -24h369 q10 0 10 24v62q0 23 -10 22h-369q-10 0 -10 -22v-62zM92 856q0 -25 10 -25h369q10 0 10 25v59q0 25 -10 25h-369q-10 0 -10 -25v-59zM92 977q0 -25 10 -25h369q10 0 10 25v59q0 25 -10 25h-369q-10 0 -10 -25v-59zM276 14q0 -25 11 -24h737q10 0 10 24v60q0 25 -10 24h-737 q-10 0 -11 -24v-60zM276 135q0 -25 11 -24h737q10 0 10 24v60q0 25 -10 24h-737q-10 0 -11 -24v-60zM276 614q0 -23 11 -22h737q10 0 10 22v62q0 25 -10 24h-737q-10 0 -11 -24v-62zM276 1096q0 -23 11 -23h737q10 0 10 23v61q0 23 -10 23h-737q-10 0 -11 -23v-61zM276 1217 q0 -25 11 -25h737q10 0 10 25v59q0 25 -10 24h-737q-10 0 -11 -24v-59zM829 254q0 -23 11 -23h368q10 0 11 23v61q0 23 -11 23h-368q-10 0 -11 -23v-61zM829 375q0 -25 11 -25h368q10 0 11 25v59q0 25 -11 25h-368q-10 0 -11 -25v-59zM829 496q0 -25 11 -25h368q10 0 11 25 v59q0 25 -11 25h-368q-10 0 -11 -25v-59zM829 735q0 -25 11 -24h368q10 0 11 24v62q0 23 -11 22h-368q-10 0 -11 -22v-62zM829 856q0 -25 11 -25h368q10 0 11 25v59q0 25 -11 25h-368q-10 0 -11 -25v-59zM829 977q0 -25 11 -25h368q10 0 11 25v59q0 25 -11 25h-368 q-10 0 -11 -25v-59z" />
<glyph unicode="9" d="M92 735q0 -25 10 -24h369q10 0 10 24v62q0 23 -10 22h-369q-10 0 -10 -22v-62zM92 856q0 -25 10 -25h369q10 0 10 25v59q0 25 -10 25h-369q-10 0 -10 -25v-59zM92 977q0 -25 10 -25h369q10 0 10 25v59q0 25 -10 25h-369q-10 0 -10 -25v-59zM276 614q0 -23 11 -22h737 q10 0 10 22v62q0 25 -10 24h-737q-10 0 -11 -24v-62zM276 1096q0 -23 11 -23h737q10 0 10 23v61q0 23 -10 23h-737q-10 0 -11 -23v-61zM276 1217q0 -25 11 -25h737q10 0 10 25v59q0 25 -10 24h-737q-10 0 -11 -24v-59zM297 14q0 -25 10 -24h369q10 0 10 24v60q0 25 -10 24 h-369q-10 0 -10 -24v-60zM297 135q0 -25 10 -24h369q10 0 10 24v60q0 25 -10 24h-369q-10 0 -10 -24v-60zM461 254q0 -23 10 -23h369q10 0 10 23v61q0 23 -10 23h-369q-10 0 -10 -23v-61zM461 375q0 -25 10 -25h369q10 0 10 25v59q0 25 -10 25h-369q-10 0 -10 -25v-59z M645 496q0 -25 10 -25h369q10 0 10 25v59q0 25 -10 25h-369q-10 0 -10 -25v-59zM829 735q0 -25 11 -24h368q10 0 11 24v62q0 23 -11 22h-368q-10 0 -11 -22v-62zM829 856q0 -25 11 -25h368q10 0 11 25v59q0 25 -11 25h-368q-10 0 -11 -25v-59zM829 977q0 -25 11 -25h368 q10 0 11 25v59q0 25 -11 25h-368q-10 0 -11 -25v-59z" />
<glyph unicode=":" horiz-adv-x="573" d="M92 14q0 -25 10 -24h369q10 0 10 24v60q0 23 -10 22h-369q-10 0 -10 -22v-60zM92 133q0 -25 10 -24h369q10 0 10 24v60q0 23 -10 22h-369q-10 0 -10 -22v-60zM92 252q0 -25 10 -25h369q10 0 10 25v59q0 23 -10 23h-369q-10 0 -10 -23v-59zM92 489q0 -25 10 -24h369 q10 0 10 24v60q0 23 -10 22h-369q-10 0 -10 -22v-60zM92 608q0 -25 10 -24h369q10 0 10 24v60q0 23 -10 22h-369q-10 0 -10 -22v-60zM92 727q0 -25 10 -25h369q10 0 10 25v59q0 23 -10 23h-369q-10 0 -10 -23v-59z" />
<glyph unicode=";" horiz-adv-x="737" d="M92 -45v-61q0 -23 10 -23h369q10 0 10 23v61q0 23 -10 22h-369q-10 0 -10 -22zM92 -166v-59q0 -25 10 -25h369q10 0 10 25v59q0 25 -10 25h-369q-10 0 -10 -25zM256 14q0 -25 10 -24h369q10 0 10 24v60q0 25 -10 24h-369q-10 0 -10 -24v-60zM256 133q0 -23 10 -22h369 q10 0 10 22v60q0 25 -10 24h-369q-10 0 -10 -24v-60zM256 254q0 -25 10 -25h369q10 0 10 25v59q0 25 -10 25h-369q-10 0 -10 -25v-59zM256 494q0 -25 10 -25h369q10 0 10 25v59q0 23 -10 22h-369q-10 0 -10 -22v-59zM256 612q0 -25 10 -24h369q10 0 10 24v60q0 25 -10 24 h-369q-10 0 -10 -24v-60zM256 731q0 -23 10 -22h369q10 0 10 22v62q0 23 -10 22h-369q-10 0 -10 -22v-62z" />
<glyph unicode="&#x3c;" horiz-adv-x="757" d="M92 496q0 -25 10 -25h185q10 0 10 25v59q0 25 -10 25h-185q-10 0 -10 -25v-59zM92 614q0 -23 10 -22h185q10 0 10 22v62q0 25 -10 24h-185q-10 0 -10 -24v-62zM92 735q0 -25 10 -24h185q10 0 10 24v62q0 23 -10 22h-185q-10 0 -10 -22v-62zM276 254q0 -23 11 -23h184 q10 0 10 23v61q0 23 -10 23h-184q-10 0 -11 -23v-61zM276 375q0 -25 11 -25h184q10 0 10 25v59q0 25 -10 25h-184q-10 0 -11 -25v-59zM276 856q0 -25 11 -25h184q10 0 10 25v59q0 25 -10 25h-184q-10 0 -11 -25v-59zM276 977q0 -25 11 -25h184q10 0 10 25v59q0 25 -10 25 h-184q-10 0 -11 -25v-59zM461 14q0 -25 10 -24h184q10 0 11 24v60q0 25 -11 24h-184q-10 0 -10 -24v-60zM461 135q0 -25 10 -24h184q10 0 11 24v60q0 25 -11 24h-184q-10 0 -10 -24v-60zM461 1096q0 -23 10 -23h184q10 0 11 23v61q0 23 -11 23h-184q-10 0 -10 -23v-61z M461 1217q0 -25 10 -25h184q10 0 11 25v59q0 25 -11 24h-184q-10 0 -10 -24v-59z" />
<glyph unicode="=" horiz-adv-x="757" d="M92 248q0 -23 10 -23h553q10 0 11 23v59q0 23 -11 23h-553q-10 0 -10 -23v-59zM92 365q0 -23 10 -23h553q10 0 11 23v59q0 23 -11 22h-553q-10 0 -10 -22v-59zM92 598q0 -23 10 -23h553q10 0 11 23v59q0 23 -11 23h-553q-10 0 -10 -23v-59zM92 717q0 -25 10 -25h553 q10 0 11 25v57q0 25 -11 25h-553q-10 0 -10 -25v-57z" />
<glyph unicode="&#x3e;" horiz-adv-x="757" d="M92 14q0 -25 10 -24h185q10 0 10 24v60q0 25 -10 24h-185q-10 0 -10 -24v-60zM92 135q0 -25 10 -24h185q10 0 10 24v60q0 25 -10 24h-185q-10 0 -10 -24v-60zM92 1096q0 -23 10 -23h185q10 0 10 23v61q0 23 -10 23h-185q-10 0 -10 -23v-61zM92 1217q0 -25 10 -25h185 q10 0 10 25v59q0 25 -10 24h-185q-10 0 -10 -24v-59zM276 254q0 -23 11 -23h184q10 0 10 23v61q0 23 -10 23h-184q-10 0 -11 -23v-61zM276 375q0 -25 11 -25h184q10 0 10 25v59q0 25 -10 25h-184q-10 0 -11 -25v-59zM276 856q0 -25 11 -25h184q10 0 10 25v59q0 25 -10 25 h-184q-10 0 -11 -25v-59zM276 977q0 -25 11 -25h184q10 0 10 25v59q0 25 -10 25h-184q-10 0 -11 -25v-59zM461 496q0 -25 10 -25h184q10 0 11 25v59q0 25 -11 25h-184q-10 0 -10 -25v-59zM461 614q0 -23 10 -22h184q10 0 11 22v62q0 25 -11 24h-184q-10 0 -10 -24v-62z M461 735q0 -25 10 -24h184q10 0 11 24v62q0 23 -11 22h-184q-10 0 -10 -22v-62z" />
<glyph unicode="?" d="M92 856q0 -25 10 -25h369q10 0 10 25v59q0 25 -10 25h-369q-10 0 -10 -25v-59zM92 977q0 -25 10 -25h369q10 0 10 25v59q0 25 -10 25h-369q-10 0 -10 -25v-59zM276 1096q0 -23 11 -23h737q10 0 10 23v61q0 23 -10 23h-737q-10 0 -11 -23v-61zM276 1217q0 -25 11 -25h737 q10 0 10 25v59q0 25 -10 24h-737q-10 0 -11 -24v-59zM461 14q0 -25 10 -24h369q10 0 10 24v60q0 25 -10 24h-369q-10 0 -10 -24v-60zM461 135q0 -25 10 -24h369q10 0 10 24v60q0 25 -10 24h-369q-10 0 -10 -24v-60zM461 254q0 -23 10 -23h369q10 0 10 23v61q0 23 -10 23 h-369q-10 0 -10 -23v-61zM461 496q0 -25 10 -25h369q10 0 10 25v59q0 25 -10 25h-369q-10 0 -10 -25v-59zM461 614q0 -23 10 -22h553q10 0 10 22v62q0 25 -10 24h-553q-10 0 -10 -24v-62zM829 735q0 -25 11 -24h368q10 0 11 24v62q0 23 -11 22h-368q-10 0 -11 -22v-62z M829 856q0 -25 11 -25h368q10 0 11 25v59q0 25 -11 25h-368q-10 0 -11 -25v-59zM829 977q0 -25 11 -25h368q10 0 11 25v59q0 25 -11 25h-368q-10 0 -11 -25v-59z" />
<glyph unicode="@" horiz-adv-x="1495" d="M92 254q0 -23 10 -23h185q10 0 10 23v61q0 23 -10 23h-185q-10 0 -10 -23v-61zM92 375q0 -25 10 -25h185q10 0 10 25v59q0 25 -10 25h-185q-10 0 -10 -25v-59zM92 496q0 -25 10 -25h185q10 0 10 25v59q0 25 -10 25h-185q-10 0 -10 -25v-59zM92 614q0 -23 10 -22h185 q10 0 10 22v62q0 25 -10 24h-185q-10 0 -10 -24v-62zM92 735q0 -25 10 -24h185q10 0 10 24v62q0 23 -10 22h-185q-10 0 -10 -22v-62zM92 856q0 -25 10 -25h185q10 0 10 25v59q0 25 -10 25h-185q-10 0 -10 -25v-59zM92 977q0 -25 10 -25h185q10 0 10 25v59q0 25 -10 25h-185 q-10 0 -10 -25v-59zM276 14q0 -25 11 -24h553q10 0 10 24v60q0 25 -10 24h-553q-10 0 -11 -24v-60zM276 135q0 -25 11 -24h553q10 0 10 24v60q0 25 -10 24h-553q-10 0 -11 -24v-60zM276 1096q0 -23 11 -23h921q10 0 11 23v61q0 23 -11 23h-921q-10 0 -11 -23v-61zM276 1217 q0 -25 11 -25h921q10 0 11 25v59q0 25 -11 24h-921q-10 0 -11 -24v-59zM461 375q0 -25 10 -25h922q10 0 10 25v59q0 25 -10 25h-922q-10 0 -10 -25v-59zM461 496q0 -25 10 -25h922q10 0 10 25v59q0 25 -10 25h-922q-10 0 -10 -25v-59zM461 614q0 -23 10 -22h184q10 0 11 22 v62q0 25 -11 24h-184q-10 0 -10 -24v-62zM461 735q0 -25 10 -24h184q10 0 11 24v62q0 23 -11 22h-184q-10 0 -10 -22v-62zM645 856q0 -25 10 -25h185q10 0 10 25v59q0 25 -10 25h-185q-10 0 -10 -25v-59zM829 614q0 -23 11 -22h184q10 0 10 22v62q0 25 -10 24h-184 q-10 0 -11 -24v-62zM829 735q0 -25 11 -24h184q10 0 10 24v62q0 23 -10 22h-184q-10 0 -11 -22v-62zM1198 614q0 -23 10 -22h185q10 0 10 22v62q0 25 -10 24h-185q-10 0 -10 -24v-62zM1198 735q0 -25 10 -24h185q10 0 10 24v62q0 23 -10 22h-185q-10 0 -10 -22v-62z M1198 856q0 -25 10 -25h185q10 0 10 25v59q0 25 -10 25h-185q-10 0 -10 -25v-59zM1198 977q0 -25 10 -25h185q10 0 10 25v59q0 25 -10 25h-185q-10 0 -10 -25v-59z" />
<glyph unicode="A" d="M92 14q0 -24 9 -24h1h369q10 0 10 24v60q0 25 -10 24h-369q-10 0 -10 -24v-60zM92 135q0 -25 10 -24h369q10 0 10 24v60q0 25 -10 24h-369q-10 0 -10 -24v-60zM92 254q0 -23 10 -23h369q10 0 10 23v61q0 23 -10 23h-369q-10 0 -10 -23v-61zM92 375q0 -25 10 -25h369 q10 0 10 25v59q0 25 -10 25h-369q-10 0 -10 -25v-59zM92 496q0 -25 10 -25h369q10 0 10 25v59q0 25 -10 25h-369q-10 0 -10 -25v-59zM92 614q0 -23 10 -22h1106q10 0 11 22v62q0 25 -11 24h-1106q-10 0 -10 -24v-62zM92 735q0 -25 10 -24h369q10 0 10 24v62q0 23 -10 22 h-369q-10 0 -10 -22v-62zM92 856q0 -25 10 -25h369q10 0 10 25v59q0 25 -10 25h-369q-10 0 -10 -25v-59zM276 977q0 -25 11 -25h737q10 0 10 25v59q0 25 -10 25h-737q-10 0 -11 -25v-59zM461 1096q0 -23 10 -23h369q10 0 10 23v61q0 23 -10 23h-369q-10 0 -10 -23v-61z M461 1217q0 -25 10 -25h369q10 0 10 25v59q0 24 -9 24h-1h-369q-10 0 -10 -24v-59zM829 14q0 -24 10 -24h1h368q10 0 11 24v60q0 25 -11 24h-368q-10 0 -11 -24v-60zM829 135q0 -24 10 -24h1h368q10 0 11 24v60q0 25 -11 24h-368q-10 0 -11 -24v-60zM829 254q0 -23 11 -23 h368q10 0 11 23v61q0 23 -11 23h-368q-10 0 -11 -23v-61zM829 375q0 -25 11 -25h368q10 0 11 25v59q0 25 -11 25h-368q-10 0 -11 -25v-59zM829 496q0 -25 11 -25h368q10 0 11 25v59q0 25 -11 25h-368q-10 0 -11 -25v-59zM829 735q0 -24 10 -24h1h368q10 0 11 24v62 q0 23 -11 22h-368q-10 0 -11 -22v-62zM829 856q0 -25 11 -25h368q10 0 11 25v59q0 25 -11 25h-368q-10 0 -11 -25v-59z" />
<glyph unicode="B" horiz-adv-x="1187" d="M92 14q0 -24 9 -24h1h676q10 0 10 24v60q0 25 -10 24h-676q-10 0 -10 -24v-60zM92 135q0 -24 9 -24h1h799q10 0 10 24v60q0 25 -10 24h-799q-10 0 -10 -24v-60zM92 254q0 -23 10 -23h369q10 0 10 23v61q0 23 -10 23h-369q-10 0 -10 -23v-61zM92 375q0 -25 10 -25h369 q10 0 10 25v59q0 25 -10 25h-369q-10 0 -10 -25v-59zM92 496q0 -25 10 -25h369q10 0 10 25v59q0 25 -10 25h-369q-10 0 -10 -25v-59zM92 614q0 -23 10 -22h799q10 0 10 22v62q0 25 -10 24h-799q-10 0 -10 -24v-62zM92 735q0 -25 10 -24h369q10 0 10 24v62q0 23 -10 22h-369 q-10 0 -10 -22v-62zM92 856q0 -25 10 -25h369q10 0 10 25v59q0 25 -10 25h-369q-10 0 -10 -25v-59zM92 977q0 -25 10 -25h369q10 0 10 25v59q0 25 -10 25h-369q-10 0 -10 -25v-59zM92 1096q0 -23 10 -23h799q10 0 10 23v61q0 23 -10 23h-799q-10 0 -10 -23v-61zM92 1217 q0 -25 10 -25h676q10 0 10 25v59q0 24 -9 24h-1h-676q-10 0 -10 -24v-59zM707 254q0 -23 10 -23h368q10 0 11 23v61q0 23 -11 23h-368q-10 0 -10 -23v-61zM707 375q0 -25 10 -25h368q10 0 11 25v59q0 25 -11 25h-368q-10 0 -10 -25v-59zM707 496q0 -25 10 -25h368 q10 0 11 25v59q0 25 -11 25h-368q-10 0 -10 -25v-59zM707 735q0 -24 9 -24h1h368q10 0 11 24v62q0 23 -11 22h-368q-10 0 -10 -22v-62zM707 856q0 -25 10 -25h368q10 0 11 25v59q0 25 -11 25h-368q-10 0 -10 -25v-59zM707 977q0 -25 10 -25h368q10 0 11 25v59q0 25 -11 25 h-368q-10 0 -10 -25v-59z" />
<glyph unicode="C" horiz-adv-x="1126" d="M92 254q0 -23 10 -23h369q10 0 10 23v61q0 23 -10 23h-369q-10 0 -10 -23v-61zM92 375q0 -25 10 -25h369q10 0 10 25v59q0 25 -10 25h-369q-10 0 -10 -25v-59zM92 496q0 -25 10 -25h369q10 0 10 25v59q0 25 -10 25h-369q-10 0 -10 -25v-59zM92 614q0 -23 10 -22h369 q10 0 10 22v62q0 25 -10 24h-369q-10 0 -10 -24v-62zM92 735q0 -25 10 -24h369q10 0 10 24v62q0 23 -10 22h-369q-10 0 -10 -22v-62zM92 856q0 -25 10 -25h369q10 0 10 25v59q0 25 -10 25h-369q-10 0 -10 -25v-59zM92 977q0 -25 10 -25h369q10 0 10 25v59q0 25 -10 25h-369 q-10 0 -10 -25v-59zM276 135q0 -25 11 -24h737q10 0 10 24v60q0 25 -10 24h-737q-10 0 -11 -24v-60zM276 1096q0 -23 11 -23h737q10 0 10 23v61q0 23 -10 23h-737q-10 0 -11 -23v-61zM461 14q0 -24 9 -24h1h553q10 0 10 24v60q0 25 -10 24h-553q-10 0 -10 -24v-60zM461 1217 q0 -25 10 -25h553q10 0 10 25v59q0 24 -9 24h-1h-553q-10 0 -10 -24v-59z" />
<glyph unicode="D" d="M92 14q0 -24 9 -24h1h738q10 0 10 24v60q0 25 -10 24h-738q-10 0 -10 -24v-60zM92 135q0 -24 9 -24h1h922q10 0 10 24v60q0 25 -10 24h-922q-10 0 -10 -24v-60zM92 254q0 -23 10 -23h369q10 0 10 23v61q0 23 -10 23h-369q-10 0 -10 -23v-61zM92 375q0 -25 10 -25h369 q10 0 10 25v59q0 25 -10 25h-369q-10 0 -10 -25v-59zM92 496q0 -25 10 -25h369q10 0 10 25v59q0 25 -10 25h-369q-10 0 -10 -25v-59zM92 614q0 -23 10 -22h369q10 0 10 22v62q0 25 -10 24h-369q-10 0 -10 -24v-62zM92 735q0 -25 10 -24h369q10 0 10 24v62q0 23 -10 22h-369 q-10 0 -10 -22v-62zM92 856q0 -25 10 -25h369q10 0 10 25v59q0 25 -10 25h-369q-10 0 -10 -25v-59zM92 977q0 -25 10 -25h369q10 0 10 25v59q0 25 -10 25h-369q-10 0 -10 -25v-59zM92 1096q0 -23 10 -23h922q10 0 10 23v61q0 23 -10 23h-922q-10 0 -10 -23v-61zM92 1217 q0 -25 10 -25h738q10 0 10 25v59q0 24 -9 24h-1h-738q-10 0 -10 -24v-59zM645 254q0 -23 10 -23h553q10 0 11 23v61q0 23 -11 23h-553q-10 0 -10 -23v-61zM645 977q0 -25 10 -25h553q10 0 11 25v59q0 25 -11 25h-553q-10 0 -10 -25v-59zM829 375q0 -25 11 -25h368 q10 0 11 25v59q0 25 -11 25h-368q-10 0 -11 -25v-59zM829 496q0 -25 11 -25h368q10 0 11 25v59q0 25 -11 25h-368q-10 0 -11 -25v-59zM829 614q0 -22 10 -22h1h368q10 0 11 22v62q0 25 -11 24h-368q-10 0 -11 -24v-62zM829 735q0 -24 10 -24h1h368q10 0 11 24v62 q0 23 -11 22h-368q-10 0 -11 -22v-62zM829 856q0 -25 11 -25h368q10 0 11 25v59q0 25 -11 25h-368q-10 0 -11 -25v-59z" />
<glyph unicode="E" horiz-adv-x="1126" d="M92 14q0 -24 9 -24h1h922q10 0 10 24v60q0 25 -10 24h-922q-10 0 -10 -24v-60zM92 135q0 -24 9 -24h1h922q10 0 10 24v60q0 25 -10 24h-922q-10 0 -10 -24v-60zM92 254q0 -23 10 -23h369q10 0 10 23v61q0 23 -10 23h-369q-10 0 -10 -23v-61zM92 375q0 -25 10 -25h369 q10 0 10 25v59q0 25 -10 25h-369q-10 0 -10 -25v-59zM92 496q0 -25 10 -25h369q10 0 10 25v59q0 25 -10 25h-369q-10 0 -10 -25v-59zM92 614q0 -22 9 -22h1h738q10 0 10 22v62q0 25 -10 24h-738q-10 0 -10 -24v-62zM92 735q0 -24 9 -24h1h369q10 0 10 24v62q0 23 -10 22 h-369q-10 0 -10 -22v-62zM92 856q0 -25 10 -25h369q10 0 10 25v59q0 25 -10 25h-369q-10 0 -10 -25v-59zM92 977q0 -25 10 -25h369q10 0 10 25v59q0 25 -10 25h-369q-10 0 -10 -25v-59zM92 1096q0 -23 10 -23h922q10 0 10 23v61q0 23 -10 23h-922q-10 0 -10 -23v-61z M92 1217q0 -25 10 -25h922q10 0 10 25v59q0 24 -9 24h-1h-922q-10 0 -10 -24v-59z" />
<glyph unicode="F" horiz-adv-x="1126" d="M92 14q0 -24 9 -24h1h369q10 0 10 24v60q0 25 -10 24h-369q-10 0 -10 -24v-60zM92 135q0 -24 9 -24h1h369q10 0 10 24v60q0 25 -10 24h-369q-10 0 -10 -24v-60zM92 254q0 -23 10 -23h369q10 0 10 23v61q0 23 -10 23h-369q-10 0 -10 -23v-61zM92 375q0 -25 10 -25h369 q10 0 10 25v59q0 25 -10 25h-369q-10 0 -10 -25v-59zM92 496q0 -25 10 -25h369q10 0 10 25v59q0 25 -10 25h-369q-10 0 -10 -25v-59zM92 614q0 -22 9 -22h1h738q10 0 10 22v62q0 25 -10 24h-738q-10 0 -10 -24v-62zM92 735q0 -24 9 -24h1h369q10 0 10 24v62q0 23 -10 22 h-369q-10 0 -10 -22v-62zM92 856q0 -25 10 -25h369q10 0 10 25v59q0 25 -10 25h-369q-10 0 -10 -25v-59zM92 977q0 -25 10 -25h369q10 0 10 25v59q0 25 -10 25h-369q-10 0 -10 -25v-59zM92 1096q0 -23 10 -23h922q10 0 10 23v61q0 23 -10 23h-922q-10 0 -10 -23v-61z M92 1217q0 -25 10 -25h922q10 0 10 25v59q0 24 -9 24h-1h-922q-10 0 -10 -24v-59z" />
<glyph unicode="G" d="M92 254q0 -23 10 -23h369q10 0 10 23v61q0 23 -10 23h-369q-10 0 -10 -23v-61zM92 375q0 -25 10 -25h369q10 0 10 25v59q0 25 -10 25h-369q-10 0 -10 -25v-59zM92 496q0 -25 10 -25h369q10 0 10 25v59q0 25 -10 25h-369q-10 0 -10 -25v-59zM92 614q0 -23 10 -22h369 q10 0 10 22v62q0 25 -10 24h-369q-10 0 -10 -24v-62zM92 735q0 -25 10 -24h369q10 0 10 24v62q0 23 -10 22h-369q-10 0 -10 -22v-62zM92 856q0 -25 10 -25h369q10 0 10 25v59q0 25 -10 25h-369q-10 0 -10 -25v-59zM92 977q0 -25 10 -25h369q10 0 10 25v59q0 25 -10 25h-369 q-10 0 -10 -25v-59zM276 14q0 -24 10 -24h1h737q10 0 10 24v60q0 25 -10 24h-737q-10 0 -11 -24v-60zM276 135q0 -24 10 -24h1h737q10 0 10 24v60q0 25 -10 24h-737q-10 0 -11 -24v-60zM276 1096q0 -23 11 -23h737q10 0 10 23v61q0 23 -10 23h-737q-10 0 -11 -23v-61z M276 1217q0 -25 11 -25h737q10 0 10 25v59q0 24 -9 24h-1h-737q-10 0 -11 -24v-59zM645 614q0 -23 10 -22h553q10 0 11 22v62q0 25 -11 24h-553q-10 0 -10 -24v-62zM829 254q0 -23 11 -23h368q10 0 11 23v61q0 23 -11 23h-368q-10 0 -11 -23v-61zM829 375q0 -25 11 -25h368 q10 0 11 25v59q0 25 -11 25h-368q-10 0 -11 -25v-59zM829 496q0 -25 11 -25h368q10 0 11 25v59q0 25 -11 25h-368q-10 0 -11 -25v-59zM829 977q0 -25 11 -25h368q10 0 11 25v59q0 25 -11 25h-368q-10 0 -11 -25v-59z" />
<glyph unicode="H" d="M92 14q0 -24 9 -24h1h369q10 0 10 24v60q0 25 -10 24h-369q-10 0 -10 -24v-60zM92 135q0 -25 10 -24h369q10 0 10 24v60q0 25 -10 24h-369q-10 0 -10 -24v-60zM92 254q0 -23 10 -23h369q10 0 10 23v61q0 23 -10 23h-369q-10 0 -10 -23v-61zM92 375q0 -25 10 -25h369 q10 0 10 25v59q0 25 -10 25h-369q-10 0 -10 -25v-59zM92 496q0 -25 10 -25h369q10 0 10 25v59q0 25 -10 25h-369q-10 0 -10 -25v-59zM92 614q0 -23 10 -22h1106q10 0 11 22v62q0 25 -11 24h-1106q-10 0 -10 -24v-62zM92 735q0 -25 10 -24h369q10 0 10 24v62q0 23 -10 22 h-369q-10 0 -10 -22v-62zM92 856q0 -25 10 -25h369q10 0 10 25v59q0 25 -10 25h-369q-10 0 -10 -25v-59zM92 977q0 -25 10 -25h369q10 0 10 25v59q0 25 -10 25h-369q-10 0 -10 -25v-59zM92 1096q0 -23 10 -23h369q10 0 10 23v61q0 23 -10 23h-369q-10 0 -10 -23v-61z M92 1217q0 -25 10 -25h369q10 0 10 25v59q0 24 -9 24h-1h-369q-10 0 -10 -24v-59zM829 14q0 -24 10 -24h1h368q10 0 11 24v60q0 25 -11 24h-368q-10 0 -11 -24v-60zM829 135q0 -24 10 -24h1h368q10 0 11 24v60q0 25 -11 24h-368q-10 0 -11 -24v-60zM829 254q0 -23 11 -23 h368q10 0 11 23v61q0 23 -11 23h-368q-10 0 -11 -23v-61zM829 375q0 -25 11 -25h368q10 0 11 25v59q0 25 -11 25h-368q-10 0 -11 -25v-59zM829 496q0 -25 11 -25h368q10 0 11 25v59q0 25 -11 25h-368q-10 0 -11 -25v-59zM829 735q0 -24 10 -24h1h368q10 0 11 24v62 q0 23 -11 22h-368q-10 0 -11 -22v-62zM829 856q0 -25 11 -25h368q10 0 11 25v59q0 25 -11 25h-368q-10 0 -11 -25v-59zM829 977q0 -25 11 -25h368q10 0 11 25v59q0 25 -11 25h-368q-10 0 -11 -25v-59zM829 1096q0 -23 11 -23h368q10 0 11 23v61q0 23 -11 23h-368 q-10 0 -11 -23v-61zM829 1217q0 -25 11 -25h368q10 0 11 25v59q0 24 -10 24h-1h-368q-10 0 -11 -24v-59z" />
<glyph unicode="I" d="M92 14q0 -24 9 -24h1h1106q10 0 11 24v60q0 25 -11 24h-1106q-10 0 -10 -24v-60zM92 135q0 -24 9 -24h1h1106q10 0 11 24v60q0 25 -11 24h-1106q-10 0 -10 -24v-60zM92 1096q0 -23 10 -23h1106q10 0 11 23v61q0 23 -11 23h-1106q-10 0 -10 -23v-61zM92 1217q0 -25 10 -25 h1106q10 0 11 25v59q0 24 -10 24h-1h-1106q-10 0 -10 -24v-59zM461 254q0 -23 10 -23h369q10 0 10 23v61q0 23 -10 23h-369q-10 0 -10 -23v-61zM461 375q0 -25 10 -25h369q10 0 10 25v59q0 25 -10 25h-369q-10 0 -10 -25v-59zM461 496q0 -25 10 -25h369q10 0 10 25v59 q0 25 -10 25h-369q-10 0 -10 -25v-59zM461 614q0 -22 9 -22h1h369q10 0 10 22v62q0 25 -10 24h-369q-10 0 -10 -24v-62zM461 735q0 -24 9 -24h1h369q10 0 10 24v62q0 23 -10 22h-369q-10 0 -10 -22v-62zM461 856q0 -25 10 -25h369q10 0 10 25v59q0 25 -10 25h-369 q-10 0 -10 -25v-59zM461 977q0 -25 10 -25h369q10 0 10 25v59q0 25 -10 25h-369q-10 0 -10 -25v-59z" />
<glyph unicode="J" horiz-adv-x="1126" d="M92 14q0 -24 9 -24h1h553q10 0 11 24v60q0 25 -11 24h-553q-10 0 -10 -24v-60zM92 135q0 -24 9 -24h1h738q10 0 10 24v60q0 25 -10 24h-738q-10 0 -10 -24v-60zM92 1096q0 -23 10 -23h922q10 0 10 23v61q0 23 -10 23h-922q-10 0 -10 -23v-61zM92 1217q0 -25 10 -25h922 q10 0 10 25v59q0 24 -9 24h-1h-922q-10 0 -10 -24v-59zM645 254q0 -23 10 -23h369q10 0 10 23v61q0 23 -10 23h-369q-10 0 -10 -23v-61zM645 375q0 -25 10 -25h369q10 0 10 25v59q0 25 -10 25h-369q-10 0 -10 -25v-59zM645 496q0 -25 10 -25h369q10 0 10 25v59q0 25 -10 25 h-369q-10 0 -10 -25v-59zM645 614q0 -22 9 -22h1h369q10 0 10 22v62q0 25 -10 24h-369q-10 0 -10 -24v-62zM645 735q0 -24 9 -24h1h369q10 0 10 24v62q0 23 -10 22h-369q-10 0 -10 -22v-62zM645 856q0 -25 10 -25h369q10 0 10 25v59q0 25 -10 25h-369q-10 0 -10 -25v-59z M645 977q0 -25 10 -25h369q10 0 10 25v59q0 25 -10 25h-369q-10 0 -10 -25v-59z" />
<glyph unicode="K" d="M92 14q0 -24 9 -24h1h369q10 0 10 24v60q0 25 -10 24h-369q-10 0 -10 -24v-60zM92 135q0 -25 10 -24h369q10 0 10 24v60q0 25 -10 24h-369q-10 0 -10 -24v-60zM92 254q0 -23 10 -23h369q10 0 10 23v61q0 23 -10 23h-369q-10 0 -10 -23v-61zM92 375q0 -25 10 -25h369 q10 0 10 25v59q0 25 -10 25h-369q-10 0 -10 -25v-59zM92 496q0 -25 10 -25h738q10 0 10 25v59q0 25 -10 25h-738q-10 0 -10 -25v-59zM92 614q0 -23 10 -22h738q10 0 10 22v62q0 25 -10 24h-738q-10 0 -10 -24v-62zM92 735q0 -25 10 -24h738q10 0 10 24v62q0 23 -10 22h-738 q-10 0 -10 -22v-62zM92 856q0 -25 10 -25h369q10 0 10 25v59q0 25 -10 25h-369q-10 0 -10 -25v-59zM92 977q0 -25 10 -25h369q10 0 10 25v59q0 25 -10 25h-369q-10 0 -10 -25v-59zM92 1096q0 -23 10 -23h369q10 0 10 23v61q0 23 -10 23h-369q-10 0 -10 -23v-61zM92 1217 q0 -25 10 -25h369q10 0 10 25v59q0 24 -9 24h-1h-369q-10 0 -10 -24v-59zM645 254q0 -23 10 -23h369q10 0 10 23v61q0 23 -10 23h-369q-10 0 -10 -23v-61zM645 375q0 -25 10 -25h369q10 0 10 25v59q0 25 -10 25h-369q-10 0 -10 -25v-59zM645 856q0 -25 10 -25h369 q10 0 10 25v59q0 25 -10 25h-369q-10 0 -10 -25v-59zM645 977q0 -25 10 -25h369q10 0 10 25v59q0 25 -10 25h-369q-10 0 -10 -25v-59zM829 14q0 -24 10 -24h1h368q10 0 11 24v60q0 25 -11 24h-368q-10 0 -11 -24v-60zM829 135q0 -24 10 -24h1h368q10 0 11 24v60q0 25 -11 24 h-368q-10 0 -11 -24v-60zM829 1096q0 -23 11 -23h368q10 0 11 23v61q0 23 -11 23h-368q-10 0 -11 -23v-61zM829 1217q0 -25 11 -25h368q10 0 11 25v59q0 24 -10 24h-1h-368q-10 0 -11 -24v-59z" />
<glyph unicode="L" horiz-adv-x="1126" d="M92 14q0 -24 9 -24h1h922q10 0 10 24v60q0 25 -10 24h-922q-10 0 -10 -24v-60zM92 135q0 -24 9 -24h1h922q10 0 10 24v60q0 25 -10 24h-922q-10 0 -10 -24v-60zM92 254q0 -23 10 -23h369q10 0 10 23v61q0 23 -10 23h-369q-10 0 -10 -23v-61zM92 375q0 -25 10 -25h369 q10 0 10 25v59q0 25 -10 25h-369q-10 0 -10 -25v-59zM92 496q0 -25 10 -25h369q10 0 10 25v59q0 25 -10 25h-369q-10 0 -10 -25v-59zM92 614q0 -22 9 -22h1h369q10 0 10 22v62q0 25 -10 24h-369q-10 0 -10 -24v-62zM92 735q0 -24 9 -24h1h369q10 0 10 24v62q0 23 -10 22 h-369q-10 0 -10 -22v-62zM92 856q0 -25 10 -25h369q10 0 10 25v59q0 25 -10 25h-369q-10 0 -10 -25v-59zM92 977q0 -25 10 -25h369q10 0 10 25v59q0 25 -10 25h-369q-10 0 -10 -25v-59zM92 1096q0 -23 10 -23h369q10 0 10 23v61q0 23 -10 23h-369q-10 0 -10 -23v-61z M92 1217q0 -25 10 -25h369q10 0 10 25v59q0 24 -9 24h-1h-369q-10 0 -10 -24v-59z" />
<glyph unicode="M" horiz-adv-x="1495" d="M92 14q0 -24 9 -24h1h369q10 0 10 24v60q0 25 -10 24h-369q-10 0 -10 -24v-60zM92 135q0 -25 10 -24h369q10 0 10 24v60q0 25 -10 24h-369q-10 0 -10 -24v-60zM92 254q0 -23 10 -23h369q10 0 10 23v61q0 23 -10 23h-369q-10 0 -10 -23v-61zM92 375q0 -25 10 -25h369 q10 0 10 25v59q0 25 -10 25h-369q-10 0 -10 -25v-59zM92 496q0 -25 10 -25h369q10 0 10 25v59q0 25 -10 25h-369q-10 0 -10 -25v-59zM92 614q0 -23 10 -22h369q10 0 10 22v62q0 25 -10 24h-369q-10 0 -10 -24v-62zM92 735q0 -25 10 -24h369q10 0 10 24v62q0 23 -10 22h-369 q-10 0 -10 -22v-62zM92 856q0 -25 10 -25h369q10 0 10 25v59q0 25 -10 25h-369q-10 0 -10 -25v-59zM92 977q0 -25 10 -25h1291q10 0 10 25v59q0 25 -10 25h-1291q-10 0 -10 -25v-59zM92 1096q0 -23 10 -23h553q10 0 11 23v61q0 23 -11 23h-553q-10 0 -10 -23v-61zM92 1217 q0 -25 10 -25h369q10 0 10 25v59q0 24 -9 24h-1h-369q-10 0 -10 -24v-59zM645 614q0 -23 10 -22h185q10 0 10 22v62q0 25 -10 24h-185q-10 0 -10 -24v-62zM645 735q0 -25 10 -24h185q10 0 10 24v62q0 23 -10 22h-185q-10 0 -10 -22v-62zM645 856q0 -25 10 -25h185 q10 0 10 25v59q0 25 -10 25h-185q-10 0 -10 -25v-59zM829 1096q0 -23 11 -23h553q10 0 10 23v61q0 23 -10 23h-553q-10 0 -11 -23v-61zM1014 14q0 -24 9 -24h1h369q10 0 10 24v60q0 25 -10 24h-369q-10 0 -10 -24v-60zM1014 135q0 -24 9 -24h1h369q10 0 10 24v60 q0 25 -10 24h-369q-10 0 -10 -24v-60zM1014 254q0 -23 10 -23h369q10 0 10 23v61q0 23 -10 23h-369q-10 0 -10 -23v-61zM1014 375q0 -25 10 -25h369q10 0 10 25v59q0 25 -10 25h-369q-10 0 -10 -25v-59zM1014 496q0 -25 10 -25h369q10 0 10 25v59q0 25 -10 25h-369 q-10 0 -10 -25v-59zM1014 614q0 -22 9 -22h1h369q10 0 10 22v62q0 25 -10 24h-369q-10 0 -10 -24v-62zM1014 735q0 -24 9 -24h1h369q10 0 10 24v62q0 23 -10 22h-369q-10 0 -10 -22v-62zM1014 856q0 -25 10 -25h369q10 0 10 25v59q0 25 -10 25h-369q-10 0 -10 -25v-59z M1014 1217q0 -25 10 -25h369q10 0 10 25v59q0 24 -9 24h-1h-369q-10 0 -10 -24v-59z" />
<glyph unicode="N" d="M92 14q0 -24 9 -24h1h369q10 0 10 24v60q0 25 -10 24h-369q-10 0 -10 -24v-60zM92 135q0 -25 10 -24h369q10 0 10 24v60q0 25 -10 24h-369q-10 0 -10 -24v-60zM92 254q0 -23 10 -23h369q10 0 10 23v61q0 23 -10 23h-369q-10 0 -10 -23v-61zM92 375q0 -25 10 -25h369 q10 0 10 25v59q0 25 -10 25h-369q-10 0 -10 -25v-59zM92 496q0 -25 10 -25h369q10 0 10 25v59q0 25 -10 25h-369q-10 0 -10 -25v-59zM92 614q0 -23 10 -22h369q10 0 10 22v62q0 25 -10 24h-369q-10 0 -10 -24v-62zM92 735q0 -25 10 -24h1106q10 0 11 24v62q0 23 -11 22 h-1106q-10 0 -10 -22v-62zM92 856q0 -25 10 -25h1106q10 0 11 25v59q0 25 -11 25h-1106q-10 0 -10 -25v-59zM92 977q0 -25 10 -25h553q10 0 11 25v59q0 25 -11 25h-553q-10 0 -10 -25v-59zM92 1096q0 -23 10 -23h369q10 0 10 23v61q0 23 -10 23h-369q-10 0 -10 -23v-61z M92 1217q0 -25 10 -25h369q10 0 10 25v59q0 24 -9 24h-1h-369q-10 0 -10 -24v-59zM645 614q0 -23 10 -22h553q10 0 11 22v62q0 25 -11 24h-553q-10 0 -10 -24v-62zM829 14q0 -24 10 -24h1h368q10 0 11 24v60q0 25 -11 24h-368q-10 0 -11 -24v-60zM829 135q0 -24 10 -24h1 h368q10 0 11 24v60q0 25 -11 24h-368q-10 0 -11 -24v-60zM829 254q0 -23 11 -23h368q10 0 11 23v61q0 23 -11 23h-368q-10 0 -11 -23v-61zM829 375q0 -25 11 -25h368q10 0 11 25v59q0 25 -11 25h-368q-10 0 -11 -25v-59zM829 496q0 -25 11 -25h368q10 0 11 25v59 q0 25 -11 25h-368q-10 0 -11 -25v-59zM829 977q0 -25 11 -25h368q10 0 11 25v59q0 25 -11 25h-368q-10 0 -11 -25v-59zM829 1096q0 -23 11 -23h368q10 0 11 23v61q0 23 -11 23h-368q-10 0 -11 -23v-61zM829 1217q0 -25 11 -25h368q10 0 11 25v59q0 24 -10 24h-1h-368 q-10 0 -11 -24v-59z" />
<glyph unicode="O" d="M92 254q0 -23 10 -23h369q10 0 10 23v61q0 23 -10 23h-369q-10 0 -10 -23v-61zM92 375q0 -25 10 -25h369q10 0 10 25v59q0 25 -10 25h-369q-10 0 -10 -25v-59zM92 496q0 -25 10 -25h369q10 0 10 25v59q0 25 -10 25h-369q-10 0 -10 -25v-59zM92 614q0 -23 10 -22h369 q10 0 10 22v62q0 25 -10 24h-369q-10 0 -10 -24v-62zM92 735q0 -25 10 -24h369q10 0 10 24v62q0 23 -10 22h-369q-10 0 -10 -22v-62zM92 856q0 -25 10 -25h369q10 0 10 25v59q0 25 -10 25h-369q-10 0 -10 -25v-59zM92 977q0 -25 10 -25h369q10 0 10 25v59q0 25 -10 25h-369 q-10 0 -10 -25v-59zM276 14q0 -24 10 -24h1h737q10 0 10 24v60q0 25 -10 24h-737q-10 0 -11 -24v-60zM276 135q0 -24 10 -24h1h737q10 0 10 24v60q0 25 -10 24h-737q-10 0 -11 -24v-60zM276 1096q0 -23 11 -23h737q10 0 10 23v61q0 23 -10 23h-737q-10 0 -11 -23v-61z M276 1217q0 -25 11 -25h737q10 0 10 25v59q0 24 -9 24h-1h-737q-10 0 -11 -24v-59zM829 254q0 -23 11 -23h368q10 0 11 23v61q0 23 -11 23h-368q-10 0 -11 -23v-61zM829 375q0 -25 11 -25h368q10 0 11 25v59q0 25 -11 25h-368q-10 0 -11 -25v-59zM829 496q0 -25 11 -25h368 q10 0 11 25v59q0 25 -11 25h-368q-10 0 -11 -25v-59zM829 614q0 -22 10 -22h1h368q10 0 11 22v62q0 25 -11 24h-368q-10 0 -11 -24v-62zM829 735q0 -24 10 -24h1h368q10 0 11 24v62q0 23 -11 22h-368q-10 0 -11 -22v-62zM829 856q0 -25 11 -25h368q10 0 11 25v59 q0 25 -11 25h-368q-10 0 -11 -25v-59zM829 977q0 -25 11 -25h368q10 0 11 25v59q0 25 -11 25h-368q-10 0 -11 -25v-59z" />
<glyph unicode="P" d="M92 14q0 -24 9 -24h1h369q10 0 10 24v60q0 25 -10 24h-369q-10 0 -10 -24v-60zM92 135q0 -24 9 -24h1h369q10 0 10 24v60q0 25 -10 24h-369q-10 0 -10 -24v-60zM92 254q0 -23 10 -23h369q10 0 10 23v61q0 23 -10 23h-369q-10 0 -10 -23v-61zM92 375q0 -25 10 -25h369 q10 0 10 25v59q0 25 -10 25h-369q-10 0 -10 -25v-59zM92 496q0 -25 10 -25h799q10 0 10 25v59q0 25 -10 25h-799q-10 0 -10 -25v-59zM92 614q0 -22 9 -22h1h922q10 0 10 22v62q0 25 -10 24h-922q-10 0 -10 -24v-62zM92 735q0 -24 9 -24h1h369q10 0 10 24v62q0 23 -10 22 h-369q-10 0 -10 -22v-62zM92 856q0 -25 10 -25h369q10 0 10 25v59q0 25 -10 25h-369q-10 0 -10 -25v-59zM92 977q0 -25 10 -25h369q10 0 10 25v59q0 25 -10 25h-369q-10 0 -10 -25v-59zM92 1096q0 -23 10 -23h922q10 0 10 23v61q0 23 -10 23h-922q-10 0 -10 -23v-61z M92 1217q0 -25 10 -25h738q10 0 10 25v59q0 24 -9 24h-1h-738q-10 0 -10 -24v-59zM829 735q0 -24 10 -24h1h368q10 0 11 24v62q0 23 -11 22h-368q-10 0 -11 -22v-62zM829 856q0 -25 11 -25h368q10 0 11 25v59q0 25 -11 25h-368q-10 0 -11 -25v-59zM829 977q0 -25 11 -25h368 q10 0 11 25v59q0 25 -11 25h-368q-10 0 -11 -25v-59z" />
<glyph unicode="Q" d="M92 254q0 -23 10 -23h369q10 0 10 23v61q0 23 -10 23h-369q-10 0 -10 -23v-61zM92 375q0 -25 10 -25h369q10 0 10 25v59q0 25 -10 25h-369q-10 0 -10 -25v-59zM92 496q0 -25 10 -25h369q10 0 10 25v59q0 25 -10 25h-369q-10 0 -10 -25v-59zM92 614q0 -23 10 -22h369 q10 0 10 22v62q0 25 -10 24h-369q-10 0 -10 -24v-62zM92 735q0 -25 10 -24h369q10 0 10 24v62q0 23 -10 22h-369q-10 0 -10 -22v-62zM92 856q0 -25 10 -25h369q10 0 10 25v59q0 25 -10 25h-369q-10 0 -10 -25v-59zM92 977q0 -25 10 -25h369q10 0 10 25v59q0 25 -10 25h-369 q-10 0 -10 -25v-59zM276 135q0 -25 11 -24h798q10 0 11 24v60q0 25 -11 24h-798q-10 0 -11 -24v-60zM276 1096q0 -23 11 -23h737q10 0 10 23v61q0 23 -10 23h-737q-10 0 -11 -23v-61zM276 1217q0 -25 11 -25h737q10 0 10 25v59q0 24 -9 24h-1h-737q-10 0 -11 -24v-59z M461 14q0 -24 9 -24h1h737q10 0 11 24v60q0 25 -11 24h-737q-10 0 -10 -24v-60zM707 254q0 -23 10 -23h491q10 0 11 23v61q0 23 -11 23h-491q-10 0 -10 -23v-61zM829 375q0 -25 11 -25h368q10 0 11 25v59q0 25 -11 25h-368q-10 0 -11 -25v-59zM829 496q0 -25 11 -25h368 q10 0 11 25v59q0 25 -11 25h-368q-10 0 -11 -25v-59zM829 614q0 -22 10 -22h1h368q10 0 11 22v62q0 25 -11 24h-368q-10 0 -11 -24v-62zM829 735q0 -24 10 -24h1h368q10 0 11 24v62q0 23 -11 22h-368q-10 0 -11 -22v-62zM829 856q0 -25 11 -25h368q10 0 11 25v59 q0 25 -11 25h-368q-10 0 -11 -25v-59zM829 977q0 -25 11 -25h368q10 0 11 25v59q0 25 -11 25h-368q-10 0 -11 -25v-59z" />
<glyph unicode="R" d="M92 14q0 -24 9 -24h1h369q10 0 10 24v60q0 25 -10 24h-369q-10 0 -10 -24v-60zM92 135q0 -25 10 -24h369q10 0 10 24v60q0 25 -10 24h-369q-10 0 -10 -24v-60zM92 254q0 -23 10 -23h369q10 0 10 23v61q0 23 -10 23h-369q-10 0 -10 -23v-61zM92 375q0 -25 10 -25h369 q10 0 10 25v59q0 25 -10 25h-369q-10 0 -10 -25v-59zM92 496q0 -25 10 -25h738q10 0 10 25v59q0 25 -10 25h-738q-10 0 -10 -25v-59zM92 614q0 -23 10 -22h922q10 0 10 22v62q0 25 -10 24h-922q-10 0 -10 -24v-62zM92 735q0 -25 10 -24h369q10 0 10 24v62q0 23 -10 22h-369 q-10 0 -10 -22v-62zM92 856q0 -25 10 -25h369q10 0 10 25v59q0 25 -10 25h-369q-10 0 -10 -25v-59zM92 977q0 -25 10 -25h369q10 0 10 25v59q0 25 -10 25h-369q-10 0 -10 -25v-59zM92 1096q0 -23 10 -23h922q10 0 10 23v61q0 23 -10 23h-922q-10 0 -10 -23v-61zM92 1217 q0 -25 10 -25h738q10 0 10 25v59q0 24 -9 24h-1h-738q-10 0 -10 -24v-59zM645 254q0 -23 10 -23h369q10 0 10 23v61q0 23 -10 23h-369q-10 0 -10 -23v-61zM645 375q0 -25 10 -25h369q10 0 10 25v59q0 25 -10 25h-369q-10 0 -10 -25v-59zM829 14q0 -24 10 -24h1h368 q10 0 11 24v60q0 25 -11 24h-368q-10 0 -11 -24v-60zM829 135q0 -24 10 -24h1h368q10 0 11 24v60q0 25 -11 24h-368q-10 0 -11 -24v-60zM829 735q0 -24 10 -24h1h368q10 0 11 24v62q0 23 -11 22h-368q-10 0 -11 -22v-62zM829 856q0 -25 11 -25h368q10 0 11 25v59 q0 25 -11 25h-368q-10 0 -11 -25v-59zM829 977q0 -25 11 -25h368q10 0 11 25v59q0 25 -11 25h-368q-10 0 -11 -25v-59z" />
<glyph unicode="S" d="M92 254q0 -23 10 -23h369q10 0 10 23v61q0 23 -10 23h-369q-10 0 -10 -23v-61zM92 375q0 -25 10 -25h369q10 0 10 25v59q0 25 -10 25h-369q-10 0 -10 -25v-59zM92 735q0 -25 10 -24h369q10 0 10 24v62q0 23 -10 22h-369q-10 0 -10 -22v-62zM92 856q0 -25 10 -25h369 q10 0 10 25v59q0 25 -10 25h-369q-10 0 -10 -25v-59zM92 977q0 -25 10 -25h369q10 0 10 25v59q0 25 -10 25h-369q-10 0 -10 -25v-59zM276 14q0 -24 10 -24h1h737q10 0 10 24v60q0 25 -10 24h-737q-10 0 -11 -24v-60zM276 135q0 -24 10 -24h1h737q10 0 10 24v60q0 25 -10 24 h-737q-10 0 -11 -24v-60zM276 614q0 -23 11 -22h737q10 0 10 22v62q0 25 -10 24h-737q-10 0 -11 -24v-62zM276 1096q0 -23 11 -23h737q10 0 10 23v61q0 23 -10 23h-737q-10 0 -11 -23v-61zM276 1217q0 -25 11 -25h737q10 0 10 25v59q0 24 -9 24h-1h-737q-10 0 -11 -24v-59z M829 254q0 -23 11 -23h368q10 0 11 23v61q0 23 -11 23h-368q-10 0 -11 -23v-61zM829 375q0 -25 11 -25h368q10 0 11 25v59q0 25 -11 25h-368q-10 0 -11 -25v-59zM829 496q0 -25 11 -25h368q10 0 11 25v59q0 25 -11 25h-368q-10 0 -11 -25v-59zM829 856q0 -25 11 -25h368 q10 0 11 25v59q0 25 -11 25h-368q-10 0 -11 -25v-59zM829 977q0 -25 11 -25h368q10 0 11 25v59q0 25 -11 25h-368q-10 0 -11 -25v-59z" />
<glyph unicode="T" d="M92 1096q0 -23 10 -23h1106q10 0 11 23v61q0 23 -11 23h-1106q-10 0 -10 -23v-61zM92 1217q0 -25 10 -25h1106q10 0 11 25v59q0 24 -10 24h-1h-1106q-10 0 -10 -24v-59zM461 14q0 -24 9 -24h1h369q10 0 10 24v60q0 25 -10 24h-369q-10 0 -10 -24v-60zM461 135 q0 -24 9 -24h1h369q10 0 10 24v60q0 25 -10 24h-369q-10 0 -10 -24v-60zM461 254q0 -23 10 -23h369q10 0 10 23v61q0 23 -10 23h-369q-10 0 -10 -23v-61zM461 375q0 -25 10 -25h369q10 0 10 25v59q0 25 -10 25h-369q-10 0 -10 -25v-59zM461 496q0 -25 10 -25h369q10 0 10 25 v59q0 25 -10 25h-369q-10 0 -10 -25v-59zM461 614q0 -22 9 -22h1h369q10 0 10 22v62q0 25 -10 24h-369q-10 0 -10 -24v-62zM461 735q0 -24 9 -24h1h369q10 0 10 24v62q0 23 -10 22h-369q-10 0 -10 -22v-62zM461 856q0 -25 10 -25h369q10 0 10 25v59q0 25 -10 25h-369 q-10 0 -10 -25v-59zM461 977q0 -25 10 -25h369q10 0 10 25v59q0 25 -10 25h-369q-10 0 -10 -25v-59z" />
<glyph unicode="U" d="M92 254q0 -23 10 -23h369q10 0 10 23v61q0 23 -10 23h-369q-10 0 -10 -23v-61zM92 375q0 -25 10 -25h369q10 0 10 25v59q0 25 -10 25h-369q-10 0 -10 -25v-59zM92 496q0 -25 10 -25h369q10 0 10 25v59q0 25 -10 25h-369q-10 0 -10 -25v-59zM92 614q0 -23 10 -22h369 q10 0 10 22v62q0 25 -10 24h-369q-10 0 -10 -24v-62zM92 735q0 -25 10 -24h369q10 0 10 24v62q0 23 -10 22h-369q-10 0 -10 -22v-62zM92 856q0 -25 10 -25h369q10 0 10 25v59q0 25 -10 25h-369q-10 0 -10 -25v-59zM92 977q0 -25 10 -25h369q10 0 10 25v59q0 25 -10 25h-369 q-10 0 -10 -25v-59zM92 1096q0 -23 10 -23h369q10 0 10 23v61q0 23 -10 23h-369q-10 0 -10 -23v-61zM92 1217q0 -25 10 -25h369q10 0 10 25v59q0 24 -9 24h-1h-369q-10 0 -10 -24v-59zM276 14q0 -24 10 -24h1h737q10 0 10 24v60q0 25 -10 24h-737q-10 0 -11 -24v-60z M276 135q0 -24 10 -24h1h737q10 0 10 24v60q0 25 -10 24h-737q-10 0 -11 -24v-60zM829 254q0 -23 11 -23h368q10 0 11 23v61q0 23 -11 23h-368q-10 0 -11 -23v-61zM829 375q0 -25 11 -25h368q10 0 11 25v59q0 25 -11 25h-368q-10 0 -11 -25v-59zM829 496q0 -25 11 -25h368 q10 0 11 25v59q0 25 -11 25h-368q-10 0 -11 -25v-59zM829 614q0 -22 10 -22h1h368q10 0 11 22v62q0 25 -11 24h-368q-10 0 -11 -24v-62zM829 735q0 -24 10 -24h1h368q10 0 11 24v62q0 23 -11 22h-368q-10 0 -11 -22v-62zM829 856q0 -25 11 -25h368q10 0 11 25v59 q0 25 -11 25h-368q-10 0 -11 -25v-59zM829 977q0 -25 11 -25h368q10 0 11 25v59q0 25 -11 25h-368q-10 0 -11 -25v-59zM829 1096q0 -23 11 -23h368q10 0 11 23v61q0 23 -11 23h-368q-10 0 -11 -23v-61zM829 1217q0 -25 11 -25h368q10 0 11 25v59q0 24 -10 24h-1h-368 q-10 0 -11 -24v-59z" />
<glyph unicode="V" d="M92 496q0 -25 10 -25h369q10 0 10 25v59q0 25 -10 25h-369q-10 0 -10 -25v-59zM92 614q0 -23 10 -22h369q10 0 10 22v62q0 25 -10 24h-369q-10 0 -10 -24v-62zM92 735q0 -25 10 -24h369q10 0 10 24v62q0 23 -10 22h-369q-10 0 -10 -22v-62zM92 856q0 -25 10 -25h369 q10 0 10 25v59q0 25 -10 25h-369q-10 0 -10 -25v-59zM92 977q0 -25 10 -25h369q10 0 10 25v59q0 25 -10 25h-369q-10 0 -10 -25v-59zM92 1096q0 -23 10 -23h369q10 0 10 23v61q0 23 -10 23h-369q-10 0 -10 -23v-61zM92 1217q0 -25 10 -25h369q10 0 10 25v59q0 24 -9 24h-1 h-369q-10 0 -10 -24v-59zM276 254q0 -23 11 -23h737q10 0 10 23v61q0 23 -10 23h-737q-10 0 -11 -23v-61zM276 375q0 -25 11 -25h737q10 0 10 25v59q0 25 -10 25h-737q-10 0 -11 -25v-59zM461 14q0 -24 9 -24h1h369q10 0 10 24v60q0 25 -10 24h-369q-10 0 -10 -24v-60z M461 135q0 -24 9 -24h1h369q10 0 10 24v60q0 25 -10 24h-369q-10 0 -10 -24v-60zM829 496q0 -25 11 -25h368q10 0 11 25v59q0 25 -11 25h-368q-10 0 -11 -25v-59zM829 614q0 -22 10 -22h1h368q10 0 11 22v62q0 25 -11 24h-368q-10 0 -11 -24v-62zM829 735q0 -24 10 -24h1 h368q10 0 11 24v62q0 23 -11 22h-368q-10 0 -11 -22v-62zM829 856q0 -25 11 -25h368q10 0 11 25v59q0 25 -11 25h-368q-10 0 -11 -25v-59zM829 977q0 -25 11 -25h368q10 0 11 25v59q0 25 -11 25h-368q-10 0 -11 -25v-59zM829 1096q0 -23 11 -23h368q10 0 11 23v61 q0 23 -11 23h-368q-10 0 -11 -23v-61zM829 1217q0 -25 11 -25h368q10 0 11 25v59q0 24 -10 24h-1h-368q-10 0 -11 -24v-59z" />
<glyph unicode="W" horiz-adv-x="1495" d="M92 375q0 -25 10 -25h369q10 0 10 25v59q0 25 -10 25h-369q-10 0 -10 -25v-59zM92 496q0 -25 10 -25h369q10 0 10 25v59q0 25 -10 25h-369q-10 0 -10 -25v-59zM92 614q0 -23 10 -22h369q10 0 10 22v62q0 25 -10 24h-369q-10 0 -10 -24v-62zM92 735q0 -25 10 -24h369 q10 0 10 24v62q0 23 -10 22h-369q-10 0 -10 -22v-62zM92 856q0 -25 10 -25h369q10 0 10 25v59q0 25 -10 25h-369q-10 0 -10 -25v-59zM92 977q0 -25 10 -25h369q10 0 10 25v59q0 25 -10 25h-369q-10 0 -10 -25v-59zM92 1096q0 -23 10 -23h369q10 0 10 23v61q0 23 -10 23h-369 q-10 0 -10 -23v-61zM92 1217q0 -25 10 -25h369q10 0 10 25v59q0 24 -9 24h-1h-369q-10 0 -10 -24v-59zM276 254q0 -23 11 -23h921q10 0 11 23v61q0 23 -11 23h-921q-10 0 -11 -23v-61zM461 14q0 -24 9 -24h1h184q10 0 11 24v60q0 25 -11 24h-184q-10 0 -10 -24v-60zM461 135 q0 -25 10 -24h184q10 0 11 24v60q0 25 -11 24h-184q-10 0 -10 -24v-60zM645 375q0 -25 10 -25h185q10 0 10 25v59q0 25 -10 25h-185q-10 0 -10 -25v-59zM645 496q0 -25 10 -25h185q10 0 10 25v59q0 25 -10 25h-185q-10 0 -10 -25v-59zM645 614q0 -23 10 -22h185q10 0 10 22 v62q0 25 -10 24h-185q-10 0 -10 -24v-62zM829 14q0 -24 10 -24h1h184q10 0 10 24v60q0 25 -10 24h-184q-10 0 -11 -24v-60zM829 135q0 -24 10 -24h1h184q10 0 10 24v60q0 25 -10 24h-184q-10 0 -11 -24v-60zM1014 375q0 -25 10 -25h369q10 0 10 25v59q0 25 -10 25h-369 q-10 0 -10 -25v-59zM1014 496q0 -25 10 -25h369q10 0 10 25v59q0 25 -10 25h-369q-10 0 -10 -25v-59zM1014 614q0 -22 9 -22h1h369q10 0 10 22v62q0 25 -10 24h-369q-10 0 -10 -24v-62zM1014 735q0 -24 9 -24h1h369q10 0 10 24v62q0 23 -10 22h-369q-10 0 -10 -22v-62z M1014 856q0 -25 10 -25h369q10 0 10 25v59q0 25 -10 25h-369q-10 0 -10 -25v-59zM1014 977q0 -25 10 -25h369q10 0 10 25v59q0 25 -10 25h-369q-10 0 -10 -25v-59zM1014 1096q0 -23 10 -23h369q10 0 10 23v61q0 23 -10 23h-369q-10 0 -10 -23v-61zM1014 1217q0 -25 10 -25 h369q10 0 10 25v59q0 24 -9 24h-1h-369q-10 0 -10 -24v-59z" />
<glyph unicode="X" d="M92 14q0 -24 9 -24h1h369q10 0 10 24v60q0 25 -10 24h-369q-10 0 -10 -24v-60zM92 135q0 -25 10 -24h369q10 0 10 24v60q0 25 -10 24h-369q-10 0 -10 -24v-60zM92 254q0 -23 10 -23h369q10 0 10 23v61q0 23 -10 23h-369q-10 0 -10 -23v-61zM92 375q0 -25 10 -25h369 q10 0 10 25v59q0 25 -10 25h-369q-10 0 -10 -25v-59zM92 856q0 -25 10 -25h369q10 0 10 25v59q0 25 -10 25h-369q-10 0 -10 -25v-59zM92 977q0 -25 10 -25h369q10 0 10 25v59q0 25 -10 25h-369q-10 0 -10 -25v-59zM92 1096q0 -23 10 -23h369q10 0 10 23v61q0 23 -10 23h-369 q-10 0 -10 -23v-61zM92 1217q0 -25 10 -25h369q10 0 10 25v59q0 24 -9 24h-1h-369q-10 0 -10 -24v-59zM276 496q0 -25 11 -25h737q10 0 10 25v59q0 25 -10 25h-737q-10 0 -11 -25v-59zM276 735q0 -25 11 -24h737q10 0 10 24v62q0 23 -10 22h-737q-10 0 -11 -22v-62zM461 614 q0 -23 10 -22h369q10 0 10 22v62q0 25 -10 24h-369q-10 0 -10 -24v-62zM829 14q0 -24 10 -24h1h368q10 0 11 24v60q0 25 -11 24h-368q-10 0 -11 -24v-60zM829 135q0 -24 10 -24h1h368q10 0 11 24v60q0 25 -11 24h-368q-10 0 -11 -24v-60zM829 254q0 -23 11 -23h368 q10 0 11 23v61q0 23 -11 23h-368q-10 0 -11 -23v-61zM829 375q0 -25 11 -25h368q10 0 11 25v59q0 25 -11 25h-368q-10 0 -11 -25v-59zM829 856q0 -25 11 -25h368q10 0 11 25v59q0 25 -11 25h-368q-10 0 -11 -25v-59zM829 977q0 -25 11 -25h368q10 0 11 25v59q0 25 -11 25 h-368q-10 0 -11 -25v-59zM829 1096q0 -23 11 -23h368q10 0 11 23v61q0 23 -11 23h-368q-10 0 -11 -23v-61zM829 1217q0 -25 11 -25h368q10 0 11 25v59q0 24 -10 24h-1h-368q-10 0 -11 -24v-59z" />
<glyph unicode="Y" d="M92 735q0 -25 10 -24h369q10 0 10 24v62q0 23 -10 22h-369q-10 0 -10 -22v-62zM92 856q0 -25 10 -25h369q10 0 10 25v59q0 25 -10 25h-369q-10 0 -10 -25v-59zM92 977q0 -25 10 -25h369q10 0 10 25v59q0 25 -10 25h-369q-10 0 -10 -25v-59zM92 1096q0 -23 10 -23h369 q10 0 10 23v61q0 23 -10 23h-369q-10 0 -10 -23v-61zM92 1217q0 -25 10 -25h369q10 0 10 25v59q0 24 -9 24h-1h-369q-10 0 -10 -24v-59zM276 614q0 -23 11 -22h737q10 0 10 22v62q0 25 -10 24h-737q-10 0 -11 -24v-62zM461 14q0 -24 9 -24h1h369q10 0 10 24v60q0 25 -10 24 h-369q-10 0 -10 -24v-60zM461 135q0 -24 9 -24h1h369q10 0 10 24v60q0 25 -10 24h-369q-10 0 -10 -24v-60zM461 254q0 -23 10 -23h369q10 0 10 23v61q0 23 -10 23h-369q-10 0 -10 -23v-61zM461 375q0 -25 10 -25h369q10 0 10 25v59q0 25 -10 25h-369q-10 0 -10 -25v-59z M461 496q0 -25 10 -25h369q10 0 10 25v59q0 25 -10 25h-369q-10 0 -10 -25v-59zM829 735q0 -24 10 -24h1h368q10 0 11 24v62q0 23 -11 22h-368q-10 0 -11 -22v-62zM829 856q0 -25 11 -25h368q10 0 11 25v59q0 25 -11 25h-368q-10 0 -11 -25v-59zM829 977q0 -25 11 -25h368 q10 0 11 25v59q0 25 -11 25h-368q-10 0 -11 -25v-59zM829 1096q0 -23 11 -23h368q10 0 11 23v61q0 23 -11 23h-368q-10 0 -11 -23v-61zM829 1217q0 -25 11 -25h368q10 0 11 25v59q0 24 -10 24h-1h-368q-10 0 -11 -24v-59z" />
<glyph unicode="Z" horiz-adv-x="1126" d="M92 14q0 -24 9 -24h1h922q10 0 10 24v60q0 25 -10 24h-922q-10 0 -10 -24v-60zM92 135q0 -24 9 -24h1h922q10 0 10 24v60q0 25 -10 24h-922q-10 0 -10 -24v-60zM92 254q0 -23 10 -23h369q10 0 10 23v61q0 23 -10 23h-369q-10 0 -10 -23v-61zM92 375q0 -25 10 -25h369 q10 0 10 25v59q0 25 -10 25h-369q-10 0 -10 -25v-59zM92 1096q0 -23 10 -23h922q10 0 10 23v61q0 23 -10 23h-922q-10 0 -10 -23v-61zM92 1217q0 -25 10 -25h922q10 0 10 25v59q0 24 -9 24h-1h-922q-10 0 -10 -24v-59zM276 496q0 -25 11 -25h368q10 0 11 25v59q0 25 -11 25 h-368q-10 0 -11 -25v-59zM461 614q0 -22 9 -22h1h369q10 0 10 22v62q0 25 -10 24h-369q-10 0 -10 -24v-62zM461 735q0 -24 9 -24h1h369q10 0 10 24v62q0 23 -10 22h-369q-10 0 -10 -22v-62zM645 856q0 -25 10 -25h369q10 0 10 25v59q0 25 -10 25h-369q-10 0 -10 -25v-59z M645 977q0 -25 10 -25h369q10 0 10 25v59q0 25 -10 25h-369q-10 0 -10 -25v-59z" />
<glyph unicode="[" horiz-adv-x="573" d="M92 14q0 -25 10 -24h369q10 0 10 24v60q0 25 -10 24h-369q-10 0 -10 -24v-60zM92 135q0 -25 10 -24h369q10 0 10 24v60q0 25 -10 24h-369q-10 0 -10 -24v-60zM92 254q0 -23 10 -23h185q10 0 10 23v61q0 23 -10 23h-185q-10 0 -10 -23v-61zM92 375q0 -25 10 -25h185 q10 0 10 25v59q0 25 -10 25h-185q-10 0 -10 -25v-59zM92 496q0 -25 10 -25h185q10 0 10 25v59q0 25 -10 25h-185q-10 0 -10 -25v-59zM92 614q0 -23 10 -22h185q10 0 10 22v62q0 25 -10 24h-185q-10 0 -10 -24v-62zM92 735q0 -25 10 -24h185q10 0 10 24v62q0 23 -10 22h-185 q-10 0 -10 -22v-62zM92 856q0 -25 10 -25h185q10 0 10 25v59q0 25 -10 25h-185q-10 0 -10 -25v-59zM92 977q0 -25 10 -25h185q10 0 10 25v59q0 25 -10 25h-185q-10 0 -10 -25v-59zM92 1096q0 -23 10 -23h369q10 0 10 23v61q0 23 -10 23h-369q-10 0 -10 -23v-61zM92 1217 q0 -25 10 -25h369q10 0 10 25v59q0 25 -10 24h-369q-10 0 -10 -24v-59z" />
<glyph unicode="\" horiz-adv-x="757" d="M92 977q0 -25 10 -25h185q10 0 10 25v59q0 25 -10 25h-185q-10 0 -10 -25v-59zM92 1096q0 -23 10 -23h185q10 0 10 23v61q0 23 -10 23h-185q-10 0 -10 -23v-61zM92 1217q0 -25 10 -25h185q10 0 10 25v59q0 25 -10 24h-185q-10 0 -10 -24v-59zM276 375q0 -25 11 -25h184 q10 0 10 25v59q0 25 -10 25h-184q-10 0 -11 -25v-59zM276 496q0 -25 11 -25h184q10 0 10 25v59q0 25 -10 25h-184q-10 0 -11 -25v-59zM276 614q0 -23 11 -22h184q10 0 10 22v62q0 25 -10 24h-184q-10 0 -11 -24v-62zM276 735q0 -25 11 -24h184q10 0 10 24v62q0 23 -10 22 h-184q-10 0 -11 -22v-62zM276 856q0 -25 11 -25h184q10 0 10 25v59q0 25 -10 25h-184q-10 0 -11 -25v-59zM461 14q0 -25 10 -24h184q10 0 11 24v60q0 25 -11 24h-184q-10 0 -10 -24v-60zM461 135q0 -25 10 -24h184q10 0 11 24v60q0 25 -11 24h-184q-10 0 -10 -24v-60z M461 254q0 -23 10 -23h184q10 0 11 23v61q0 23 -11 23h-184q-10 0 -10 -23v-61z" />
<glyph unicode="]" horiz-adv-x="573" d="M92 14q0 -25 10 -24h369q10 0 10 24v60q0 25 -10 24h-369q-10 0 -10 -24v-60zM92 135q0 -25 10 -24h369q10 0 10 24v60q0 25 -10 24h-369q-10 0 -10 -24v-60zM92 1096q0 -23 10 -23h369q10 0 10 23v61q0 23 -10 23h-369q-10 0 -10 -23v-61zM92 1217q0 -25 10 -25h369 q10 0 10 25v59q0 25 -10 24h-369q-10 0 -10 -24v-59zM276 254q0 -23 11 -23h184q10 0 10 23v61q0 23 -10 23h-184q-10 0 -11 -23v-61zM276 375q0 -25 11 -25h184q10 0 10 25v59q0 25 -10 25h-184q-10 0 -11 -25v-59zM276 496q0 -25 11 -25h184q10 0 10 25v59q0 25 -10 25 h-184q-10 0 -11 -25v-59zM276 614q0 -23 11 -22h184q10 0 10 22v62q0 25 -10 24h-184q-10 0 -11 -24v-62zM276 735q0 -25 11 -24h184q10 0 10 24v62q0 23 -10 22h-184q-10 0 -11 -22v-62zM276 856q0 -25 11 -25h184q10 0 10 25v59q0 25 -10 25h-184q-10 0 -11 -25v-59z M276 977q0 -25 11 -25h184q10 0 10 25v59q0 25 -10 25h-184q-10 0 -11 -25v-59z" />
<glyph unicode="^" horiz-adv-x="942" d="M92 840q0 -23 10 -23h185q10 0 10 23v53q0 20 -10 20h-185q-10 0 -10 -20v-53zM276 946q0 -20 11 -20h368q10 0 11 20v55q0 20 -11 21h-368q-10 0 -11 -21v-55zM645 840q0 -23 10 -23h185q10 0 10 23v53q0 20 -10 20h-185q-10 0 -10 -20v-53z" />
<glyph unicode="_" horiz-adv-x="1126" d="M92 12q0 -20 10 -20h922q10 0 10 20v54q0 23 -10 22h-922q-10 0 -10 -22v-54zM92 121q0 -23 10 -23h922q10 0 10 23v53q0 23 -10 23h-922q-10 0 -10 -23v-53z" />
<glyph unicode="`" horiz-adv-x="757" d="M92 1382q0 -20 10 -20h369q10 0 10 20v56q0 20 -10 20h-369q-10 0 -10 -20v-56zM276 1276q0 -23 11 -23h368q10 0 11 23v53q0 23 -11 23h-368q-10 0 -11 -23v-53z" />
<glyph unicode="a" d="M92 252q0 -23 10 -23h369q10 0 10 23v59q0 25 -10 25h-369q-10 0 -10 -25v-59zM92 371q0 -23 10 -23h369q10 0 10 23v61q0 23 -10 23h-369q-10 0 -10 -23v-61zM92 492q0 -25 10 -25h369q10 0 10 25v59q0 23 -10 22h-369q-10 0 -10 -22v-59zM92 610q0 -25 10 -24h369 q10 0 10 24v60q0 25 -10 24h-369q-10 0 -10 -24v-60zM276 14q0 -24 10 -24h1h921q10 0 11 24v60q0 25 -11 24h-921q-10 0 -11 -24v-60zM276 133q0 -24 10 -24h1h921q10 0 11 24v60q0 25 -11 24h-921q-10 0 -11 -24v-60zM276 729q0 -23 11 -22h921q10 0 11 22v59q0 25 -11 25 h-921q-10 0 -11 -25v-59zM276 848q0 -23 11 -23h921q10 0 11 23v61q0 23 -11 23h-921q-10 0 -11 -23v-61zM829 252q0 -23 11 -23h368q10 0 11 23v59q0 25 -11 25h-368q-10 0 -11 -25v-59zM829 371q0 -23 11 -23h368q10 0 11 23v61q0 23 -11 23h-368q-10 0 -11 -23v-61z M829 492q0 -25 11 -25h368q10 0 11 25v59q0 23 -11 22h-368q-10 0 -11 -22v-59zM829 610q0 -24 10 -24h1h368q10 0 11 24v60q0 24 -10 24h-1h-368q-10 0 -11 -24v-60z" />
<glyph unicode="b" d="M92 14q0 -24 9 -24h1h738q10 0 10 24v60q0 25 -10 24h-738q-10 0 -10 -24v-60zM92 135q0 -24 9 -24h1h922q10 0 10 24v60q0 25 -10 24h-922q-10 0 -10 -24v-60zM92 254q0 -23 10 -23h369q10 0 10 23v61q0 23 -10 23h-369q-10 0 -10 -23v-61zM92 375q0 -25 10 -25h369 q10 0 10 25v59q0 25 -10 25h-369q-10 0 -10 -25v-59zM92 496q0 -25 10 -25h369q10 0 10 25v59q0 25 -10 25h-369q-10 0 -10 -25v-59zM92 614q0 -23 10 -22h922q10 0 10 22v62q0 25 -10 24h-922q-10 0 -10 -24v-62zM92 735q0 -25 10 -24h799q10 0 10 24v62q0 23 -10 22h-799 q-10 0 -10 -22v-62zM92 856q0 -25 10 -25h369q10 0 10 25v59q0 25 -10 25h-369q-10 0 -10 -25v-59zM92 977q0 -25 10 -25h369q10 0 10 25v59q0 25 -10 25h-369q-10 0 -10 -25v-59zM92 1096q0 -23 10 -23h369q10 0 10 23v61q0 23 -10 23h-369q-10 0 -10 -23v-61zM92 1217 q0 -25 10 -25h369q10 0 10 25v59q0 24 -9 24h-1h-369q-10 0 -10 -24v-59zM829 254q0 -23 11 -23h368q10 0 11 23v61q0 23 -11 23h-368q-10 0 -11 -23v-61zM829 375q0 -25 11 -25h368q10 0 11 25v59q0 25 -11 25h-368q-10 0 -11 -25v-59zM829 496q0 -25 11 -25h368 q10 0 11 25v59q0 25 -11 25h-368q-10 0 -11 -25v-59z" />
<glyph unicode="c" horiz-adv-x="1126" d="M92 252q0 -23 10 -23h369q10 0 10 23v59q0 25 -10 25h-369q-10 0 -10 -25v-59zM92 371q0 -23 10 -23h369q10 0 10 23v61q0 23 -10 23h-369q-10 0 -10 -23v-61zM92 492q0 -25 10 -25h369q10 0 10 25v59q0 23 -10 22h-369q-10 0 -10 -22v-59zM92 610q0 -25 10 -24h369 q10 0 10 24v60q0 25 -10 24h-369q-10 0 -10 -24v-60zM276 133q0 -25 11 -24h737q10 0 10 24v60q0 25 -10 24h-737q-10 0 -11 -24v-60zM276 729q0 -23 11 -22h737q10 0 10 22v59q0 25 -10 25h-737q-10 0 -11 -25v-59zM461 14q0 -24 9 -24h1h553q10 0 10 24v60q0 25 -10 24 h-553q-10 0 -10 -24v-60zM461 848q0 -23 10 -23h553q10 0 10 23v61q0 23 -10 23h-553q-10 0 -10 -23v-61z" />
<glyph unicode="d" d="M92 254q0 -23 10 -23h369q10 0 10 23v61q0 23 -10 23h-369q-10 0 -10 -23v-61zM92 375q0 -25 10 -25h369q10 0 10 25v59q0 25 -10 25h-369q-10 0 -10 -25v-59zM92 496q0 -25 10 -25h369q10 0 10 25v59q0 25 -10 25h-369q-10 0 -10 -25v-59zM276 135q0 -25 11 -24h921 q10 0 11 24v60q0 25 -11 24h-921q-10 0 -11 -24v-60zM276 614q0 -23 11 -22h921q10 0 11 22v62q0 25 -11 24h-921q-10 0 -11 -24v-62zM399 735q0 -25 11 -24h798q10 0 11 24v62q0 23 -11 22h-798q-10 0 -11 -22v-62zM461 14q0 -24 9 -24h1h737q10 0 11 24v60q0 25 -11 24 h-737q-10 0 -10 -24v-60zM829 254q0 -23 11 -23h368q10 0 11 23v61q0 23 -11 23h-368q-10 0 -11 -23v-61zM829 375q0 -25 11 -25h368q10 0 11 25v59q0 25 -11 25h-368q-10 0 -11 -25v-59zM829 496q0 -25 11 -25h368q10 0 11 25v59q0 25 -11 25h-368q-10 0 -11 -25v-59z M829 856q0 -25 11 -25h368q10 0 11 25v59q0 25 -11 25h-368q-10 0 -11 -25v-59zM829 977q0 -25 11 -25h368q10 0 11 25v59q0 25 -11 25h-368q-10 0 -11 -25v-59zM829 1096q0 -23 11 -23h368q10 0 11 23v61q0 23 -11 23h-368q-10 0 -11 -23v-61zM829 1217q0 -25 11 -25h368 q10 0 11 25v59q0 24 -10 24h-1h-368q-10 0 -11 -24v-59z" />
<glyph unicode="e" d="M92 252q0 -23 10 -23h369q10 0 10 23v59q0 25 -10 25h-369q-10 0 -10 -25v-59zM92 371q0 -23 10 -23h1106q10 0 11 23v61q0 23 -11 23h-1106q-10 0 -10 -23v-61zM92 492q0 -25 10 -25h369q10 0 10 25v59q0 23 -10 22h-369q-10 0 -10 -22v-59zM92 610q0 -25 10 -24h369 q10 0 10 24v60q0 25 -10 24h-369q-10 0 -10 -24v-60zM276 14q0 -24 10 -24h1h737q10 0 10 24v60q0 25 -10 24h-737q-10 0 -11 -24v-60zM276 133q0 -24 10 -24h1h737q10 0 10 24v60q0 25 -10 24h-737q-10 0 -11 -24v-60zM276 729q0 -23 11 -22h737q10 0 10 22v59q0 25 -10 25 h-737q-10 0 -11 -25v-59zM276 848q0 -23 11 -23h737q10 0 10 23v61q0 23 -10 23h-737q-10 0 -11 -23v-61zM829 492q0 -25 11 -25h368q10 0 11 25v59q0 23 -11 22h-368q-10 0 -11 -22v-59zM829 610q0 -24 10 -24h1h368q10 0 11 24v60q0 24 -10 24h-1h-368q-10 0 -11 -24v-60z " />
<glyph unicode="f" horiz-adv-x="950" d="M92 14q0 -24 9 -24h1h369q10 0 10 24v60q0 25 -10 24h-369q-10 0 -10 -24v-60zM92 135q0 -24 9 -24h1h369q10 0 10 24v60q0 25 -10 24h-369q-10 0 -10 -24v-60zM92 254q0 -23 10 -23h369q10 0 10 23v61q0 23 -10 23h-369q-10 0 -10 -23v-61zM92 375q0 -25 10 -25h369 q10 0 10 25v59q0 25 -10 25h-369q-10 0 -10 -25v-59zM92 496q0 -25 10 -25h369q10 0 10 25v59q0 25 -10 25h-369q-10 0 -10 -25v-59zM92 614q0 -22 9 -22h1h738q10 0 10 22v62q0 25 -10 24h-738q-10 0 -10 -24v-62zM92 735q0 -24 9 -24h1h369q10 0 10 24v62q0 23 -10 22 h-369q-10 0 -10 -22v-62zM92 856q0 -25 10 -25h369q10 0 10 25v59q0 25 -10 25h-369q-10 0 -10 -25v-59zM92 977q0 -25 10 -25h369q10 0 10 25v59q0 25 -10 25h-369q-10 0 -10 -25v-59zM262 1096q0 -23 10 -23h576q10 0 10 23v61q0 23 -10 23h-576q-10 0 -10 -23v-61z M262 1217q0 -25 10 -25h576q10 0 10 25v59q0 24 -9 24h-1h-576q-10 0 -10 -24v-59z" />
<glyph unicode="g" d="M92 369q0 -25 10 -25h369q10 0 10 25v59q0 25 -10 25h-369q-10 0 -10 -25v-59zM92 489q0 -25 10 -24h369q10 0 10 24v60q0 25 -10 24h-369q-10 0 -10 -24v-60zM92 608q0 -23 10 -22h369q10 0 10 22v62q0 25 -10 24h-369q-10 0 -10 -24v-62zM276 248q0 -23 11 -23h921 q10 0 11 23v61q0 23 -11 23h-921q-10 0 -11 -23v-61zM276 729q0 -25 11 -24h921q10 0 11 24v62q0 23 -11 22h-921q-10 0 -11 -22v-62zM391 -293v-59q0 -25 10 -25h441q10 0 10 25v59q0 25 -10 25h-441q-10 0 -10 -25zM395 -172v-61q0 -23 11 -23h624q10 0 10 23v61 q0 25 -10 25h-624q-10 0 -11 -25zM399 129q0 -25 11 -25h798q10 0 11 25v59q0 25 -11 25h-798q-10 0 -11 -25v-59zM461 850q0 -25 10 -25h737q10 0 11 25v59q0 25 -11 25h-737q-10 0 -10 -25v-59zM829 8q0 -25 11 -24h368q10 0 11 24v60q0 25 -11 24h-368q-10 0 -11 -24v-60 zM829 -51v-62q0 -24 10 -24h1h368q10 0 11 24v62q0 23 -11 22h-368q-10 0 -11 -22zM829 369q0 -25 11 -25h368q10 0 11 25v59q0 25 -11 25h-368q-10 0 -11 -25v-59zM829 489q0 -24 10 -24h1h368q10 0 11 24v60q0 25 -11 24h-368q-10 0 -11 -24v-60zM829 608q0 -22 10 -22h1 h368q10 0 11 22v62q0 24 -10 24h-1h-368q-10 0 -11 -24v-62z" />
<glyph unicode="h" horiz-adv-x="1314" d="M92 14q0 -24 9 -24h1h377q10 0 10 24v60q0 25 -10 24h-377q-10 0 -10 -24v-60zM92 135q0 -25 10 -24h377q10 0 10 24v60q0 25 -10 24h-377q-10 0 -10 -24v-60zM92 254q0 -23 10 -23h369q10 0 10 23v61q0 23 -10 23h-369q-10 0 -10 -23v-61zM92 375q0 -25 10 -25h369 q10 0 10 25v59q0 25 -10 25h-369q-10 0 -10 -25v-59zM92 496q0 -25 10 -25h369q10 0 10 25v59q0 25 -10 25h-369q-10 0 -10 -25v-59zM92 614q0 -23 10 -22h369q10 0 10 22v62q0 25 -10 24h-369q-10 0 -10 -24v-62zM92 735q0 -25 10 -24h926q10 0 10 24v62q0 23 -10 22h-926 q-10 0 -10 -22v-62zM92 856q0 -25 10 -25h926q10 0 10 25v59q0 25 -10 25h-926q-10 0 -10 -25v-59zM92 977q0 -25 10 -25h369q10 0 10 25v59q0 25 -10 25h-369q-10 0 -10 -25v-59zM92 1096q0 -23 10 -23h369q10 0 10 23v61q0 23 -10 23h-369q-10 0 -10 -23v-61zM92 1217 q0 -25 10 -25h369q10 0 10 25v59q0 24 -9 24h-1h-369q-10 0 -10 -24v-59zM834 14q0 -24 9 -24h1h368q10 0 11 24v60q0 25 -11 24h-368q-10 0 -10 -24v-60zM834 135q0 -24 9 -24h1h368q10 0 11 24v60q0 25 -11 24h-368q-10 0 -10 -24v-60zM834 254q0 -23 10 -23h368 q10 0 11 23v61q0 23 -11 23h-368q-10 0 -10 -23v-61zM834 375q0 -25 10 -25h368q10 0 11 25v59q0 25 -11 25h-368q-10 0 -10 -25v-59zM834 496q0 -25 10 -25h368q10 0 11 25v59q0 25 -11 25h-368q-10 0 -10 -25v-59zM834 614q0 -22 9 -22h1h368q10 0 11 22v62q0 24 -10 24 h-1h-368q-10 0 -10 -24v-62z" />
<glyph unicode="i" horiz-adv-x="579" d="M92 14q0 -24 9 -24h1h375q10 0 10 24v60q0 25 -10 24h-375q-10 0 -10 -24v-60zM92 133q0 -24 9 -24h1h375q10 0 10 24v60q0 25 -10 24h-375q-10 0 -10 -24v-60zM92 252q0 -23 10 -23h369q10 0 10 23v59q0 25 -10 25h-369q-10 0 -10 -25v-59zM92 371q0 -23 10 -23h369 q10 0 10 23v61q0 23 -10 23h-369q-10 0 -10 -23v-61zM92 492q0 -25 10 -25h369q10 0 10 25v59q0 23 -10 22h-369q-10 0 -10 -22v-59zM92 610q0 -24 9 -24h1h369q10 0 10 24v60q0 25 -10 24h-369q-10 0 -10 -24v-60zM92 729q0 -22 9 -22h1h375q10 0 10 22v59q0 25 -10 25 h-375q-10 0 -10 -25v-59zM92 848q0 -23 10 -23h375q10 0 10 23v61q0 23 -10 23h-375q-10 0 -10 -23v-61z" />
<glyph unicode="j" horiz-adv-x="585" d="M-334 -293v-59q0 -25 10 -25h443q10 0 10 25v59q0 25 -10 25h-443q-10 0 -10 -25zM-330 -172v-61q0 -23 11 -23h632q10 0 11 23v61q0 25 -11 25h-632q-10 0 -11 -25zM104 8q0 -25 11 -24h368q10 0 11 24v60q0 25 -11 24h-368q-10 0 -11 -24v-60zM104 -51v-62 q0 -24 10 -24h1h368q10 0 11 24v62q0 23 -11 22h-368q-10 0 -11 -22zM104 129q0 -25 11 -25h368q10 0 11 25v59q0 25 -11 25h-368q-10 0 -11 -25v-59zM104 248q0 -23 11 -23h368q10 0 11 23v61q0 23 -11 23h-368q-10 0 -11 -23v-61zM104 369q0 -25 11 -25h368q10 0 11 25v59 q0 25 -11 25h-368q-10 0 -11 -25v-59zM104 489q0 -24 10 -24h1h368q10 0 11 24v60q0 25 -11 24h-368q-10 0 -11 -24v-60zM104 608q0 -22 10 -22h1h368q10 0 11 22v62q0 25 -11 24h-368q-10 0 -11 -24v-62zM104 729q0 -24 10 -24h1h368q10 0 11 24v62q0 23 -11 22h-368 q-10 0 -11 -22v-62zM104 850q0 -25 11 -25h368q10 0 11 25v59q0 25 -11 25h-368q-10 0 -11 -25v-59z" />
<glyph unicode="k" horiz-adv-x="1128" d="M92 14q0 -24 9 -24h1h369q10 0 10 24v60q0 25 -10 24h-369q-10 0 -10 -24v-60zM92 135q0 -25 10 -24h369q10 0 10 24v60q0 25 -10 24h-369q-10 0 -10 -24v-60zM92 254q0 -23 10 -23h369q10 0 10 23v61q0 23 -10 23h-369q-10 0 -10 -23v-61zM92 375q0 -25 10 -25h369 q10 0 10 25v59q0 25 -10 25h-369q-10 0 -10 -25v-59zM92 496q0 -25 10 -25h738q10 0 10 25v59q0 25 -10 25h-738q-10 0 -10 -25v-59zM92 614q0 -23 10 -22h738q10 0 10 22v62q0 25 -10 24h-738q-10 0 -10 -24v-62zM92 735q0 -25 10 -24h377q10 0 10 24v62q0 23 -10 22h-377 q-10 0 -10 -22v-62zM92 856q0 -25 10 -25h369q10 0 10 25v59q0 25 -10 25h-369q-10 0 -10 -25v-59zM92 977q0 -25 10 -25h369q10 0 10 25v59q0 25 -10 25h-369q-10 0 -10 -25v-59zM92 1096q0 -23 10 -23h369q10 0 10 23v61q0 23 -10 23h-369q-10 0 -10 -23v-61zM92 1217 q0 -25 10 -25h369q10 0 10 25v59q0 24 -9 24h-1h-369q-10 0 -10 -24v-59zM645 254q0 -23 10 -23h369q10 0 10 23v61q0 23 -10 23h-369q-10 0 -10 -23v-61zM645 375q0 -25 10 -25h369q10 0 10 25v59q0 25 -10 25h-369q-10 0 -10 -25v-59zM645 737q0 -25 10 -24h369 q10 0 10 24v60q0 25 -10 24h-369q-10 0 -10 -24v-60zM645 858q0 -25 10 -24h369q10 0 10 24v60q0 24 -9 24h-1h-369q-10 0 -10 -24v-60zM647 14q0 -24 9 -24h1h369q10 0 10 24v60q0 25 -10 24h-369q-10 0 -10 -24v-60zM647 135q0 -24 9 -24h1h369q10 0 10 24v60q0 24 -9 24 h-1h-369q-10 0 -10 -24v-60z" />
<glyph unicode="l" horiz-adv-x="581" d="M92 14q0 -24 9 -24h1h377q10 0 10 24v60q0 25 -10 24h-377q-10 0 -10 -24v-60zM92 135q0 -24 9 -24h1h377q10 0 10 24v60q0 25 -10 24h-377q-10 0 -10 -24v-60zM92 254q0 -23 10 -23h369q10 0 10 23v61q0 23 -10 23h-369q-10 0 -10 -23v-61zM92 375q0 -25 10 -25h369 q10 0 10 25v59q0 25 -10 25h-369q-10 0 -10 -25v-59zM92 496q0 -25 10 -25h369q10 0 10 25v59q0 25 -10 25h-369q-10 0 -10 -25v-59zM92 614q0 -22 9 -22h1h369q10 0 10 22v62q0 25 -10 24h-369q-10 0 -10 -24v-62zM92 735q0 -24 9 -24h1h369q10 0 10 24v62q0 23 -10 22 h-369q-10 0 -10 -22v-62zM92 856q0 -25 10 -25h369q10 0 10 25v59q0 25 -10 25h-369q-10 0 -10 -25v-59zM92 977q0 -25 10 -25h369q10 0 10 25v59q0 25 -10 25h-369q-10 0 -10 -25v-59zM92 1096q0 -23 10 -23h369q10 0 10 23v61q0 23 -10 23h-369q-10 0 -10 -23v-61z M92 1217q0 -25 10 -25h369q10 0 10 25v59q0 24 -9 24h-1h-369q-10 0 -10 -24v-59z" />
<glyph unicode="m" horiz-adv-x="2054" d="M92 16q0 -25 10 -24h369q10 0 10 24v60q0 25 -10 24h-369q-10 0 -10 -24v-60zM92 135q0 -25 10 -24h369q10 0 10 24v60q0 25 -10 24h-369q-10 0 -10 -24v-60zM92 254q0 -23 10 -23h369q10 0 10 23v59q0 25 -10 25h-369q-10 0 -10 -25v-59zM92 373q0 -23 10 -23h369 q10 0 10 23v61q0 23 -10 23h-369q-10 0 -10 -23v-61zM92 494q0 -25 10 -25h369q10 0 10 25v59q0 23 -10 22h-369q-10 0 -10 -22v-59zM92 612q0 -25 10 -24h369q10 0 10 24v60q0 25 -10 24h-369q-10 0 -10 -24v-60zM276 729q0 -23 11 -22h1480q10 0 11 22v59q0 25 -11 25 h-1480q-10 0 -11 -25v-59zM276 848q0 -23 11 -23h1480q10 0 11 23v61q0 23 -11 23h-1480q-10 0 -11 -23v-61zM836 14q0 -24 9 -24h1h368q10 0 11 24v60q0 25 -11 24h-368q-10 0 -10 -24v-60zM836 133q0 -25 10 -24h368q10 0 11 24v60q0 25 -11 24h-368q-10 0 -10 -24v-60z M836 252q0 -23 10 -23h368q10 0 11 23v59q0 25 -11 25h-368q-10 0 -10 -25v-59zM836 371q0 -23 10 -23h368q10 0 11 23v61q0 23 -11 23h-368q-10 0 -10 -23v-61zM836 492q0 -25 10 -25h368q10 0 11 25v59q0 23 -11 22h-368q-10 0 -10 -22v-59zM836 610q0 -25 10 -24h368 q10 0 11 24v60q0 24 -10 24h-1h-368q-10 0 -10 -24v-60zM1573 14q0 -24 9 -24h1h369q10 0 10 24v60q0 25 -10 24h-369q-10 0 -10 -24v-60zM1573 133q0 -24 9 -24h1h369q10 0 10 24v60q0 25 -10 24h-369q-10 0 -10 -24v-60zM1573 252q0 -23 10 -23h369q10 0 10 23v59 q0 25 -10 25h-369q-10 0 -10 -25v-59zM1573 371q0 -23 10 -23h369q10 0 10 23v61q0 23 -10 23h-369q-10 0 -10 -23v-61zM1573 492q0 -25 10 -25h369q10 0 10 25v59q0 23 -10 22h-369q-10 0 -10 -22v-59zM1573 610q0 -24 9 -24h1h369q10 0 10 24v60q0 24 -9 24h-1h-369 q-10 0 -10 -24v-60z" />
<glyph unicode="n" d="M92 14q0 -24 9 -24h1h369q10 0 10 24v60q0 25 -10 24h-369q-10 0 -10 -24v-60zM92 133q0 -25 10 -24h369q10 0 10 24v60q0 25 -10 24h-369q-10 0 -10 -24v-60zM92 252q0 -23 10 -23h369q10 0 10 23v59q0 25 -10 25h-369q-10 0 -10 -25v-59zM92 371q0 -23 10 -23h369 q10 0 10 23v61q0 23 -10 23h-369q-10 0 -10 -23v-61zM92 492q0 -25 10 -25h369q10 0 10 25v59q0 23 -10 22h-369q-10 0 -10 -22v-59zM92 610q0 -25 10 -24h369q10 0 10 24v60q0 25 -10 24h-369q-10 0 -10 -24v-60zM276 729q0 -23 11 -22h737q10 0 10 22v59q0 25 -10 25h-737 q-10 0 -11 -25v-59zM276 848q0 -23 11 -23h737q10 0 10 23v61q0 23 -10 23h-737q-10 0 -11 -23v-61zM829 14q0 -24 10 -24h1h368q10 0 11 24v60q0 25 -11 24h-368q-10 0 -11 -24v-60zM829 133q0 -24 10 -24h1h368q10 0 11 24v60q0 25 -11 24h-368q-10 0 -11 -24v-60z M829 252q0 -23 11 -23h368q10 0 11 23v59q0 25 -11 25h-368q-10 0 -11 -25v-59zM829 371q0 -23 11 -23h368q10 0 11 23v61q0 23 -11 23h-368q-10 0 -11 -23v-61zM829 492q0 -25 11 -25h368q10 0 11 25v59q0 23 -11 22h-368q-10 0 -11 -22v-59zM829 610q0 -24 10 -24h1h368 q10 0 11 24v60q0 24 -10 24h-1h-368q-10 0 -11 -24v-60z" />
<glyph unicode="o" d="M92 252q0 -23 10 -23h369q10 0 10 23v59q0 25 -10 25h-369q-10 0 -10 -25v-59zM92 371q0 -23 10 -23h369q10 0 10 23v61q0 23 -10 23h-369q-10 0 -10 -23v-61zM92 492q0 -25 10 -25h369q10 0 10 25v59q0 23 -10 22h-369q-10 0 -10 -22v-59zM92 610q0 -25 10 -24h369 q10 0 10 24v60q0 25 -10 24h-369q-10 0 -10 -24v-60zM276 14q0 -24 10 -24h1h737q10 0 10 24v60q0 25 -10 24h-737q-10 0 -11 -24v-60zM276 133q0 -24 10 -24h1h737q10 0 10 24v60q0 25 -10 24h-737q-10 0 -11 -24v-60zM276 729q0 -23 11 -22h737q10 0 10 22v59q0 25 -10 25 h-737q-10 0 -11 -25v-59zM276 848q0 -23 11 -23h737q10 0 10 23v61q0 23 -10 23h-737q-10 0 -11 -23v-61zM829 252q0 -23 11 -23h368q10 0 11 23v59q0 25 -11 25h-368q-10 0 -11 -25v-59zM829 371q0 -23 11 -23h368q10 0 11 23v61q0 23 -11 23h-368q-10 0 -11 -23v-61z M829 492q0 -25 11 -25h368q10 0 11 25v59q0 23 -11 22h-368q-10 0 -11 -22v-59zM829 610q0 -24 10 -24h1h368q10 0 11 24v60q0 24 -10 24h-1h-368q-10 0 -11 -24v-60z" />
<glyph unicode="p" d="M92 8q0 -25 10 -24h369q10 0 10 24v60q0 25 -10 24h-369q-10 0 -10 -24v-60zM92 -51v-62q0 -25 10 -24h369q10 0 10 24v62q0 23 -10 22h-369q-10 0 -10 -22zM92 129q0 -25 10 -25h799q10 0 10 25v59q0 25 -10 25h-799q-10 0 -10 -25v-59zM92 -172v-61q0 -23 10 -23h369 q10 0 10 23v61q0 25 -10 25h-369q-10 0 -10 -25zM92 248q0 -23 10 -23h922q10 0 10 23v61q0 23 -10 23h-922q-10 0 -10 -23v-61zM92 -293v-59q0 -25 10 -25h369q10 0 10 25v59q0 25 -10 25h-369q-10 0 -10 -25zM92 369q0 -25 10 -25h369q10 0 10 25v59q0 25 -10 25h-369 q-10 0 -10 -25v-59zM92 489q0 -25 10 -24h369q10 0 10 24v60q0 25 -10 24h-369q-10 0 -10 -24v-60zM92 608q0 -23 10 -22h369q10 0 10 22v62q0 25 -10 24h-369q-10 0 -10 -24v-62zM92 729q0 -25 10 -24h922q10 0 10 24v62q0 23 -10 22h-922q-10 0 -10 -22v-62zM92 850 q0 -25 10 -25h738q10 0 10 25v59q0 25 -10 25h-738q-10 0 -10 -25v-59zM829 369q0 -25 11 -25h368q10 0 11 25v59q0 25 -11 25h-368q-10 0 -11 -25v-59zM829 489q0 -24 10 -24h1h368q10 0 11 24v60q0 25 -11 24h-368q-10 0 -11 -24v-60zM829 608q0 -22 10 -22h1h368 q10 0 11 22v62q0 24 -10 24h-1h-368q-10 0 -11 -24v-62z" />
<glyph unicode="q" d="M92 369q0 -25 10 -25h369q10 0 10 25v59q0 25 -10 25h-369q-10 0 -10 -25v-59zM92 489q0 -25 10 -24h369q10 0 10 24v60q0 25 -10 24h-369q-10 0 -10 -24v-60zM92 608q0 -23 10 -22h369q10 0 10 22v62q0 25 -10 24h-369q-10 0 -10 -24v-62zM276 248q0 -23 11 -23h921 q10 0 11 23v61q0 23 -11 23h-921q-10 0 -11 -23v-61zM276 729q0 -25 11 -24h921q10 0 11 24v62q0 23 -11 22h-921q-10 0 -11 -22v-62zM399 129q0 -25 11 -25h798q10 0 11 25v59q0 25 -11 25h-798q-10 0 -11 -25v-59zM461 850q0 -25 10 -25h737q10 0 11 25v59q0 25 -11 25 h-737q-10 0 -10 -25v-59zM829 8q0 -25 11 -24h368q10 0 11 24v60q0 25 -11 24h-368q-10 0 -11 -24v-60zM829 -51v-62q0 -25 11 -24h368q10 0 11 24v62q0 23 -11 22h-368q-10 0 -11 -22zM829 -172v-61q0 -23 11 -23h368q10 0 11 23v61q0 25 -11 25h-368q-10 0 -11 -25z M829 -293v-59q0 -25 11 -25h368q10 0 11 25v59q0 25 -11 25h-368q-10 0 -11 -25zM829 369q0 -25 11 -25h368q10 0 11 25v59q0 25 -11 25h-368q-10 0 -11 -25v-59zM829 489q0 -24 10 -24h1h368q10 0 11 24v60q0 25 -11 24h-368q-10 0 -11 -24v-60zM829 608q0 -22 10 -22h1 h368q10 0 11 22v62q0 24 -10 24h-1h-368q-10 0 -11 -24v-62z" />
<glyph unicode="r" horiz-adv-x="948" d="M92 14q0 -24 9 -24h1h369q10 0 10 24v60q0 25 -10 24h-369q-10 0 -10 -24v-60zM92 133q0 -24 9 -24h1h369q10 0 10 24v60q0 25 -10 24h-369q-10 0 -10 -24v-60zM92 252q0 -23 10 -23h369q10 0 10 23v59q0 25 -10 25h-369q-10 0 -10 -25v-59zM92 371q0 -23 10 -23h369 q10 0 10 23v61q0 23 -10 23h-369q-10 0 -10 -23v-61zM92 492q0 -25 10 -25h369q10 0 10 25v59q0 23 -10 22h-369q-10 0 -10 -22v-59zM92 610q0 -24 9 -24h1h369q10 0 10 24v60q0 25 -10 24h-369q-10 0 -10 -24v-60zM276 729q0 -22 10 -22h1h559q10 0 10 22v59q0 25 -10 25 h-559q-10 0 -11 -25v-59zM276 848q0 -23 11 -23h559q10 0 10 23v61q0 23 -10 23h-559q-10 0 -11 -23v-61z" />
<glyph unicode="s" d="M92 133q0 -25 10 -24h369q10 0 10 24v60q0 25 -10 24h-369q-10 0 -10 -24v-60zM92 489q0 -25 10 -24h924q10 0 10 24v60q0 23 -10 22h-924q-10 0 -10 -22v-60zM92 608q0 -25 10 -24h369q10 0 10 24v60q0 25 -10 24h-369q-10 0 -10 -24v-60zM92 727q0 -23 10 -22h369 q10 0 10 22v59q0 25 -10 25h-369q-10 0 -10 -25v-59zM276 14q0 -24 10 -24h1h737q10 0 10 24v60q0 25 -10 24h-737q-10 0 -11 -24v-60zM276 371q0 -23 11 -23h921q10 0 11 23v61q0 23 -11 23h-921q-10 0 -11 -23v-61zM276 846q0 -23 11 -23h737q10 0 10 23v61q0 23 -10 23 h-737q-10 0 -11 -23v-61zM829 133q0 -24 10 -24h1h368q10 0 11 24v60q0 25 -11 24h-368q-10 0 -11 -24v-60zM829 252q0 -23 11 -23h368q10 0 11 23v59q0 25 -11 25h-368q-10 0 -11 -25v-59zM829 727q0 -22 10 -22h1h368q10 0 11 22v59q0 25 -11 25h-368q-10 0 -11 -25v-59z " />
<glyph unicode="t" horiz-adv-x="817" d="M92 14q0 -24 9 -24h1h377q10 0 10 24v60q0 25 -10 24h-377q-10 0 -10 -24v-60zM92 135q0 -24 9 -24h1h377q10 0 10 24v60q0 25 -10 24h-377q-10 0 -10 -24v-60zM92 254q0 -23 10 -23h369q10 0 10 23v61q0 23 -10 23h-369q-10 0 -10 -23v-61zM92 375q0 -25 10 -25h369 q10 0 10 25v59q0 25 -10 25h-369q-10 0 -10 -25v-59zM92 496q0 -25 10 -25h369q10 0 10 25v59q0 25 -10 25h-369q-10 0 -10 -25v-59zM92 614q0 -22 9 -22h1h369q10 0 10 22v62q0 25 -10 24h-369q-10 0 -10 -24v-62zM92 735q0 -24 9 -24h1h613q10 0 10 24v62q0 23 -10 22 h-613q-10 0 -10 -22v-62zM92 856q0 -25 10 -25h613q10 0 10 25v59q0 25 -10 25h-613q-10 0 -10 -25v-59zM92 977q0 -25 10 -25h369q10 0 10 25v59q0 25 -10 25h-369q-10 0 -10 -25v-59zM92 1096q0 -23 10 -23h369q10 0 10 23v61q0 23 -10 23h-369q-10 0 -10 -23v-61z M92 1217q0 -25 10 -25h369q10 0 10 25v59q0 24 -9 24h-1h-369q-10 0 -10 -24v-59z" />
<glyph unicode="u" d="M92 252q0 -23 10 -23h369q10 0 10 23v59q0 25 -10 25h-369q-10 0 -10 -25v-59zM92 371q0 -23 10 -23h369q10 0 10 23v61q0 23 -10 23h-369q-10 0 -10 -23v-61zM92 492q0 -25 10 -25h369q10 0 10 25v59q0 23 -10 22h-369q-10 0 -10 -22v-59zM92 610q0 -25 10 -24h369 q10 0 10 24v60q0 25 -10 24h-369q-10 0 -10 -24v-60zM92 729q0 -23 10 -22h369q10 0 10 22v59q0 25 -10 25h-369q-10 0 -10 -25v-59zM92 848q0 -23 10 -23h369q10 0 10 23v61q0 23 -10 23h-369q-10 0 -10 -23v-61zM276 14q0 -24 10 -24h1h737q10 0 10 24v60q0 25 -10 24 h-737q-10 0 -11 -24v-60zM276 133q0 -24 10 -24h1h737q10 0 10 24v60q0 25 -10 24h-737q-10 0 -11 -24v-60zM829 252q0 -23 11 -23h368q10 0 11 23v59q0 25 -11 25h-368q-10 0 -11 -25v-59zM829 371q0 -23 11 -23h368q10 0 11 23v61q0 23 -11 23h-368q-10 0 -11 -23v-61z M829 492q0 -25 11 -25h368q10 0 11 25v59q0 23 -11 22h-368q-10 0 -11 -22v-59zM829 610q0 -24 10 -24h1h368q10 0 11 24v60q0 25 -11 24h-368q-10 0 -11 -24v-60zM829 729q0 -22 10 -22h1h368q10 0 11 22v59q0 25 -11 25h-368q-10 0 -11 -25v-59zM829 848q0 -23 11 -23h368 q10 0 11 23v61q0 23 -11 23h-368q-10 0 -11 -23v-61z" />
<glyph unicode="v" d="M92 371q0 -23 10 -23h369q10 0 10 23v61q0 23 -10 23h-369q-10 0 -10 -23v-61zM92 492q0 -25 10 -25h369q10 0 10 25v59q0 23 -10 22h-369q-10 0 -10 -22v-59zM92 610q0 -25 10 -24h369q10 0 10 24v60q0 25 -10 24h-369q-10 0 -10 -24v-60zM92 729q0 -23 10 -22h369 q10 0 10 22v59q0 25 -10 25h-369q-10 0 -10 -25v-59zM92 848q0 -23 10 -23h369q10 0 10 23v61q0 23 -10 23h-369q-10 0 -10 -23v-61zM276 252q0 -23 11 -23h737q10 0 10 23v59q0 25 -10 25h-737q-10 0 -11 -25v-59zM371 133q0 -25 10 -24h541q10 0 10 24v60q0 25 -10 24 h-541q-10 0 -10 -24v-60zM461 14q0 -24 9 -24h1h369q10 0 10 24v60q0 25 -10 24h-369q-10 0 -10 -24v-60zM829 371q0 -23 11 -23h368q10 0 11 23v61q0 23 -11 23h-368q-10 0 -11 -23v-61zM829 492q0 -25 11 -25h368q10 0 11 25v59q0 23 -11 22h-368q-10 0 -11 -22v-59z M829 610q0 -24 10 -24h1h368q10 0 11 24v60q0 25 -11 24h-368q-10 0 -11 -24v-60zM829 729q0 -22 10 -22h1h368q10 0 11 22v59q0 25 -11 25h-368q-10 0 -11 -25v-59zM829 848q0 -23 11 -23h368q10 0 11 23v61q0 23 -11 23h-368q-10 0 -11 -23v-61z" />
<glyph unicode="w" horiz-adv-x="1495" d="M92 371q0 -23 10 -23h369q10 0 10 23v61q0 23 -10 23h-369q-10 0 -10 -23v-61zM92 492q0 -25 10 -25h369q10 0 10 25v59q0 23 -10 22h-369q-10 0 -10 -22v-59zM92 610q0 -25 10 -24h369q10 0 10 24v60q0 25 -10 24h-369q-10 0 -10 -24v-60zM92 729q0 -23 10 -22h369 q10 0 10 22v59q0 25 -10 25h-369q-10 0 -10 -25v-59zM92 848q0 -23 10 -23h369q10 0 10 23v61q0 23 -10 23h-369q-10 0 -10 -23v-61zM276 252q0 -23 11 -23h921q10 0 11 23v59q0 25 -11 25h-921q-10 0 -11 -25v-59zM461 14q0 -24 9 -24h1h184q10 0 11 24v60q0 25 -11 24 h-184q-10 0 -10 -24v-60zM461 133q0 -25 10 -24h184q10 0 11 24v60q0 25 -11 24h-184q-10 0 -10 -24v-60zM645 371q0 -23 10 -23h185q10 0 10 23v61q0 23 -10 23h-185q-10 0 -10 -23v-61zM645 492q0 -25 10 -25h185q10 0 10 25v59q0 23 -10 22h-185q-10 0 -10 -22v-59z M829 14q0 -24 10 -24h1h184q10 0 10 24v60q0 25 -10 24h-184q-10 0 -11 -24v-60zM829 133q0 -24 10 -24h1h184q10 0 10 24v60q0 25 -10 24h-184q-10 0 -11 -24v-60zM1014 371q0 -23 10 -23h369q10 0 10 23v61q0 23 -10 23h-369q-10 0 -10 -23v-61zM1014 492q0 -25 10 -25 h369q10 0 10 25v59q0 23 -10 22h-369q-10 0 -10 -22v-59zM1014 610q0 -24 9 -24h1h369q10 0 10 24v60q0 25 -10 24h-369q-10 0 -10 -24v-60zM1014 729q0 -22 9 -22h1h369q10 0 10 22v59q0 25 -10 25h-369q-10 0 -10 -25v-59zM1014 848q0 -23 10 -23h369q10 0 10 23v61 q0 23 -10 23h-369q-10 0 -10 -23v-61z" />
<glyph unicode="x" d="M92 14q0 -24 9 -24h1h369q10 0 10 24v60q0 25 -10 24h-369q-10 0 -10 -24v-60zM92 133q0 -25 10 -24h369q10 0 10 24v60q0 25 -10 24h-369q-10 0 -10 -24v-60zM92 252q0 -23 10 -23h369q10 0 10 23v59q0 25 -10 25h-369q-10 0 -10 -25v-59zM92 610q0 -25 10 -24h369 q10 0 10 24v60q0 25 -10 24h-369q-10 0 -10 -24v-60zM92 729q0 -23 10 -22h369q10 0 10 22v59q0 25 -10 25h-369q-10 0 -10 -25v-59zM92 848q0 -23 10 -23h369q10 0 10 23v61q0 23 -10 23h-369q-10 0 -10 -23v-61zM276 371q0 -23 11 -23h737q10 0 10 23v61q0 23 -10 23h-737 q-10 0 -11 -23v-61zM276 492q0 -25 11 -25h737q10 0 10 25v59q0 23 -10 22h-737q-10 0 -11 -22v-59zM829 14q0 -24 10 -24h1h368q10 0 11 24v60q0 25 -11 24h-368q-10 0 -11 -24v-60zM829 133q0 -24 10 -24h1h368q10 0 11 24v60q0 25 -11 24h-368q-10 0 -11 -24v-60z M829 252q0 -23 11 -23h368q10 0 11 23v59q0 25 -11 25h-368q-10 0 -11 -25v-59zM829 610q0 -24 10 -24h1h368q10 0 11 24v60q0 25 -11 24h-368q-10 0 -11 -24v-60zM829 729q0 -22 10 -22h1h368q10 0 11 22v59q0 25 -11 25h-368q-10 0 -11 -25v-59zM829 848q0 -23 11 -23h368 q10 0 11 23v61q0 23 -11 23h-368q-10 0 -11 -23v-61z" />
<glyph unicode="y" d="M92 492q0 -25 10 -25h369q10 0 10 25v59q0 23 -10 22h-369q-10 0 -10 -22v-59zM92 610q0 -25 10 -24h369q10 0 10 24v60q0 25 -10 24h-369q-10 0 -10 -24v-60zM92 729q0 -23 10 -22h369q10 0 10 22v59q0 25 -10 25h-369q-10 0 -10 -25v-59zM92 848q0 -23 10 -23h369 q10 0 10 23v61q0 23 -10 23h-369q-10 0 -10 -23v-61zM276 371q0 -23 11 -23h737q10 0 10 23v61q0 23 -10 23h-737q-10 0 -11 -23v-61zM461 14q0 -24 9 -24h1h369q10 0 10 24v60q0 25 -10 24h-369q-10 0 -10 -24v-60zM461 133q0 -24 9 -24h1h369q10 0 10 24v60q0 25 -10 24 h-369q-10 0 -10 -24v-60zM461 252q0 -23 10 -23h369q10 0 10 23v59q0 25 -10 25h-369q-10 0 -10 -25v-59zM829 492q0 -25 11 -25h368q10 0 11 25v59q0 23 -11 22h-368q-10 0 -11 -22v-59zM829 610q0 -24 10 -24h1h368q10 0 11 24v60q0 25 -11 24h-368q-10 0 -11 -24v-60z M829 729q0 -22 10 -22h1h368q10 0 11 22v59q0 25 -11 25h-368q-10 0 -11 -25v-59zM829 848q0 -23 11 -23h368q10 0 11 23v61q0 23 -11 23h-368q-10 0 -11 -23v-61z" />
<glyph unicode="z" horiz-adv-x="1126" d="M92 14q0 -24 9 -24h1h922q10 0 10 24v60q0 25 -10 24h-922q-10 0 -10 -24v-60zM92 133q0 -24 9 -24h1h922q10 0 10 24v60q0 25 -10 24h-922q-10 0 -10 -24v-60zM92 252q0 -23 10 -23h369q10 0 10 23v59q0 25 -10 25h-369q-10 0 -10 -25v-59zM92 729q0 -23 10 -22h922 q10 0 10 22v59q0 25 -10 25h-922q-10 0 -10 -25v-59zM92 848q0 -23 10 -23h922q10 0 10 23v61q0 23 -10 23h-922q-10 0 -10 -23v-61zM276 371q0 -23 11 -23h368q10 0 11 23v61q0 23 -11 23h-368q-10 0 -11 -23v-61zM461 492q0 -25 10 -25h369q10 0 10 25v59q0 23 -10 22 h-369q-10 0 -10 -22v-59zM645 610q0 -24 9 -24h1h369q10 0 10 24v60q0 24 -9 24h-1h-369q-10 0 -10 -24v-60z" />
<glyph unicode="{" horiz-adv-x="757" d="M92 614q0 -23 10 -22h185q10 0 10 22v62q0 25 -10 24h-185q-10 0 -10 -24v-62zM276 135q0 -25 11 -24h368q10 0 11 24v60q0 25 -11 24h-368q-10 0 -11 -24v-60zM276 254q0 -23 11 -23h184q10 0 10 23v61q0 23 -10 23h-184q-10 0 -11 -23v-61zM276 375q0 -25 11 -25h184 q10 0 10 25v59q0 25 -10 25h-184q-10 0 -11 -25v-59zM276 496q0 -25 11 -25h184q10 0 10 25v59q0 25 -10 25h-184q-10 0 -11 -25v-59zM276 735q0 -25 11 -24h184q10 0 10 24v62q0 23 -10 22h-184q-10 0 -11 -22v-62zM276 856q0 -25 11 -25h184q10 0 10 25v59q0 25 -10 25 h-184q-10 0 -11 -25v-59zM276 977q0 -25 11 -25h184q10 0 10 25v59q0 25 -10 25h-184q-10 0 -11 -25v-59zM276 1096q0 -23 11 -23h368q10 0 11 23v61q0 23 -11 23h-368q-10 0 -11 -23v-61zM461 14q0 -25 10 -24h184q10 0 11 24v60q0 25 -11 24h-184q-10 0 -10 -24v-60z M461 1217q0 -25 10 -25h184q10 0 11 25v59q0 25 -11 24h-184q-10 0 -10 -24v-59z" />
<glyph unicode="|" horiz-adv-x="389" d="M92 14q0 -25 10 -24h185q10 0 10 24v60q0 25 -10 24h-185q-10 0 -10 -24v-60zM92 135q0 -25 10 -24h185q10 0 10 24v60q0 25 -10 24h-185q-10 0 -10 -24v-60zM92 254q0 -23 10 -23h185q10 0 10 23v61q0 23 -10 23h-185q-10 0 -10 -23v-61zM92 375q0 -25 10 -25h185 q10 0 10 25v59q0 25 -10 25h-185q-10 0 -10 -25v-59zM92 496q0 -25 10 -25h185q10 0 10 25v59q0 25 -10 25h-185q-10 0 -10 -25v-59zM92 614q0 -23 10 -22h185q10 0 10 22v62q0 25 -10 24h-185q-10 0 -10 -24v-62zM92 735q0 -25 10 -24h185q10 0 10 24v62q0 23 -10 22h-185 q-10 0 -10 -22v-62zM92 856q0 -25 10 -25h185q10 0 10 25v59q0 25 -10 25h-185q-10 0 -10 -25v-59zM92 977q0 -25 10 -25h185q10 0 10 25v59q0 25 -10 25h-185q-10 0 -10 -25v-59zM92 1096q0 -23 10 -23h185q10 0 10 23v61q0 23 -10 23h-185q-10 0 -10 -23v-61zM92 1217 q0 -25 10 -25h185q10 0 10 25v59q0 25 -10 24h-185q-10 0 -10 -24v-59z" />
<glyph unicode="}" horiz-adv-x="757" d="M92 14q0 -25 10 -24h185q10 0 10 24v60q0 25 -10 24h-185q-10 0 -10 -24v-60zM92 135q0 -25 10 -24h369q10 0 10 24v60q0 25 -10 24h-369q-10 0 -10 -24v-60zM92 1096q0 -23 10 -23h369q10 0 10 23v61q0 23 -10 23h-369q-10 0 -10 -23v-61zM92 1217q0 -25 10 -25h185 q10 0 10 25v59q0 25 -10 24h-185q-10 0 -10 -24v-59zM276 254q0 -23 11 -23h184q10 0 10 23v61q0 23 -10 23h-184q-10 0 -11 -23v-61zM276 375q0 -25 11 -25h184q10 0 10 25v59q0 25 -10 25h-184q-10 0 -11 -25v-59zM276 496q0 -25 11 -25h184q10 0 10 25v59q0 25 -10 25 h-184q-10 0 -11 -25v-59zM276 735q0 -25 11 -24h184q10 0 10 24v62q0 23 -10 22h-184q-10 0 -11 -22v-62zM276 856q0 -25 11 -25h184q10 0 10 25v59q0 25 -10 25h-184q-10 0 -11 -25v-59zM276 977q0 -25 11 -25h184q10 0 10 25v59q0 25 -10 25h-184q-10 0 -11 -25v-59z M461 614q0 -23 10 -22h184q10 0 11 22v62q0 25 -11 24h-184q-10 0 -10 -24v-62z" />
<glyph unicode="~" horiz-adv-x="942" d="M92 817q0 -20 10 -20h185q10 0 10 20v53q0 23 -10 23h-185q-10 0 -10 -23v-53zM276 926q0 -23 11 -23h184q10 0 10 23v53q0 23 -10 22h-184q-10 0 -11 -22v-53zM461 817q0 -20 10 -20h184q10 0 11 20v53q0 23 -11 23h-184q-10 0 -10 -23v-53zM645 926q0 -23 10 -23h185 q10 0 10 23v53q0 23 -10 22h-185q-10 0 -10 -22v-53z" />
<glyph unicode="&#xa1;" horiz-adv-x="573" d="M92 14q0 -25 10 -24h369q10 0 10 24v60q0 25 -10 24h-369q-10 0 -10 -24v-60zM92 135q0 -25 10 -24h369q10 0 10 24v60q0 25 -10 24h-369q-10 0 -10 -24v-60zM92 254q0 -23 10 -23h369q10 0 10 23v61q0 23 -10 23h-369q-10 0 -10 -23v-61zM92 375q0 -25 10 -25h369 q10 0 10 25v59q0 25 -10 25h-369q-10 0 -10 -25v-59zM92 496q0 -25 10 -25h369q10 0 10 25v59q0 25 -10 25h-369q-10 0 -10 -25v-59zM92 614q0 -23 10 -22h369q10 0 10 22v62q0 25 -10 24h-369q-10 0 -10 -24v-62zM92 735q0 -25 10 -24h369q10 0 10 24v62q0 23 -10 22h-369 q-10 0 -10 -22v-62zM92 977q0 -25 10 -25h369q10 0 10 25v59q0 25 -10 25h-369q-10 0 -10 -25v-59zM92 1096q0 -23 10 -23h369q10 0 10 23v61q0 23 -10 23h-369q-10 0 -10 -23v-61zM92 1217q0 -25 10 -25h369q10 0 10 25v59q0 25 -10 24h-369q-10 0 -10 -24v-59z" />
<glyph unicode="&#xa2;" horiz-adv-x="1126" d="M92 420q0 -25 10 -25h369q10 0 10 25v59q0 25 -10 25h-369q-10 0 -10 -25v-59zM92 541q0 -25 10 -25h369q10 0 10 25v59q0 25 -10 25h-369q-10 0 -10 -25v-59zM92 662q0 -25 10 -25h369q10 0 10 25v59q0 25 -10 24h-369q-10 0 -10 -24v-59zM92 780q0 -23 10 -22h369 q10 0 10 22v62q0 25 -10 24h-369q-10 0 -10 -24v-62zM276 299q0 -25 11 -25h737q10 0 10 25v61q0 23 -10 23h-737q-10 0 -11 -23v-61zM276 901q0 -23 11 -22h737q10 0 10 22v62q0 25 -10 24h-737q-10 0 -11 -24v-62zM461 -8v-60q0 -25 10 -24h184q10 0 11 24v60q0 25 -11 24 h-184q-10 0 -10 -24zM461 51q0 -23 10 -22h184q10 0 11 22v62q0 25 -11 24h-184q-10 0 -10 -24v-62zM461 178q0 -23 10 -22h553q10 0 10 22v62q0 23 -10 22h-553q-10 0 -10 -22v-62zM461 1022q0 -25 10 -25h553q10 0 10 25v61q0 23 -10 23h-553q-10 0 -10 -23v-61zM465 1159 q0 -25 10 -24h184q10 0 11 24v60q0 25 -11 24h-184q-10 0 -10 -24v-60zM465 1280q0 -25 10 -25h184q10 0 11 25v59q0 25 -11 25h-184q-10 0 -10 -25v-59z" />
<glyph unicode="&#xa3;" horiz-adv-x="1073" d="M102 14q0 -25 11 -24h843q10 0 11 24v60q0 25 -11 24h-843q-10 0 -11 -24v-60zM106 133q0 -23 11 -22h844q10 0 10 22v62q0 23 -10 22h-844q-10 0 -11 -22v-62zM270 254q0 -25 11 -25h368q10 0 10 25v59q0 25 -10 25h-368q-10 0 -11 -25v-59zM270 375q0 -25 11 -25h368 q10 0 10 25v59q0 25 -10 25h-368q-10 0 -11 -25v-59zM270 614q0 -25 11 -24h368q10 0 10 24v62q0 23 -10 22h-368q-10 0 -11 -22v-62zM270 735q0 -25 11 -24h653q10 0 10 24v60q0 25 -10 24h-653q-10 0 -11 -24v-60zM270 856q0 -25 11 -25h368q10 0 10 25v59q0 25 -10 25 h-368q-10 0 -11 -25v-59zM270 975q0 -23 11 -23h368q10 0 10 23v61q0 23 -10 23h-368q-10 0 -11 -23v-61zM279 494q0 -23 10 -23h653q10 0 10 23v61q0 25 -10 25h-653q-10 0 -10 -25v-61zM455 1096q0 -25 10 -25h483q10 0 10 25v59q0 25 -10 25h-483q-10 0 -10 -25v-59z M639 1217q0 -25 10 -25h299q10 0 10 25v59q0 25 -10 24h-299q-10 0 -10 -24v-59z" />
<glyph unicode="&#xa5;" d="M92 735q0 -25 10 -24h369q10 0 10 24v62q0 23 -10 22h-369q-10 0 -10 -22v-62zM92 856q0 -25 10 -25h369q10 0 10 25v59q0 25 -10 25h-369q-10 0 -10 -25v-59zM92 977q0 -25 10 -25h369q10 0 10 25v59q0 25 -10 25h-369q-10 0 -10 -25v-59zM92 1096q0 -23 10 -23h369 q10 0 10 23v61q0 23 -10 23h-369q-10 0 -10 -23v-61zM92 1217q0 -25 10 -25h369q10 0 10 25v59q0 25 -10 24h-369q-10 0 -10 -24v-59zM96 496q0 -25 10 -25h1098q10 0 10 25v59q0 25 -10 25h-1098q-10 0 -10 -25v-59zM98 254q0 -23 11 -23h1095q10 0 10 23v61q0 23 -10 23 h-1095q-10 0 -11 -23v-61zM276 614q0 -23 11 -22h737q10 0 10 22v62q0 25 -10 24h-737q-10 0 -11 -24v-62zM461 14q0 -25 10 -24h369q10 0 10 24v60q0 25 -10 24h-369q-10 0 -10 -24v-60zM461 135q0 -25 10 -24h369q10 0 10 24v60q0 25 -10 24h-369q-10 0 -10 -24v-60z M461 375q0 -25 10 -25h369q10 0 10 25v59q0 25 -10 25h-369q-10 0 -10 -25v-59zM829 735q0 -25 11 -24h368q10 0 11 24v62q0 23 -11 22h-368q-10 0 -11 -22v-62zM829 856q0 -25 11 -25h368q10 0 11 25v59q0 25 -11 25h-368q-10 0 -11 -25v-59zM829 977q0 -25 11 -25h368 q10 0 11 25v59q0 25 -11 25h-368q-10 0 -11 -25v-59zM829 1096q0 -23 11 -23h368q10 0 11 23v61q0 23 -11 23h-368q-10 0 -11 -23v-61zM829 1217q0 -25 11 -25h368q10 0 11 25v59q0 25 -11 24h-368q-10 0 -11 -24v-59z" />
<glyph unicode="&#xa6;" horiz-adv-x="389" d="M92 14q0 -25 10 -24h185q10 0 10 24v60q0 25 -10 24h-185q-10 0 -10 -24v-60zM92 135q0 -25 10 -24h185q10 0 10 24v60q0 25 -10 24h-185q-10 0 -10 -24v-60zM92 254q0 -23 10 -23h185q10 0 10 23v61q0 23 -10 23h-185q-10 0 -10 -23v-61zM92 375q0 -25 10 -25h185 q10 0 10 25v59q0 25 -10 25h-185q-10 0 -10 -25v-59zM92 856q0 -25 10 -25h185q10 0 10 25v59q0 25 -10 25h-185q-10 0 -10 -25v-59zM92 977q0 -25 10 -25h185q10 0 10 25v59q0 25 -10 25h-185q-10 0 -10 -25v-59zM92 1096q0 -23 10 -23h185q10 0 10 23v61q0 23 -10 23h-185 q-10 0 -10 -23v-61zM92 1217q0 -25 10 -25h185q10 0 10 25v59q0 25 -10 24h-185q-10 0 -10 -24v-59z" />
<glyph unicode="&#xa7;" d="M92 -49v-60q0 -25 10 -24h369q10 0 10 24v60q0 25 -10 24h-369q-10 0 -10 -24zM92 252q0 -25 10 -25h924q10 0 10 25v59q0 25 -10 25h-924q-10 0 -10 -25v-59zM92 371q0 -23 10 -23h369q10 0 10 23v61q0 25 -10 25h-369q-10 0 -10 -25v-61zM92 492q0 -25 10 -25h369 q10 0 10 25v61q0 23 -10 22h-369q-10 0 -10 -22v-61zM92 731q0 -25 10 -24h924q10 0 10 24v60q0 25 -10 24h-924q-10 0 -10 -24v-60zM92 852q0 -25 10 -25h369q10 0 10 25v59q0 25 -10 25h-369q-10 0 -10 -25v-59zM92 971q0 -23 10 -23h369q10 0 10 23v61q0 25 -10 25h-369 q-10 0 -10 -25v-61zM276 133q0 -25 11 -24h921q10 0 11 24v60q0 25 -11 24h-921q-10 0 -11 -24v-60zM276 -168v-61q0 -25 11 -25h737q10 0 10 25v61q0 23 -10 23h-737q-10 0 -11 -23zM276 612q0 -25 11 -24h921q10 0 11 24v60q0 25 -11 24h-921q-10 0 -11 -24v-60zM276 1092 q0 -23 11 -23h737q10 0 10 23v61q0 23 -10 23h-737q-10 0 -11 -23v-61zM829 12q0 -25 11 -24h368q10 0 11 24v60q0 25 -11 24h-368q-10 0 -11 -24v-60zM829 -49v-60q0 -25 11 -24h368q10 0 11 24v60q0 25 -11 24h-368q-10 0 -11 -24zM829 371q0 -23 11 -23h368q10 0 11 23 v61q0 25 -11 25h-368q-10 0 -11 -25v-61zM829 492q0 -25 11 -25h368q10 0 11 25v61q0 23 -11 22h-368q-10 0 -11 -22v-61zM829 971q0 -23 11 -23h368q10 0 11 23v61q0 25 -11 25h-368q-10 0 -11 -25v-61z" />
<glyph unicode="&#xa8;" horiz-adv-x="942" d="M92 1276q0 -23 10 -23h185q10 0 10 23v53q0 23 -10 23h-185q-10 0 -10 -23v-53zM92 1382q0 -20 10 -20h185q10 0 10 20v56q0 20 -10 20h-185q-10 0 -10 -20v-56zM645 1276q0 -23 10 -23h185q10 0 10 23v53q0 23 -10 23h-185q-10 0 -10 -23v-53zM645 1382q0 -20 10 -20 h185q10 0 10 20v56q0 20 -10 20h-185q-10 0 -10 -20v-56z" />
<glyph unicode="&#xa9;" d="M92 254q0 -23 10 -23h195q10 0 10 23v61q0 23 -10 23h-195q-10 0 -10 -23v-61zM92 375q0 -25 10 -25h195q10 0 10 25v59q0 25 -10 25h-195q-10 0 -10 -25v-59zM92 496q0 -25 10 -25h195q10 0 10 25v59q0 25 -10 25h-195q-10 0 -10 -25v-59zM92 614q0 -23 10 -22h195 q10 0 10 22v62q0 25 -10 24h-195q-10 0 -10 -24v-62zM92 735q0 -25 10 -24h195q10 0 10 24v62q0 23 -10 22h-195q-10 0 -10 -22v-62zM92 856q0 -25 10 -25h195q10 0 10 25v59q0 25 -10 25h-195q-10 0 -10 -25v-59zM92 977q0 -25 10 -25h195q10 0 10 25v59q0 25 -10 25h-195 q-10 0 -10 -25v-59zM276 14q0 -25 11 -24h737q10 0 10 24v60q0 25 -10 24h-737q-10 0 -11 -24v-60zM276 135q0 -25 11 -24h737q10 0 10 24v60q0 25 -10 24h-737q-10 0 -11 -24v-60zM276 1096q0 -23 11 -23h737q10 0 10 23v61q0 23 -10 23h-737q-10 0 -11 -23v-61zM276 1217 q0 -25 11 -25h737q10 0 10 25v59q0 25 -10 24h-737q-10 0 -11 -24v-59zM379 436q0 -23 10 -22h215q10 0 10 22v62q0 23 -10 22h-215q-10 0 -10 -22v-62zM379 557q0 -25 10 -25h215q10 0 10 25v59q0 25 -10 25h-215q-10 0 -10 -25v-59zM379 678q0 -25 10 -25h215q10 0 10 25 v59q0 25 -10 25h-215q-10 0 -10 -25v-59zM379 797q0 -23 10 -23h215q10 0 10 23v61q0 25 -10 25h-215q-10 0 -10 -25v-61zM485 317q0 -25 11 -24h430q10 0 10 24v60q0 25 -10 24h-430q-10 0 -11 -24v-60zM485 918q0 -25 11 -25h430q10 0 10 25v61q0 23 -10 22h-430 q-10 0 -11 -22v-61zM1004 254q0 -23 10 -23h194q10 0 11 23v61q0 23 -11 23h-194q-10 0 -10 -23v-61zM1004 375q0 -25 10 -25h194q10 0 11 25v59q0 25 -11 25h-194q-10 0 -10 -25v-59zM1004 496q0 -25 10 -25h194q10 0 11 25v59q0 25 -11 25h-194q-10 0 -10 -25v-59z M1004 614q0 -23 10 -22h194q10 0 11 22v62q0 25 -11 24h-194q-10 0 -10 -24v-62zM1004 735q0 -25 10 -24h194q10 0 11 24v62q0 23 -11 22h-194q-10 0 -10 -22v-62zM1004 856q0 -25 10 -25h194q10 0 11 25v59q0 25 -11 25h-194q-10 0 -10 -25v-59zM1004 977q0 -25 10 -25h194 q10 0 11 25v59q0 25 -11 25h-194q-10 0 -10 -25v-59z" />
<glyph unicode="&#xaa;" horiz-adv-x="974" d="M102 674q0 -23 7 -23h251q8 0 9 23v59q0 25 -9 25h-251q-6 0 -7 -25v-59zM102 793q0 -23 7 -23h251q8 0 9 23v59q0 23 -9 22h-251q-6 0 -7 -22v-59zM102 911q0 -25 7 -24h757q6 0 6 24v60q0 23 -6 22h-757q-6 0 -7 -22v-60zM229 557q0 -25 7 -25h503q8 0 9 25v59 q0 23 -9 23h-503q-6 0 -7 -23v-59zM229 1147q0 -25 7 -25h503q8 0 9 25v59q0 23 -9 23h-503q-6 0 -7 -23v-59zM606 674q0 -23 8 -23h252q6 0 6 23v59q0 25 -6 25h-252q-8 0 -8 -25v-59zM606 793q0 -23 8 -23h252q6 0 6 23v59q0 23 -6 22h-252q-8 0 -8 -22v-59zM606 1028 q0 -23 8 -22h252q6 0 6 22v59q0 25 -6 25h-252q-8 0 -8 -25v-59z" />
<glyph unicode="&#xab;" horiz-adv-x="997" d="M92 489q0 -25 10 -24h185q10 0 10 24v60q0 23 -10 22h-185q-10 0 -10 -22v-60zM92 608q0 -25 10 -24h185q10 0 10 24v60q0 23 -10 22h-185q-10 0 -10 -22v-60zM92 727q0 -25 10 -25h185q10 0 10 25v59q0 23 -10 23h-185q-10 0 -10 -23v-59zM276 252q0 -25 11 -25h184 q10 0 10 25v59q0 23 -10 23h-184q-10 0 -11 -23v-59zM276 371q0 -25 11 -25h184q10 0 10 25v59q0 23 -10 23h-184q-10 0 -11 -23v-59zM276 846q0 -25 11 -25h184q10 0 10 25v59q0 23 -10 23h-184q-10 0 -11 -23v-59zM276 965q0 -25 11 -25h184q10 0 10 25v59q0 23 -10 23 h-184q-10 0 -11 -23v-59zM516 489q0 -25 10 -24h185q10 0 10 24v60q0 23 -10 22h-185q-10 0 -10 -22v-60zM516 608q0 -25 10 -24h185q10 0 10 24v60q0 23 -10 22h-185q-10 0 -10 -22v-60zM516 727q0 -25 10 -25h185q10 0 10 25v59q0 23 -10 23h-185q-10 0 -10 -23v-59z M700 252q0 -25 11 -25h184q10 0 10 25v59q0 23 -10 23h-184q-10 0 -11 -23v-59zM700 371q0 -25 11 -25h184q10 0 10 25v59q0 23 -10 23h-184q-10 0 -11 -23v-59zM700 846q0 -25 11 -25h184q10 0 10 25v59q0 23 -10 23h-184q-10 0 -11 -23v-59zM700 965q0 -25 11 -25h184 q10 0 10 25v59q0 23 -10 23h-184q-10 0 -11 -23v-59z" />
<glyph unicode="&#xac;" horiz-adv-x="1808" d="M102 1272q0 -16 7 -17h823q6 0 6 11v41q0 12 -6 12h-823q-6 0 -7 -10v-37zM102 1343q0 -18 7 -18h823q6 0 6 18v35q0 12 -6 13h-823q-6 0 -7 -13v-35zM106 -8q0 -14 5 -15h821q6 0 6 15v35q0 14 -6 14h-821q-4 0 -5 -14v-35zM106 -45v-35q0 -14 5 -14h821q6 0 6 14v35 q0 14 -6 14h-821q-4 0 -5 -14zM106 63q0 -14 5 -14h221q4 0 4 14v35q0 12 -4 13h-221q-4 0 -5 -13v-35zM106 133q0 -14 5 -14h221q4 0 4 14v35q0 16 -4 16h-221q-4 0 -5 -16v-35zM106 205q0 -14 5 -15h221q4 0 4 15v35q0 14 -4 14h-221q-4 0 -5 -14v-35zM106 274 q0 -12 5 -12h221q4 0 4 12v37q0 16 -4 17h-221q-4 0 -5 -17v-37zM106 346q0 -12 5 -12h221q4 0 4 12v35q0 16 -4 16h-221q-4 0 -5 -16v-35zM106 418q0 -14 5 -15h221q4 0 4 15v35q0 16 -4 16h-221q-4 0 -5 -16v-35zM106 487q0 -12 5 -12h221q4 0 4 12v35q0 18 -4 19h-221 q-4 0 -5 -19v-35zM106 557q0 -10 5 -10h221q4 0 4 10v37q0 16 -4 16h-221q-4 0 -5 -16v-37zM106 631q0 -14 5 -15h213l2 -2l219 2q6 0 6 15v35q0 16 -6 16h-434q-4 0 -5 -16v-35zM319 702q0 -14 7 -14h219q6 0 6 14v35q0 14 -6 15h-219q-6 0 -7 -15v-35zM319 772 q0 -14 7 -14h219q6 0 6 14v37q0 12 -6 12h-219q-6 0 -7 -12v-37zM319 844q0 -14 7 -15h219q6 0 6 15v35q0 14 -6 14h-219q-6 0 -7 -14v-35zM319 913q0 -12 7 -12h219q6 0 6 12v37q0 14 -6 15h-219q-6 0 -7 -15v-37zM319 985q0 -12 7 -12h219q6 0 6 12v35q0 18 -6 18h-219 q-6 0 -7 -18v-35zM319 1055q0 -12 7 -13h219q6 0 6 13v39q0 14 -6 14h-219q-6 0 -7 -14v-39zM319 1126q0 -12 7 -12h219q6 0 6 12v35q0 16 -6 17h-219q-6 0 -7 -17v-35zM319 1200q0 -14 7 -14h219q6 0 6 14v37q0 12 -6 12h-219q-6 0 -7 -12v-37zM475 350q0 -10 4 -10h109 q8 0 8 10v35q0 14 -8 14h-109q-4 0 -4 -14v-35zM475 418q0 -12 4 -12h109q8 0 8 12v35q0 14 -8 14h-109q-4 0 -4 -14v-35zM475 485q0 -12 4 -12h109q8 0 8 12v33q0 16 -8 17h-109q-4 0 -4 -17v-33zM707 63q0 -14 4 -14h221q6 0 6 14v35q0 12 -6 13h-221q-4 0 -4 -13v-35z M707 133q0 -14 4 -14h221q6 0 6 14v35q0 16 -6 16h-221q-4 0 -4 -16v-35zM707 205q0 -14 4 -15h221q6 0 6 15v35q0 14 -6 14h-221q-4 0 -4 -14v-35zM707 274q0 -12 4 -12h909q8 0 8 12v35q0 18 -8 19h-909q-4 0 -4 -17v-37zM707 346q0 -12 4 -12h221q6 0 6 12v35q0 16 -6 16 h-221q-4 0 -4 -16v-35zM707 418q0 -14 4 -15h221q6 0 6 15v35q0 16 -6 16h-221q-4 0 -4 -16v-35zM707 631q0 -16 4 -17h221l2 2l758 -2q10 0 10 17v35q0 14 -10 14h-541l-2 2h-217h-2q-2 -2 -6 -2h-213q-4 0 -4 -14v-35zM707 700q0 -14 4 -14h221q6 0 6 14v35q0 16 -6 17 h-221q-4 0 -4 -17v-35zM707 772q0 -14 4 -14h221q6 0 6 14v35q0 14 -6 14h-221q-4 0 -4 -14v-35zM707 842q0 -14 4 -15h221q6 0 6 15v35q0 16 -6 16h-221q-4 0 -4 -16v-35zM707 913q0 -12 4 -12h221q6 0 6 12v35q0 14 -6 15h-221q-4 0 -4 -15v-35zM707 983q0 -12 4 -12h874 q4 0 4 12v37q0 16 -4 16h-874q-4 0 -4 -16v-37zM707 1055q0 -12 4 -13h221q6 0 6 13v35q0 16 -6 16h-221q-4 0 -4 -16v-35zM707 1126q0 -14 4 -14h221q6 0 6 14v35q0 16 -6 17h-221q-4 0 -4 -17v-35zM707 1196q0 -12 4 -12h221q6 0 6 12v35q0 18 -6 18h-221q-4 0 -4 -18v-35 zM815 487q0 -12 6 -12h547q4 0 4 12v35q0 16 -4 17h-547q-6 0 -6 -17v-35zM922 557q0 -12 10 -12h688q8 0 8 12v39q0 14 -8 14h-688q-10 0 -10 -16v-37zM1143 -8q0 -12 4 -12q0 -2 2 -3h471q8 0 8 15v35q0 12 -8 12h-252q0 2 -2 2h-217q-6 0 -6 -14v-35zM1143 -45v-35 q0 -12 4 -12q0 -2 2 -2h399q4 0 4 12v35q0 16 -4 16h-399q-6 0 -6 -14zM1143 63q0 -10 4 -14l2 -2h219q4 0 4 14v37q0 6 -4 11q0 2 -2 2h-217q-6 0 -6 -13v-35zM1143 133q0 -12 4 -12q0 -2 2 -2h219q4 0 4 14v35q0 8 -4 12q0 4 -2 4h-217q-6 0 -6 -16v-35zM1143 205 q0 -6 4 -15l2 -2h219q4 0 4 15v37q0 6 -4 14h-219q-6 0 -6 -14v-35zM1143 346q0 -8 4 -12l2 -2h219q4 0 4 12v37q0 12 -4 16h-219q-6 0 -6 -16v-35zM1143 418q0 -12 4 -12q0 -2 2 -3h219q4 0 4 13v35q0 12 -4 16q0 2 -2 2h-217q-6 0 -6 -16v-35zM1143 700q0 -14 6 -14h543 q10 0 10 14v35q0 16 -10 17h-543q-6 0 -6 -17v-35zM1143 772q0 -14 6 -14h219q4 0 4 14v35q0 14 -4 14h-219q-6 0 -6 -14v-35zM1143 842q0 -14 6 -15h219q4 0 4 15v35q0 16 -4 16h-219q-6 0 -6 -16v-35zM1143 913q0 -12 6 -12h219q4 0 4 12v35q0 14 -4 15h-219q-6 0 -6 -15 v-35zM1143 1055q0 -12 6 -13h219q4 0 4 13v35q0 16 -4 16h-219q-6 0 -6 -16v-35zM1143 1126q0 -14 6 -14h219q4 0 4 14v35q0 16 -4 17h-219q-6 0 -6 -17v-35zM1143 1196q0 -12 6 -12h219q4 0 4 12v35q0 18 -4 18h-219q-6 0 -6 -18v-35zM1143 1266q0 -10 6 -11h543 q10 0 10 11v41q0 12 -10 12h-543q-6 0 -6 -12v-41zM1143 1341q0 -16 6 -16h543q10 0 10 16v35q0 12 -10 13h-543q-6 0 -6 -13v-35zM1507 61q0 -14 4 -14h187q8 0 8 14v37q0 10 -8 11h-187q-4 0 -4 -11v-37zM1507 133q0 -14 4 -14h187q8 0 8 14v35q0 12 -8 12h-187 q-4 0 -4 -12v-35zM1507 203q0 -14 4 -15h187q8 0 8 15v37q0 14 -8 14h-187q-4 0 -4 -14v-37zM1507 344q0 -12 4 -12h187q8 0 8 12v37q0 16 -8 16h-187q-4 0 -4 -16v-37zM1507 416q0 -12 4 -13h187q8 0 8 13v35q0 16 -8 16h-187q-4 0 -4 -16v-35zM1507 487q0 -12 4 -12h187 q8 0 8 12v35q0 16 -8 17h-187q-4 0 -4 -17v-35z" />
<glyph unicode="&#xad;" horiz-adv-x="757" d="M92 551q0 -20 10 -21h553q10 0 11 21v55q0 20 -11 21h-553q-10 0 -10 -21v-55zM92 659q0 -23 10 -22h553q10 0 11 22v54q0 23 -11 22h-553q-10 0 -10 -22v-54z" />
<glyph unicode="&#xae;" d="M92 254q0 -23 10 -23h195q10 0 10 23v61q0 23 -10 23h-195q-10 0 -10 -23v-61zM92 375q0 -25 10 -25h195q10 0 10 25v59q0 25 -10 25h-195q-10 0 -10 -25v-59zM92 496q0 -25 10 -25h195q10 0 10 25v59q0 25 -10 25h-195q-10 0 -10 -25v-59zM92 614q0 -23 10 -22h195 q10 0 10 22v62q0 25 -10 24h-195q-10 0 -10 -24v-62zM92 735q0 -25 10 -24h195q10 0 10 24v62q0 23 -10 22h-195q-10 0 -10 -22v-62zM92 856q0 -25 10 -25h195q10 0 10 25v59q0 25 -10 25h-195q-10 0 -10 -25v-59zM92 977q0 -25 10 -25h195q10 0 10 25v59q0 25 -10 25h-195 q-10 0 -10 -25v-59zM276 14q0 -25 11 -24h737q10 0 10 24v60q0 25 -10 24h-737q-10 0 -11 -24v-60zM276 135q0 -25 11 -24h737q10 0 10 24v60q0 25 -10 24h-737q-10 0 -11 -24v-60zM276 1096q0 -23 11 -23h737q10 0 10 23v61q0 23 -10 23h-737q-10 0 -11 -23v-61zM276 1217 q0 -25 11 -25h737q10 0 10 25v59q0 25 -10 24h-737q-10 0 -11 -24v-59zM375 254q0 -23 10 -23h184q10 0 11 23v61q0 23 -11 23h-184q-10 0 -10 -23v-61zM375 375q0 -25 10 -25h184q10 0 11 25v59q0 25 -11 25h-184q-10 0 -10 -25v-59zM375 496q0 -25 10 -25h367q10 0 10 25 v59q0 25 -10 25h-367q-10 0 -10 -25v-59zM375 614q0 -23 10 -22h461q10 0 10 22v62q0 25 -10 24h-461q-10 0 -10 -24v-62zM375 735q0 -25 10 -24h184q10 0 11 24v62q0 23 -11 22h-184q-10 0 -10 -22v-62zM375 856q0 -25 10 -25h184q10 0 11 25v59q0 25 -11 25h-184 q-10 0 -10 -25v-59zM375 977q0 -25 10 -25h549q10 0 10 25v59q0 25 -10 25h-549q-10 0 -10 -25v-59zM670 254q0 -23 10 -23h256q10 0 10 23v61q0 23 -10 23h-256q-10 0 -10 -23v-61zM670 375q0 -25 10 -25h182q10 0 10 25v59q0 25 -10 25h-182q-10 0 -10 -25v-59zM741 735 q0 -25 11 -24h182q10 0 10 24v62q0 23 -10 22h-182q-10 0 -11 -22v-62zM741 856q0 -25 11 -25h182q10 0 10 25v59q0 25 -10 25h-182q-10 0 -11 -25v-59zM1004 254q0 -23 10 -23h194q10 0 11 23v61q0 23 -11 23h-194q-10 0 -10 -23v-61zM1004 375q0 -25 10 -25h194 q10 0 11 25v59q0 25 -11 25h-194q-10 0 -10 -25v-59zM1004 496q0 -25 10 -25h194q10 0 11 25v59q0 25 -11 25h-194q-10 0 -10 -25v-59zM1004 614q0 -23 10 -22h194q10 0 11 22v62q0 25 -11 24h-194q-10 0 -10 -24v-62zM1004 735q0 -25 10 -24h194q10 0 11 24v62q0 23 -11 22 h-194q-10 0 -10 -22v-62zM1004 856q0 -25 10 -25h194q10 0 11 25v59q0 25 -11 25h-194q-10 0 -10 -25v-59zM1004 977q0 -25 10 -25h194q10 0 11 25v59q0 25 -11 25h-194q-10 0 -10 -25v-59z" />
<glyph unicode="&#xaf;" horiz-adv-x="757" d="M92 1272q0 -20 10 -21h553q10 0 11 21v53q0 23 -11 23h-553q-10 0 -10 -23v-53zM92 1380q0 -23 10 -22h553q10 0 11 22v54q0 23 -11 22h-553q-10 0 -10 -22v-54z" />
<glyph unicode="&#xb0;" horiz-adv-x="778" d="M102 1116q0 -23 11 -22h184q10 0 10 22v58q0 23 -10 22h-184q-10 0 -11 -22v-58zM287 1004q0 -23 10 -23h184q10 0 11 23v57q0 23 -11 22h-184q-10 0 -10 -22v-57zM287 1231q0 -23 10 -23h184q10 0 11 23v55q0 23 -11 23h-184q-10 0 -10 -23v-55zM471 1116q0 -23 10 -22 h185q10 0 10 22v58q0 23 -10 22h-185q-10 0 -10 -22v-58z" />
<glyph unicode="&#xb1;" horiz-adv-x="759" d="M92 117q0 -25 10 -25h553q10 0 11 25v59q0 23 -11 23h-553q-10 0 -10 -23v-59zM92 236q0 -25 10 -25h553q10 0 11 25v59q0 25 -11 24h-553q-10 0 -10 -24v-59zM94 735q0 -25 10 -24h553q10 0 11 24v60q0 23 -11 22h-553q-10 0 -10 -22v-60zM94 854q0 -25 10 -25h553 q10 0 11 25v59q0 25 -11 25h-553q-10 0 -10 -25v-59zM279 496q0 -25 10 -25h184q10 0 10 25v59q0 25 -10 25h-184q-10 0 -10 -25v-59zM279 614q0 -25 10 -24h184q10 0 10 24v60q0 25 -10 24h-184q-10 0 -10 -24v-60zM279 973q0 -23 10 -23h184q10 0 10 23v61q0 23 -10 23 h-184q-10 0 -10 -23v-61zM279 1094q0 -25 10 -25h184q10 0 10 25v59q0 25 -10 25h-184q-10 0 -10 -25v-59z" />
<glyph unicode="&#xb2;" d="M92 735q0 -25 10 -24h369q10 0 10 24v62q0 23 -10 22h-369q-10 0 -10 -22v-62zM92 856q0 -25 10 -25h369q10 0 10 25v59q0 25 -10 25h-369q-10 0 -10 -25v-59zM92 977q0 -25 10 -25h369q10 0 10 25v59q0 25 -10 25h-369q-10 0 -10 -25v-59zM276 14q0 -25 11 -24h737 q10 0 10 24v60q0 25 -10 24h-737q-10 0 -11 -24v-60zM276 135q0 -25 11 -24h737q10 0 10 24v60q0 25 -10 24h-737q-10 0 -11 -24v-60zM276 614q0 -23 11 -22h737q10 0 10 22v62q0 25 -10 24h-737q-10 0 -11 -24v-62zM276 1096q0 -23 11 -23h737q10 0 10 23v61q0 23 -10 23 h-737q-10 0 -11 -23v-61zM276 1217q0 -25 11 -25h737q10 0 10 25v59q0 25 -10 24h-737q-10 0 -11 -24v-59zM829 254q0 -23 11 -23h368q10 0 11 23v61q0 23 -11 23h-368q-10 0 -11 -23v-61zM829 375q0 -25 11 -25h368q10 0 11 25v59q0 25 -11 25h-368q-10 0 -11 -25v-59z M829 496q0 -25 11 -25h368q10 0 11 25v59q0 25 -11 25h-368q-10 0 -11 -25v-59z" />
<glyph unicode="&#xb3;" horiz-adv-x="1146" d="M102 14q0 -25 11 -24h737q10 0 10 24v60q0 25 -10 24h-737q-10 0 -11 -24v-60zM102 135q0 -25 11 -24h737q10 0 10 24v60q0 25 -10 24h-737q-10 0 -11 -24v-60zM102 1096q0 -23 11 -23h737q10 0 10 23v61q0 23 -10 23h-737q-10 0 -11 -23v-61zM102 1217q0 -25 11 -25h737 q10 0 10 25v59q0 25 -10 24h-737q-10 0 -11 -24v-59zM287 614q0 -23 10 -22h553q10 0 10 22v62q0 25 -10 24h-553q-10 0 -10 -24v-62zM655 254q0 -23 11 -23h368q10 0 10 23v61q0 23 -10 23h-368q-10 0 -11 -23v-61zM655 375q0 -25 11 -25h368q10 0 10 25v59q0 25 -10 25 h-368q-10 0 -11 -25v-59zM655 496q0 -25 11 -25h368q10 0 10 25v59q0 25 -10 25h-368q-10 0 -11 -25v-59zM655 735q0 -25 11 -24h368q10 0 10 24v62q0 23 -10 22h-368q-10 0 -11 -22v-62zM655 856q0 -25 11 -25h368q10 0 10 25v59q0 25 -10 25h-368q-10 0 -11 -25v-59z M655 977q0 -25 11 -25h368q10 0 10 25v59q0 25 -10 25h-368q-10 0 -11 -25v-59z" />
<glyph unicode="&#xb4;" horiz-adv-x="757" d="M92 1274q0 -23 10 -23h369q10 0 10 23v53q0 23 -10 23h-369q-10 0 -10 -23v-53zM276 1382q0 -23 11 -22h368q10 0 11 22v54q0 20 -11 20h-368q-10 0 -11 -20v-54z" />
<glyph unicode="&#xb5;" horiz-adv-x="1329" d="M92 -45v-59q0 -25 10 -25h369q10 0 10 25v59q0 25 -10 25h-369q-10 0 -10 -25zM92 -164v-61q0 -23 10 -23h369q10 0 10 23v61q0 25 -10 25h-369q-10 0 -10 -25zM92 -285v-59q0 -25 10 -25h369q10 0 10 25v59q0 25 -10 25h-369q-10 0 -10 -25zM94 254q0 -23 10 -23h369 q10 0 10 23v61q0 23 -10 23h-369q-10 0 -10 -23v-61zM94 375q0 -25 10 -25h369q10 0 10 25v59q0 25 -10 25h-369q-10 0 -10 -25v-59zM94 496q0 -25 10 -25h369q10 0 10 25v59q0 25 -10 25h-369q-10 0 -10 -25v-59zM94 614q0 -23 10 -22h369q10 0 10 22v62q0 25 -10 24h-369 q-10 0 -10 -24v-62zM94 735q0 -25 10 -24h369q10 0 10 24v60q0 25 -10 24h-369q-10 0 -10 -24v-60zM94 856q0 -25 10 -25h369q10 0 10 25v59q0 25 -10 25h-369q-10 0 -10 -25v-59zM279 14q0 -25 10 -24h938q10 0 10 24v60q0 25 -10 24h-938q-10 0 -10 -24v-60zM279 135 q0 -25 10 -24h938q10 0 10 24v60q0 25 -10 24h-938q-10 0 -10 -24v-60zM737 254q0 -23 11 -23h368q10 0 10 23v61q0 23 -10 23h-368q-10 0 -11 -23v-61zM737 375q0 -25 11 -25h368q10 0 10 25v59q0 25 -10 25h-368q-10 0 -11 -25v-59zM737 496q0 -25 11 -25h368q10 0 10 25 v59q0 25 -10 25h-368q-10 0 -11 -25v-59zM737 614q0 -23 11 -22h368q10 0 10 22v62q0 25 -10 24h-368q-10 0 -11 -24v-62zM737 735q0 -25 11 -24h368q10 0 10 24v60q0 25 -10 24h-368q-10 0 -11 -24v-60zM737 856q0 -25 11 -25h368q10 0 10 25v59q0 25 -10 25h-368 q-10 0 -11 -25v-59z" />
<glyph unicode="&#xb6;" d="M92 555q0 -25 10 -25h793q10 0 10 25v59q0 25 -10 25h-793q-10 0 -10 -25v-59zM92 676q0 -25 10 -25h793q10 0 10 25v59q0 25 -10 25h-793q-10 0 -10 -25v-59zM92 797q0 -25 10 -25h793q10 0 10 25v59q0 25 -10 25h-793q-10 0 -10 -25v-59zM276 434q0 -23 11 -22h608 q10 0 10 22v62q0 23 -10 22h-608q-10 0 -11 -22v-62zM276 915q0 -25 11 -24h921q10 0 11 24v62q0 23 -11 22h-921q-10 0 -11 -22v-62zM399 315q0 -25 11 -24h485q10 0 10 24v60q0 25 -10 24h-485q-10 0 -11 -24v-60zM461 1036q0 -25 10 -24h737q10 0 11 24v60q0 25 -11 24 h-737q-10 0 -10 -24v-60zM539 12v-59q0 -25 10 -25h346q10 0 10 25v59q0 25 -10 25h-346q-10 0 -10 -25zM539 72q0 -25 10 -25h346q10 0 10 25v61q0 23 -10 23h-346q-10 0 -10 -23v-61zM539 -109v-59q0 -25 10 -25h346q10 0 10 25v59q0 25 -10 25h-346q-10 0 -10 -25z M539 193q0 -25 10 -25h346q10 0 10 25v59q0 25 -10 24h-346q-10 0 -10 -24v-59zM1034 14v-61q0 -23 10 -23h164q10 0 11 23v61q0 25 -11 25h-164q-10 0 -10 -25zM1034 74q0 -25 10 -25h164q10 0 11 25v61q0 23 -11 23h-164q-10 0 -10 -23v-61zM1034 -106v-60q0 -25 10 -24 h164q10 0 11 24v60q0 25 -11 24h-164q-10 0 -10 -24zM1034 195q0 -25 10 -25h164q10 0 11 25v59q0 25 -11 25h-164q-10 0 -10 -25v-59zM1034 315q0 -25 10 -24h164q10 0 11 24v60q0 25 -11 24h-164q-10 0 -10 -24v-60zM1034 434q0 -23 10 -22h164q10 0 11 22v62q0 23 -11 22 h-164q-10 0 -10 -22v-62zM1034 555q0 -25 10 -25h164q10 0 11 25v59q0 25 -11 25h-164q-10 0 -10 -25v-59zM1034 676q0 -25 10 -25h164q10 0 11 25v59q0 25 -11 25h-164q-10 0 -10 -25v-59zM1034 797q0 -25 10 -25h164q10 0 11 25v59q0 25 -11 25h-164q-10 0 -10 -25v-59z " />
<glyph unicode="&#xb7;" horiz-adv-x="573" d="M92 475q0 -23 10 -22h369q10 0 10 22v55q0 23 -10 23h-369q-10 0 -10 -23v-55zM92 588q0 -23 10 -23h369q10 0 10 23v55q0 25 -10 25h-369q-10 0 -10 -25v-55zM92 700q0 -23 10 -22h369q10 0 10 22v58q0 23 -10 22h-369q-10 0 -10 -22v-58z" />
<glyph unicode="&#xb8;" horiz-adv-x="757" d="M92 -43v-57q0 -23 10 -23h369q10 0 10 23v57q0 23 -10 23h-369q-10 0 -10 -23zM276 -156v-57q0 -23 11 -23h368q10 0 11 23v57q0 23 -11 23h-368q-10 0 -11 -23zM276 -268v-58q0 -23 11 -22h368q10 0 11 22v58q0 23 -11 22h-368q-10 0 -11 -22z" />
<glyph unicode="&#xb9;" horiz-adv-x="780" d="M102 856q0 -25 11 -25h553q10 0 10 25v59q0 25 -10 25h-553q-10 0 -11 -25v-59zM102 977q0 -25 11 -25h553q10 0 10 25v59q0 25 -10 25h-553q-10 0 -11 -25v-59zM281 14q0 -25 10 -24h377q10 0 10 24v60q0 25 -10 24h-377q-10 0 -10 -24v-60zM281 135q0 -25 10 -24h377 q10 0 10 24v60q0 25 -10 24h-377q-10 0 -10 -24v-60zM283 614q0 -23 10 -22h373q10 0 10 22v62q0 25 -10 24h-373q-10 0 -10 -24v-62zM283 735q0 -25 10 -24h373q10 0 10 24v62q0 23 -10 22h-373q-10 0 -10 -22v-62zM287 254q0 -23 10 -23h369q10 0 10 23v61q0 23 -10 23 h-369q-10 0 -10 -23v-61zM287 375q0 -25 10 -25h369q10 0 10 25v59q0 25 -10 25h-369q-10 0 -10 -25v-59zM287 496q0 -25 10 -25h369q10 0 10 25v59q0 25 -10 25h-369q-10 0 -10 -25v-59zM287 1096q0 -23 10 -23h369q10 0 10 23v61q0 23 -10 23h-369q-10 0 -10 -23v-61z M287 1217q0 -25 10 -25h369q10 0 10 25v59q0 25 -10 24h-369q-10 0 -10 -24v-59z" />
<glyph unicode="&#xba;" horiz-adv-x="1079" d="M102 680q0 -25 9 -25h286q8 0 9 25v59q0 23 -9 23h-286q-8 0 -9 -23v-59zM102 799q0 -25 9 -25h286q8 0 9 25v59q0 23 -9 23h-286q-8 0 -9 -23v-59zM102 918q0 -25 9 -25h286q8 0 9 25v59q0 23 -9 22h-286q-8 0 -9 -22v-59zM246 442q0 -25 8 -24h571q8 0 9 24v60 q0 23 -9 22h-571q-8 0 -8 -22v-60zM246 561q0 -25 8 -24h571q8 0 9 24v60q0 23 -9 22h-571q-8 0 -8 -22v-60zM246 1049q0 -23 8 -23h571q8 0 9 23v59q0 25 -9 25h-571q-8 0 -8 -25v-59zM246 1167q0 -23 8 -22h571q8 0 9 22v60q0 25 -9 24h-571q-8 0 -8 -24v-60zM676 680 q0 -25 8 -25h285q8 0 8 25v59q0 23 -8 23h-285q-8 0 -8 -23v-59zM676 799q0 -25 8 -25h285q8 0 8 25v59q0 23 -8 23h-285q-8 0 -8 -23v-59zM676 918q0 -25 8 -25h285q8 0 8 25v59q0 23 -8 22h-285q-8 0 -8 -22v-59z" />
<glyph unicode="&#xbb;" horiz-adv-x="997" d="M92 252q0 -25 10 -25h185q10 0 10 25v59q0 23 -10 23h-185q-10 0 -10 -23v-59zM92 371q0 -25 10 -25h185q10 0 10 25v59q0 23 -10 23h-185q-10 0 -10 -23v-59zM92 846q0 -25 10 -25h185q10 0 10 25v59q0 23 -10 23h-185q-10 0 -10 -23v-59zM92 965q0 -25 10 -25h185 q10 0 10 25v59q0 23 -10 23h-185q-10 0 -10 -23v-59zM276 489q1 -24 11 -24h184q10 0 10 24v60q0 23 -10 22h-184q-10 0 -11 -22v-60zM276 608q1 -24 11 -24h184q10 0 10 24v60q0 23 -10 22h-184q-10 0 -11 -22v-60zM276 727q1 -25 11 -25h184q10 0 10 25v59q0 23 -10 23 h-184q-10 0 -11 -23v-59zM516 252q0 -25 10 -25h185q10 0 10 25v59q0 23 -10 23h-185q-10 0 -10 -23v-59zM516 371q0 -25 10 -25h185q10 0 10 25v59q0 23 -10 23h-185q-10 0 -10 -23v-59zM516 846q0 -25 10 -25h185q10 0 10 25v59q0 23 -10 23h-185q-10 0 -10 -23v-59z M516 965q0 -25 10 -25h185q10 0 10 25v59q0 23 -10 23h-185q-10 0 -10 -23v-59zM700 489q1 -24 11 -24h184q10 0 10 24v60q0 23 -10 22h-184q-10 0 -11 -22v-60zM700 608q1 -24 11 -24h184q10 0 10 24v60q0 23 -10 22h-184q-10 0 -11 -22v-60zM700 727q1 -25 11 -25h184 q10 0 10 25v59q0 23 -10 23h-184q-10 0 -11 -23v-59z" />
<glyph unicode="&#xbc;" horiz-adv-x="1495" d="M92 14q0 -25 10 -24h369q10 0 10 24v60q0 24 -10 24h-369q-10 0 -10 -24v-60zM92 133q0 -23 10 -22h369q10 0 10 22v62q0 22 -10 22h-369q-10 0 -10 -22v-62zM92 254q0 -25 10 -25h369q10 0 10 25v59q0 25 -10 25h-369q-10 0 -10 -25v-59zM92 375q0 -25 10 -25h369 q10 0 10 25v59q0 25 -10 25h-369q-10 0 -10 -25v-59zM92 494q0 -23 10 -23h369q10 0 10 23v61q0 25 -10 25h-369q-10 0 -10 -25v-61zM92 614q0 -25 10 -24h369q10 0 10 24v62q0 22 -10 22h-369q-10 0 -10 -22v-62zM92 735q0 -25 10 -24h369q10 0 10 24v60q0 24 -10 24h-369 q-10 0 -10 -24v-60zM92 856q0 -25 10 -25h369q10 0 10 25v59q0 25 -10 25h-369q-10 0 -10 -25v-59zM276 975q0 -23 11 -23h921q10 0 11 23v61q-1 23 -11 23h-921q-10 0 -11 -23v-61zM461 1096q0 -25 10 -25h184q10 0 11 25v59q-1 25 -11 25h-184q-10 0 -10 -25v-59z M461 1217q0 -25 10 -25h184q10 0 11 25v59q-1 24 -11 24h-184q-10 0 -10 -24v-59zM645 614q0 -25 10 -24h185q10 0 10 24v62q0 22 -10 22h-185q-10 0 -10 -22v-62zM645 735q0 -25 10 -24h185q10 0 10 24v60q0 24 -10 24h-185q-10 0 -10 -24v-60zM645 856q0 -25 10 -25h185 q10 0 10 25v59q0 25 -10 25h-185q-10 0 -10 -25v-59zM829 1096q0 -25 11 -25h184q10 0 10 25v59q0 25 -10 25h-184q-10 0 -11 -25v-59zM829 1217q0 -25 11 -25h184q10 0 10 25v59q0 24 -10 24h-184q-10 0 -11 -24v-59zM1014 14q0 -25 10 -24h369q10 0 10 24v60q0 24 -10 24 h-369q-10 0 -10 -24v-60zM1014 133q0 -23 10 -22h369q10 0 10 22v62q0 22 -10 22h-369q-10 0 -10 -22v-62zM1014 254q0 -25 10 -25h369q10 0 10 25v59q0 25 -10 25h-369q-10 0 -10 -25v-59zM1014 375q0 -25 10 -25h369q10 0 10 25v59q0 25 -10 25h-369q-10 0 -10 -25v-59z M1014 494q0 -23 10 -23h369q10 0 10 23v61q0 25 -10 25h-369q-10 0 -10 -25v-61zM1014 614q0 -25 10 -24h369q10 0 10 24v62q0 22 -10 22h-369q-10 0 -10 -22v-62zM1014 735q0 -25 10 -24h369q10 0 10 24v60q0 24 -10 24h-369q-10 0 -10 -24v-60zM1014 856q0 -25 10 -25h369 q10 0 10 25v59q0 25 -10 25h-369q-10 0 -10 -25v-59z" />
<glyph unicode="&#xbd;" d="M92 14q0 -25 10 -24h369q10 0 10 24v60q0 24 -10 24h-369q-10 0 -10 -24v-60zM92 133q0 -23 10 -22h369q10 0 10 22v62q0 22 -10 22h-369q-10 0 -10 -22v-62zM92 254q0 -25 10 -25h369q10 0 10 25v59q0 25 -10 25h-369q-10 0 -10 -25v-59zM92 375q0 -25 10 -25h369 q10 0 10 25v59q0 25 -10 25h-369q-10 0 -10 -25v-59zM92 494q0 -23 10 -23h369q10 0 10 23v61q0 25 -10 25h-369q-10 0 -10 -25v-61zM92 614q0 -25 10 -24h369q10 0 10 24v62q0 22 -10 22h-369q-10 0 -10 -22v-62zM92 735q0 -25 10 -24h369q10 0 10 24v60q0 24 -10 24h-369 q-10 0 -10 -24v-60zM92 856q0 -25 10 -25h369q10 0 10 25v59q0 25 -10 25h-369q-10 0 -10 -25v-59zM92 975q0 -23 10 -23h369q10 0 10 23v61q0 23 -10 23h-369q-10 0 -10 -23v-61zM276 1096q0 -25 11 -25h737q10 0 10 25v59q0 25 -10 25h-737q-10 0 -11 -25v-59zM276 1217 q0 -25 11 -25h737q10 0 10 25v59q0 24 -10 24h-737q-10 0 -11 -24v-59zM829 14q0 -25 11 -24h368q10 0 11 24v60q-1 24 -11 24h-368q-10 0 -11 -24v-60zM829 133q0 -23 11 -22h368q10 0 11 22v62q-1 22 -11 22h-368q-10 0 -11 -22v-62zM829 254q0 -25 11 -25h368q10 0 11 25 v59q-1 25 -11 25h-368q-10 0 -11 -25v-59zM829 375q0 -25 11 -25h368q10 0 11 25v59q-1 25 -11 25h-368q-10 0 -11 -25v-59zM829 494q0 -23 11 -23h368q10 0 11 23v61q-1 25 -11 25h-368q-10 0 -11 -25v-61zM829 614q0 -25 11 -24h368q10 0 11 24v62q-1 22 -11 22h-368 q-10 0 -11 -22v-62zM829 735q0 -25 11 -24h368q10 0 11 24v60q-1 24 -11 24h-368q-10 0 -11 -24v-60zM829 856q0 -25 11 -25h368q10 0 11 25v59q-1 25 -11 25h-368q-10 0 -11 -25v-59zM829 975q0 -23 11 -23h368q10 0 11 23v61q-1 23 -11 23h-368q-10 0 -11 -23v-61z" />
<glyph unicode="&#xbe;" d="M92 14q0 -25 10 -24h369q10 0 10 24v60q0 25 -10 24h-369q-10 0 -10 -24v-60zM92 135q0 -25 10 -24h369q10 0 10 24v60q0 25 -10 24h-369q-10 0 -10 -24v-60zM92 254q0 -23 10 -23h369q10 0 10 23v61q0 23 -10 23h-369q-10 0 -10 -23v-61zM92 375q0 -25 10 -25h369 q10 0 10 25v59q0 25 -10 25h-369q-10 0 -10 -25v-59zM92 496q0 -25 10 -25h369q10 0 10 25v59q0 25 -10 25h-369q-10 0 -10 -25v-59zM92 735q0 -25 10 -24h369q10 0 10 24v62q0 23 -10 22h-369q-10 0 -10 -22v-62zM92 856q0 -25 10 -25h369q10 0 10 25v59q0 25 -10 25h-369 q-10 0 -10 -25v-59zM92 977q0 -25 10 -25h369q10 0 10 25v59q0 25 -10 25h-369q-10 0 -10 -25v-59zM92 1096q0 -23 10 -23h369q10 0 10 23v61q0 23 -10 23h-369q-10 0 -10 -23v-61zM92 1217q0 -25 10 -25h369q10 0 10 25v59q0 25 -10 24h-369q-10 0 -10 -24v-59zM270 614 q0 -23 11 -22h751q10 0 10 22v62q0 25 -10 24h-751q-10 0 -11 -24v-62zM829 14q0 -25 11 -24h368q10 0 11 24v60q0 25 -11 24h-368q-10 0 -11 -24v-60zM829 135q0 -25 11 -24h368q10 0 11 24v60q0 25 -11 24h-368q-10 0 -11 -24v-60zM829 254q0 -23 11 -23h368q10 0 11 23 v61q0 23 -11 23h-368q-10 0 -11 -23v-61zM829 375q0 -25 11 -25h368q10 0 11 25v59q0 25 -11 25h-368q-10 0 -11 -25v-59zM829 496q0 -25 11 -25h368q10 0 11 25v59q0 25 -11 25h-368q-10 0 -11 -25v-59zM829 735q0 -25 11 -24h368q10 0 11 24v62q0 23 -11 22h-368 q-10 0 -11 -22v-62zM829 856q0 -25 11 -25h368q10 0 11 25v59q0 25 -11 25h-368q-10 0 -11 -25v-59zM829 977q0 -25 11 -25h368q10 0 11 25v59q0 25 -11 25h-368q-10 0 -11 -25v-59zM829 1096q0 -23 11 -23h368q10 0 11 23v61q0 23 -11 23h-368q-10 0 -11 -23v-61zM829 1217 q0 -25 11 -25h368q10 0 11 25v59q0 25 -11 24h-368q-10 0 -11 -24v-59z" />
<glyph unicode="&#xbf;" d="M92 254q0 -23 10 -23h369q10 0 10 23v61q0 23 -10 23h-369q-10 0 -10 -23v-61zM92 375q0 -25 10 -25h369q10 0 10 25v59q0 25 -10 25h-369q-10 0 -10 -25v-59zM276 14q0 -25 11 -24h737q10 0 10 24v60q0 25 -10 24h-737q-10 0 -11 -24v-60zM276 135q0 -25 11 -24h737 q10 0 10 24v60q0 25 -10 24h-737q-10 0 -11 -24v-60zM461 614q0 -23 10 -22h553q10 0 10 22v62q0 25 -10 24h-553q-10 0 -10 -24v-62zM461 735q0 -25 10 -24h369q10 0 10 24v62q0 23 -10 22h-369q-10 0 -10 -22v-62zM461 977q0 -25 10 -25h369q10 0 10 25v59q0 25 -10 25 h-369q-10 0 -10 -25v-59zM461 1096q0 -23 10 -23h369q10 0 10 23v61q0 23 -10 23h-369q-10 0 -10 -23v-61zM461 1217q0 -25 10 -25h369q10 0 10 25v59q0 25 -10 24h-369q-10 0 -10 -24v-59zM829 254q0 -23 11 -23h368q10 0 11 23v61q0 23 -11 23h-368q-10 0 -11 -23v-61z M829 375q0 -25 11 -25h368q10 0 11 25v59q0 25 -11 25h-368q-10 0 -11 -25v-59zM829 496q0 -25 11 -25h368q10 0 11 25v59q0 25 -11 25h-368q-10 0 -11 -25v-59z" />
<glyph unicode="&#xc0;" d="M92 14q0 -25 10 -24h369q10 0 10 24v60q0 25 -10 24h-369q-10 0 -10 -24v-60zM92 135q0 -25 10 -24h369q10 0 10 24v60q0 25 -10 24h-369q-10 0 -10 -24v-60zM92 256q0 -25 10 -25h369q10 0 10 25v59q0 25 -10 25h-369q-10 0 -10 -25v-59zM92 377q0 -25 10 -25h369 q10 0 10 25v59q0 25 -10 25h-369q-10 0 -10 -25v-59zM92 498q0 -25 10 -25h369q10 0 10 25v59q0 25 -10 25h-369q-10 0 -10 -25v-59zM92 618q0 -25 10 -24h1106q10 0 11 24v60q0 25 -11 24h-1106q-10 0 -10 -24v-60zM92 739q0 -25 10 -24h369q10 0 10 24v60q0 25 -10 24 h-369q-10 0 -10 -24v-60zM92 860q0 -25 10 -24h369q10 0 10 24v60q0 25 -10 24h-369q-10 0 -10 -24v-60zM276 981q0 -25 11 -25h737q10 0 10 25v59q0 25 -10 25h-737q-10 0 -11 -25v-59zM369 1550q0 -25 10 -24h369q10 0 10 24v60q0 25 -10 24h-369q-10 0 -10 -24v-60z M461 1102q0 -25 10 -25h369q10 0 10 25v59q0 25 -10 25h-369q-10 0 -10 -25v-59zM461 1223q0 -25 10 -25h369q10 0 10 25v59q0 25 -10 25h-369q-10 0 -10 -25v-59zM553 1430q0 -25 10 -25h369q10 0 10 25v59q0 25 -10 24h-369q-10 0 -10 -24v-59zM829 14q0 -25 11 -24h368 q10 0 11 24v60q0 25 -11 24h-368q-10 0 -11 -24v-60zM829 135q0 -25 11 -24h368q10 0 11 24v60q0 25 -11 24h-368q-10 0 -11 -24v-60zM829 256q0 -25 11 -25h368q10 0 11 25v59q0 25 -11 25h-368q-10 0 -11 -25v-59zM829 377q0 -25 11 -25h368q10 0 11 25v59q0 25 -11 25 h-368q-10 0 -11 -25v-59zM829 498q0 -25 11 -25h368q10 0 11 25v59q0 25 -11 25h-368q-10 0 -11 -25v-59zM829 739q0 -25 11 -24h368q10 0 11 24v60q0 25 -11 24h-368q-10 0 -11 -24v-60zM829 860q0 -25 11 -24h368q10 0 11 24v60q0 25 -11 24h-368q-10 0 -11 -24v-60z" />
<glyph unicode="&#xc1;" d="M92 14q0 -25 10 -24h369q10 0 10 24v60q0 25 -10 24h-369q-10 0 -10 -24v-60zM92 135q0 -25 10 -24h369q10 0 10 24v60q0 25 -10 24h-369q-10 0 -10 -24v-60zM92 256q0 -25 10 -25h369q10 0 10 25v59q0 25 -10 25h-369q-10 0 -10 -25v-59zM92 377q0 -25 10 -25h369 q10 0 10 25v59q0 25 -10 25h-369q-10 0 -10 -25v-59zM92 498q0 -25 10 -25h369q10 0 10 25v59q0 25 -10 25h-369q-10 0 -10 -25v-59zM92 618q0 -25 10 -24h1106q10 0 11 24v60q0 25 -11 24h-1106q-10 0 -10 -24v-60zM92 739q0 -25 10 -24h369q10 0 10 24v60q0 25 -10 24 h-369q-10 0 -10 -24v-60zM92 860q0 -25 10 -24h369q10 0 10 24v60q0 25 -10 24h-369q-10 0 -10 -24v-60zM276 981q0 -25 11 -25h737q10 0 10 25v59q0 25 -10 25h-737q-10 0 -11 -25v-59zM369 1427q0 -25 10 -24h369q10 0 10 24v60q0 25 -10 24h-369q-10 0 -10 -24v-60z M461 1102q0 -25 10 -25h369q10 0 10 25v59q0 25 -10 25h-369q-10 0 -10 -25v-59zM461 1223q0 -25 10 -25h369q10 0 10 25v59q0 25 -10 25h-369q-10 0 -10 -25v-59zM553 1548q0 -25 10 -24h369q10 0 10 24v60q0 25 -10 24h-369q-10 0 -10 -24v-60zM829 14q0 -25 11 -24h368 q10 0 11 24v60q0 25 -11 24h-368q-10 0 -11 -24v-60zM829 135q0 -25 11 -24h368q10 0 11 24v60q0 25 -11 24h-368q-10 0 -11 -24v-60zM829 256q0 -25 11 -25h368q10 0 11 25v59q0 25 -11 25h-368q-10 0 -11 -25v-59zM829 377q0 -25 11 -25h368q10 0 11 25v59q0 25 -11 25 h-368q-10 0 -11 -25v-59zM829 498q0 -25 11 -25h368q10 0 11 25v59q0 25 -11 25h-368q-10 0 -11 -25v-59zM829 739q0 -25 11 -24h368q10 0 11 24v60q0 25 -11 24h-368q-10 0 -11 -24v-60zM829 860q0 -25 11 -24h368q10 0 11 24v60q0 25 -11 24h-368q-10 0 -11 -24v-60z" />
<glyph unicode="&#xc2;" d="M92 14q0 -25 10 -24h369q10 0 10 24v60q0 25 -10 24h-369q-10 0 -10 -24v-60zM92 135q0 -25 10 -24h369q10 0 10 24v60q0 25 -10 24h-369q-10 0 -10 -24v-60zM92 256q0 -25 10 -25h369q10 0 10 25v59q0 25 -10 25h-369q-10 0 -10 -25v-59zM92 377q0 -25 10 -25h369 q10 0 10 25v59q0 25 -10 25h-369q-10 0 -10 -25v-59zM92 498q0 -25 10 -25h369q10 0 10 25v59q0 25 -10 25h-369q-10 0 -10 -25v-59zM92 618q0 -25 10 -24h1106q10 0 11 24v60q0 25 -11 24h-1106q-10 0 -10 -24v-60zM92 739q0 -25 10 -24h369q10 0 10 24v60q0 25 -10 24 h-369q-10 0 -10 -24v-60zM92 860q0 -25 10 -24h369q10 0 10 24v60q0 25 -10 24h-369q-10 0 -10 -24v-60zM276 981q0 -25 11 -25h737q10 0 10 25v59q0 25 -10 25h-737q-10 0 -11 -25v-59zM276 1425q0 -25 11 -24h184q10 0 10 24v60q0 25 -10 24h-184q-10 0 -11 -24v-60z M461 1102q0 -25 10 -25h369q10 0 10 25v59q0 25 -10 25h-369q-10 0 -10 -25v-59zM461 1223q0 -25 10 -25h369q10 0 10 25v59q0 25 -10 25h-369q-10 0 -10 -25v-59zM461 1546q0 -25 10 -24h369q10 0 10 24v60q0 25 -10 24h-369q-10 0 -10 -24v-60zM829 14q0 -25 11 -24h368 q10 0 11 24v60q0 25 -11 24h-368q-10 0 -11 -24v-60zM829 135q0 -25 11 -24h368q10 0 11 24v60q0 25 -11 24h-368q-10 0 -11 -24v-60zM829 256q0 -25 11 -25h368q10 0 11 25v59q0 25 -11 25h-368q-10 0 -11 -25v-59zM829 377q0 -25 11 -25h368q10 0 11 25v59q0 25 -11 25 h-368q-10 0 -11 -25v-59zM829 498q0 -25 11 -25h368q10 0 11 25v59q0 25 -11 25h-368q-10 0 -11 -25v-59zM829 739q0 -25 11 -24h368q10 0 11 24v60q0 25 -11 24h-368q-10 0 -11 -24v-60zM829 860q0 -25 11 -24h368q10 0 11 24v60q0 25 -11 24h-368q-10 0 -11 -24v-60z M829 1425q0 -25 11 -24h184q10 0 10 24v60q0 25 -10 24h-184q-10 0 -11 -24v-60z" />
<glyph unicode="&#xc3;" d="M92 14q0 -25 10 -24h369q10 0 10 24v60q0 25 -10 24h-369q-10 0 -10 -24v-60zM92 135q0 -25 10 -24h369q10 0 10 24v60q0 25 -10 24h-369q-10 0 -10 -24v-60zM92 256q0 -25 10 -25h369q10 0 10 25v59q0 25 -10 25h-369q-10 0 -10 -25v-59zM92 377q0 -25 10 -25h369 q10 0 10 25v59q0 25 -10 25h-369q-10 0 -10 -25v-59zM92 498q0 -25 10 -25h369q10 0 10 25v59q0 25 -10 25h-369q-10 0 -10 -25v-59zM92 618q0 -25 10 -24h1106q10 0 11 24v60q0 25 -11 24h-1106q-10 0 -10 -24v-60zM92 739q0 -25 10 -24h369q10 0 10 24v60q0 25 -10 24 h-369q-10 0 -10 -24v-60zM92 860q0 -25 10 -24h369q10 0 10 24v60q0 25 -10 24h-369q-10 0 -10 -24v-60zM276 981q0 -25 11 -25h737q10 0 10 25v59q0 25 -10 25h-737q-10 0 -11 -25v-59zM276 1425q0 -25 11 -24h184q10 0 10 24v60q0 25 -10 24h-184q-10 0 -11 -24v-60z M461 1102q0 -25 10 -25h369q10 0 10 25v59q0 25 -10 25h-369q-10 0 -10 -25v-59zM461 1223q0 -25 10 -25h369q10 0 10 25v59q0 25 -10 25h-369q-10 0 -10 -25v-59zM461 1546q0 -25 10 -24h184q10 0 11 24v60q0 25 -11 24h-184q-10 0 -10 -24v-60zM645 1425q0 -25 10 -24h185 q10 0 10 24v60q0 25 -10 24h-185q-10 0 -10 -24v-60zM829 14q0 -25 11 -24h368q10 0 11 24v60q0 25 -11 24h-368q-10 0 -11 -24v-60zM829 135q0 -25 11 -24h368q10 0 11 24v60q0 25 -11 24h-368q-10 0 -11 -24v-60zM829 256q0 -25 11 -25h368q10 0 11 25v59q0 25 -11 25 h-368q-10 0 -11 -25v-59zM829 377q0 -25 11 -25h368q10 0 11 25v59q0 25 -11 25h-368q-10 0 -11 -25v-59zM829 498q0 -25 11 -25h368q10 0 11 25v59q0 25 -11 25h-368q-10 0 -11 -25v-59zM829 739q0 -25 11 -24h368q10 0 11 24v60q0 25 -11 24h-368q-10 0 -11 -24v-60z M829 860q0 -25 11 -24h368q10 0 11 24v60q0 25 -11 24h-368q-10 0 -11 -24v-60zM829 1546q0 -25 11 -24h184q10 0 10 24v60q0 25 -10 24h-184q-10 0 -11 -24v-60z" />
<glyph unicode="&#xc4;" d="M92 14q0 -25 10 -24h369q10 0 10 24v60q0 25 -10 24h-369q-10 0 -10 -24v-60zM92 135q0 -25 10 -24h369q10 0 10 24v60q0 25 -10 24h-369q-10 0 -10 -24v-60zM92 256q0 -25 10 -25h369q10 0 10 25v59q0 25 -10 25h-369q-10 0 -10 -25v-59zM92 377q0 -25 10 -25h369 q10 0 10 25v59q0 25 -10 25h-369q-10 0 -10 -25v-59zM92 498q0 -25 10 -25h369q10 0 10 25v59q0 25 -10 25h-369q-10 0 -10 -25v-59zM92 618q0 -25 10 -24h1106q10 0 11 24v60q0 25 -11 24h-1106q-10 0 -10 -24v-60zM92 739q0 -25 10 -24h369q10 0 10 24v60q0 25 -10 24 h-369q-10 0 -10 -24v-60zM92 860q0 -25 10 -24h369q10 0 10 24v60q0 25 -10 24h-369q-10 0 -10 -24v-60zM276 981q0 -25 11 -25h737q10 0 10 25v59q0 25 -10 25h-737q-10 0 -11 -25v-59zM276 1430q0 -25 11 -25h184q10 0 10 25v59q0 25 -10 24h-184q-10 0 -11 -24v-59z M276 1550q0 -25 11 -24h184q10 0 10 24v60q0 25 -10 24h-184q-10 0 -11 -24v-60zM461 1102q0 -25 10 -25h369q10 0 10 25v59q0 25 -10 25h-369q-10 0 -10 -25v-59zM461 1223q0 -25 10 -25h369q10 0 10 25v59q0 25 -10 25h-369q-10 0 -10 -25v-59zM829 14q0 -25 11 -24h368 q10 0 11 24v60q0 25 -11 24h-368q-10 0 -11 -24v-60zM829 135q0 -25 11 -24h368q10 0 11 24v60q0 25 -11 24h-368q-10 0 -11 -24v-60zM829 256q0 -25 11 -25h368q10 0 11 25v59q0 25 -11 25h-368q-10 0 -11 -25v-59zM829 377q0 -25 11 -25h368q10 0 11 25v59q0 25 -11 25 h-368q-10 0 -11 -25v-59zM829 498q0 -25 11 -25h368q10 0 11 25v59q0 25 -11 25h-368q-10 0 -11 -25v-59zM829 739q0 -25 11 -24h368q10 0 11 24v60q0 25 -11 24h-368q-10 0 -11 -24v-60zM829 860q0 -25 11 -24h368q10 0 11 24v60q0 25 -11 24h-368q-10 0 -11 -24v-60z M829 1430q0 -25 11 -25h184q10 0 10 25v59q0 25 -10 24h-184q-10 0 -11 -24v-59zM829 1550q0 -25 11 -24h184q10 0 10 24v60q0 25 -10 24h-184q-10 0 -11 -24v-60z" />
<glyph unicode="&#xc5;" d="M92 14q0 -25 10 -24h369q10 0 10 24v60q0 25 -10 24h-369q-10 0 -10 -24v-60zM92 135q0 -25 10 -24h369q10 0 10 24v60q0 25 -10 24h-369q-10 0 -10 -24v-60zM92 256q0 -25 10 -25h369q10 0 10 25v59q0 25 -10 25h-369q-10 0 -10 -25v-59zM92 377q0 -25 10 -25h369 q10 0 10 25v61q0 23 -10 23h-369q-10 0 -10 -23v-61zM92 498q0 -25 10 -25h369q10 0 10 25v61q0 23 -10 23h-369q-10 0 -10 -23v-61zM92 618q0 -25 10 -24h1106q10 0 11 24v62q0 23 -11 22h-1106q-10 0 -10 -22v-62zM92 739q0 -25 10 -24h369q10 0 10 24v62q0 23 -10 22 h-369q-10 0 -10 -22v-62zM92 860q0 -25 10 -24h369q10 0 10 24v62q0 23 -10 22h-369q-10 0 -10 -22v-62zM276 981q0 -25 11 -25h737q10 0 10 25v61q0 25 -10 25h-737q-10 0 -11 -25v-61zM369 1544q0 -25 10 -24h184q10 0 10 24v60q0 25 -10 24h-184q-10 0 -10 -24v-60z M461 1102q0 -25 10 -25h369q10 0 10 25v61q0 25 -10 25h-369q-10 0 -10 -25v-61zM461 1223q0 -25 10 -25h369q10 0 10 25v61q0 25 -10 25h-369q-10 0 -10 -25v-61zM553 1423q0 -25 10 -24h185q10 0 10 24v60q0 25 -10 24h-185q-10 0 -10 -24v-60zM553 1665q0 -25 10 -25h185 q10 0 10 25v59q0 25 -10 25h-185q-10 0 -10 -25v-59zM737 1544q0 -25 11 -24h184q10 0 10 24v60q0 25 -10 24h-184q-10 0 -11 -24v-60zM829 14q0 -25 11 -24h368q10 0 11 24v60q0 25 -11 24h-368q-10 0 -11 -24v-60zM829 135q0 -25 11 -24h368q10 0 11 24v60q0 25 -11 24 h-368q-10 0 -11 -24v-60zM829 256q0 -25 11 -25h368q10 0 11 25v59q0 25 -11 25h-368q-10 0 -11 -25v-59zM829 377q0 -25 11 -25h368q10 0 11 25v61q0 23 -11 23h-368q-10 0 -11 -23v-61zM829 498q0 -25 11 -25h368q10 0 11 25v61q0 23 -11 23h-368q-10 0 -11 -23v-61z M829 739q0 -25 11 -24h368q10 0 11 24v62q0 23 -11 22h-368q-10 0 -11 -22v-62zM829 860q0 -25 11 -24h368q10 0 11 24v62q0 23 -11 22h-368q-10 0 -11 -22v-62z" />
<glyph unicode="&#xc6;" horiz-adv-x="1863" d="M92 14q0 -25 10 -24h369q10 0 10 24v60q0 25 -10 24h-369q-10 0 -10 -24v-60zM92 135q0 -25 10 -24h369q10 0 10 24v60q0 25 -10 24h-369q-10 0 -10 -24v-60zM92 254q0 -23 10 -23h369q10 0 10 23v61q0 23 -10 23h-369q-10 0 -10 -23v-61zM92 375q0 -25 10 -25h369 q10 0 10 25v59q0 25 -10 25h-369q-10 0 -10 -25v-59zM92 496q0 -25 10 -25h369q10 0 10 25v59q0 25 -10 25h-369q-10 0 -10 -25v-59zM92 614q0 -23 10 -22h1475q10 0 10 22v62q0 25 -10 24h-1475q-10 0 -10 -24v-62zM92 735q0 -25 10 -24h369q10 0 10 24v62q0 23 -10 22 h-369q-10 0 -10 -22v-62zM92 856q0 -25 10 -25h369q10 0 10 25v59q0 25 -10 25h-369q-10 0 -10 -25v-59zM276 977q0 -25 11 -25h921q10 0 11 25v59q0 25 -11 25h-921q-10 0 -11 -25v-59zM461 1096q0 -23 10 -23h1290q10 0 11 23v61q0 23 -11 23h-1290q-10 0 -10 -23v-61z M461 1217q0 -25 10 -25h1290q10 0 11 25v59q0 25 -11 24h-1290q-10 0 -10 -24v-59zM829 14q0 -25 11 -24h921q10 0 11 24v60q0 25 -11 24h-921q-10 0 -11 -24v-60zM829 135q0 -25 11 -24h921q10 0 11 24v60q0 25 -11 24h-921q-10 0 -11 -24v-60zM829 254q0 -23 11 -23h368 q10 0 11 23v61q0 23 -11 23h-368q-10 0 -11 -23v-61zM829 375q0 -25 11 -25h368q10 0 11 25v59q0 25 -11 25h-368q-10 0 -11 -25v-59zM829 496q0 -25 11 -25h368q10 0 11 25v59q0 25 -11 25h-368q-10 0 -11 -25v-59zM829 735q0 -25 11 -24h368q10 0 11 24v62q0 23 -11 22 h-368q-10 0 -11 -22v-62zM829 856q0 -25 11 -25h368q10 0 11 25v59q0 25 -11 25h-368q-10 0 -11 -25v-59z" />
<glyph unicode="&#xc7;" horiz-adv-x="1126" d="M92 256q0 -25 10 -25h369q10 0 10 25v59q0 25 -10 25h-369q-10 0 -10 -25v-59zM92 377q0 -25 10 -25h369q10 0 10 25v59q0 25 -10 25h-369q-10 0 -10 -25v-59zM92 498q0 -25 10 -25h369q10 0 10 25v59q0 25 -10 25h-369q-10 0 -10 -25v-59zM92 618q0 -25 10 -24h369 q10 0 10 24v60q0 25 -10 24h-369q-10 0 -10 -24v-60zM92 739q0 -25 10 -24h369q10 0 10 24v60q0 25 -10 24h-369q-10 0 -10 -24v-60zM92 860q0 -25 10 -24h369q10 0 10 24v60q0 25 -10 24h-369q-10 0 -10 -24v-60zM92 981q0 -25 10 -25h369q10 0 10 25v59q0 25 -10 25h-369 q-10 0 -10 -25v-59zM276 -47v-59q0 -25 11 -25h368q10 0 11 25v59q0 25 -11 24h-368q-10 0 -11 -24zM276 135q0 -25 11 -24h737q10 0 10 24v60q0 25 -10 24h-737q-10 0 -11 -24v-60zM276 1102q0 -25 11 -25h737q10 0 10 25v59q0 25 -10 25h-737q-10 0 -11 -25v-59zM461 14 q0 -25 10 -24h553q10 0 10 24v60q0 25 -10 24h-553q-10 0 -10 -24v-60zM461 -168v-59q0 -25 10 -25h369q10 0 10 25v59q0 25 -10 25h-369q-10 0 -10 -25zM461 -289v-59q0 -25 10 -25h369q10 0 10 25v59q0 25 -10 25h-369q-10 0 -10 -25zM461 1223q0 -25 10 -25h553 q10 0 10 25v59q0 25 -10 25h-553q-10 0 -10 -25v-59z" />
<glyph unicode="&#xc8;" horiz-adv-x="1126" d="M92 14q0 -25 10 -24h922q10 0 10 24v60q0 25 -10 24h-922q-10 0 -10 -24v-60zM92 135q0 -25 10 -24h922q10 0 10 24v60q0 25 -10 24h-922q-10 0 -10 -24v-60zM92 256q0 -25 10 -25h369q10 0 10 25v59q0 25 -10 25h-369q-10 0 -10 -25v-59zM92 377q0 -25 10 -25h369 q10 0 10 25v59q0 25 -10 25h-369q-10 0 -10 -25v-59zM92 498q0 -25 10 -25h369q10 0 10 25v59q0 25 -10 25h-369q-10 0 -10 -25v-59zM92 618q0 -25 10 -24h738q10 0 10 24v60q0 25 -10 24h-738q-10 0 -10 -24v-60zM92 739q0 -25 10 -24h369q10 0 10 24v60q0 25 -10 24h-369 q-10 0 -10 -24v-60zM92 860q0 -25 10 -24h369q10 0 10 24v60q0 25 -10 24h-369q-10 0 -10 -24v-60zM92 981q0 -25 10 -25h369q10 0 10 25v59q0 25 -10 25h-369q-10 0 -10 -25v-59zM92 1102q0 -25 10 -25h922q10 0 10 25v59q0 25 -10 25h-922q-10 0 -10 -25v-59zM92 1223 q0 -25 10 -25h922q10 0 10 25v59q0 25 -10 25h-922q-10 0 -10 -25v-59zM276 1550q0 -25 11 -24h368q10 0 11 24v60q0 25 -11 24h-368q-10 0 -11 -24v-60zM461 1430q0 -25 10 -25h369q10 0 10 25v59q0 25 -10 24h-369q-10 0 -10 -24v-59z" />
<glyph unicode="&#xc9;" horiz-adv-x="1126" d="M92 14q0 -25 10 -24h922q10 0 10 24v60q0 25 -10 24h-922q-10 0 -10 -24v-60zM92 135q0 -25 10 -24h922q10 0 10 24v60q0 25 -10 24h-922q-10 0 -10 -24v-60zM92 256q0 -25 10 -25h369q10 0 10 25v59q0 25 -10 25h-369q-10 0 -10 -25v-59zM92 377q0 -25 10 -25h369 q10 0 10 25v59q0 25 -10 25h-369q-10 0 -10 -25v-59zM92 498q0 -25 10 -25h369q10 0 10 25v59q0 25 -10 25h-369q-10 0 -10 -25v-59zM92 618q0 -25 10 -24h738q10 0 10 24v60q0 25 -10 24h-738q-10 0 -10 -24v-60zM92 739q0 -25 10 -24h369q10 0 10 24v60q0 25 -10 24h-369 q-10 0 -10 -24v-60zM92 860q0 -25 10 -24h369q10 0 10 24v60q0 25 -10 24h-369q-10 0 -10 -24v-60zM92 981q0 -25 10 -25h369q10 0 10 25v59q0 25 -10 25h-369q-10 0 -10 -25v-59zM92 1102q0 -25 10 -25h922q10 0 10 25v59q0 25 -10 25h-922q-10 0 -10 -25v-59zM92 1223 q0 -25 10 -25h922q10 0 10 25v59q0 25 -10 25h-922q-10 0 -10 -25v-59zM276 1427q0 -25 11 -24h368q10 0 11 24v60q0 25 -11 24h-368q-10 0 -11 -24v-60zM461 1548q0 -25 10 -24h369q10 0 10 24v60q0 25 -10 24h-369q-10 0 -10 -24v-60z" />
<glyph unicode="&#xca;" horiz-adv-x="1126" d="M92 14q0 -25 10 -24h922q10 0 10 24v60q0 25 -10 24h-922q-10 0 -10 -24v-60zM92 135q0 -25 10 -24h922q10 0 10 24v60q0 25 -10 24h-922q-10 0 -10 -24v-60zM92 256q0 -25 10 -25h369q10 0 10 25v59q0 25 -10 25h-369q-10 0 -10 -25v-59zM92 377q0 -25 10 -25h369 q10 0 10 25v59q0 25 -10 25h-369q-10 0 -10 -25v-59zM92 498q0 -25 10 -25h369q10 0 10 25v59q0 25 -10 25h-369q-10 0 -10 -25v-59zM92 618q0 -25 10 -24h738q10 0 10 24v60q0 25 -10 24h-738q-10 0 -10 -24v-60zM92 739q0 -25 10 -24h369q10 0 10 24v60q0 25 -10 24h-369 q-10 0 -10 -24v-60zM92 860q0 -25 10 -24h369q10 0 10 24v60q0 25 -10 24h-369q-10 0 -10 -24v-60zM92 981q0 -25 10 -25h369q10 0 10 25v59q0 25 -10 25h-369q-10 0 -10 -25v-59zM92 1102q0 -25 10 -25h922q10 0 10 25v59q0 25 -10 25h-922q-10 0 -10 -25v-59zM92 1223 q0 -25 10 -25h922q10 0 10 25v59q0 25 -10 25h-922q-10 0 -10 -25v-59zM184 1425q0 -25 11 -24h184q10 0 10 24v60q0 25 -10 24h-184q-10 0 -11 -24v-60zM369 1546q0 -25 10 -24h369q10 0 10 24v60q0 25 -10 24h-369q-10 0 -10 -24v-60zM737 1425q0 -25 11 -24h184 q10 0 10 24v60q0 25 -10 24h-184q-10 0 -11 -24v-60z" />
<glyph unicode="&#xcb;" horiz-adv-x="1126" d="M92 14q0 -25 10 -24h922q10 0 10 24v60q0 25 -10 24h-922q-10 0 -10 -24v-60zM92 135q0 -25 10 -24h922q10 0 10 24v60q0 25 -10 24h-922q-10 0 -10 -24v-60zM92 256q0 -25 10 -25h369q10 0 10 25v59q0 25 -10 25h-369q-10 0 -10 -25v-59zM92 377q0 -25 10 -25h369 q10 0 10 25v59q0 25 -10 25h-369q-10 0 -10 -25v-59zM92 498q0 -25 10 -25h369q10 0 10 25v59q0 25 -10 25h-369q-10 0 -10 -25v-59zM92 618q0 -25 10 -24h738q10 0 10 24v60q0 25 -10 24h-738q-10 0 -10 -24v-60zM92 739q0 -25 10 -24h369q10 0 10 24v60q0 25 -10 24h-369 q-10 0 -10 -24v-60zM92 860q0 -25 10 -24h369q10 0 10 24v60q0 25 -10 24h-369q-10 0 -10 -24v-60zM92 981q0 -25 10 -25h369q10 0 10 25v59q0 25 -10 25h-369q-10 0 -10 -25v-59zM92 1102q0 -25 10 -25h922q10 0 10 25v59q0 25 -10 25h-922q-10 0 -10 -25v-59zM92 1223 q0 -25 10 -25h922q10 0 10 25v59q0 25 -10 25h-922q-10 0 -10 -25v-59zM184 1430q0 -25 11 -25h184q10 0 10 25v59q0 25 -10 24h-184q-10 0 -11 -24v-59zM184 1550q0 -25 11 -24h184q10 0 10 24v60q0 25 -10 24h-184q-10 0 -11 -24v-60zM737 1430q0 -25 11 -25h184 q10 0 10 25v59q0 25 -10 24h-184q-10 0 -11 -24v-59zM737 1550q0 -25 11 -24h184q10 0 10 24v60q0 25 -10 24h-184q-10 0 -11 -24v-60z" />
<glyph unicode="&#xcc;" d="M92 14q0 -25 10 -24h1106q10 0 11 24v60q0 25 -11 24h-1106q-10 0 -10 -24v-60zM92 135q0 -25 10 -24h1106q10 0 11 24v60q0 25 -11 24h-1106q-10 0 -10 -24v-60zM92 1102q0 -25 10 -25h1106q10 0 11 25v59q0 25 -11 25h-1106q-10 0 -10 -25v-59zM92 1223q0 -25 10 -25 h1106q10 0 11 25v59q0 25 -11 25h-1106q-10 0 -10 -25v-59zM369 1550q0 -25 10 -24h369q10 0 10 24v60q0 25 -10 24h-369q-10 0 -10 -24v-60zM461 256q0 -25 10 -25h369q10 0 10 25v59q0 25 -10 25h-369q-10 0 -10 -25v-59zM461 377q0 -25 10 -25h369q10 0 10 25v59 q0 25 -10 25h-369q-10 0 -10 -25v-59zM461 498q0 -25 10 -25h369q10 0 10 25v59q0 25 -10 25h-369q-10 0 -10 -25v-59zM461 618q0 -25 10 -24h369q10 0 10 24v60q0 25 -10 24h-369q-10 0 -10 -24v-60zM461 739q0 -25 10 -24h369q10 0 10 24v60q0 25 -10 24h-369 q-10 0 -10 -24v-60zM461 860q0 -25 10 -24h369q10 0 10 24v60q0 25 -10 24h-369q-10 0 -10 -24v-60zM461 981q0 -25 10 -25h369q10 0 10 25v59q0 25 -10 25h-369q-10 0 -10 -25v-59zM553 1430q0 -25 10 -25h369q10 0 10 25v59q0 25 -10 24h-369q-10 0 -10 -24v-59z" />
<glyph unicode="&#xcd;" d="M92 14q0 -25 10 -24h1106q10 0 11 24v60q0 25 -11 24h-1106q-10 0 -10 -24v-60zM92 135q0 -25 10 -24h1106q10 0 11 24v60q0 25 -11 24h-1106q-10 0 -10 -24v-60zM92 1102q0 -25 10 -25h1106q10 0 11 25v59q0 25 -11 25h-1106q-10 0 -10 -25v-59zM92 1223q0 -25 10 -25 h1106q10 0 11 25v59q0 25 -11 25h-1106q-10 0 -10 -25v-59zM369 1427q0 -25 10 -24h369q10 0 10 24v60q0 25 -10 24h-369q-10 0 -10 -24v-60zM461 256q0 -25 10 -25h369q10 0 10 25v59q0 25 -10 25h-369q-10 0 -10 -25v-59zM461 377q0 -25 10 -25h369q10 0 10 25v59 q0 25 -10 25h-369q-10 0 -10 -25v-59zM461 498q0 -25 10 -25h369q10 0 10 25v59q0 25 -10 25h-369q-10 0 -10 -25v-59zM461 618q0 -25 10 -24h369q10 0 10 24v60q0 25 -10 24h-369q-10 0 -10 -24v-60zM461 739q0 -25 10 -24h369q10 0 10 24v60q0 25 -10 24h-369 q-10 0 -10 -24v-60zM461 860q0 -25 10 -24h369q10 0 10 24v60q0 25 -10 24h-369q-10 0 -10 -24v-60zM461 981q0 -25 10 -25h369q10 0 10 25v59q0 25 -10 25h-369q-10 0 -10 -25v-59zM553 1548q0 -25 10 -24h369q10 0 10 24v60q0 25 -10 24h-369q-10 0 -10 -24v-60z" />
<glyph unicode="&#xce;" d="M92 14q0 -25 10 -24h1106q10 0 11 24v60q0 25 -11 24h-1106q-10 0 -10 -24v-60zM92 135q0 -25 10 -24h1106q10 0 11 24v60q0 25 -11 24h-1106q-10 0 -10 -24v-60zM92 1102q0 -25 10 -25h1106q10 0 11 25v59q0 25 -11 25h-1106q-10 0 -10 -25v-59zM92 1223q0 -25 10 -25 h1106q10 0 11 25v59q0 25 -11 25h-1106q-10 0 -10 -25v-59zM276 1425q0 -25 11 -24h184q10 0 10 24v60q0 25 -10 24h-184q-10 0 -11 -24v-60zM461 256q0 -25 10 -25h369q10 0 10 25v59q0 25 -10 25h-369q-10 0 -10 -25v-59zM461 377q0 -25 10 -25h369q10 0 10 25v59 q0 25 -10 25h-369q-10 0 -10 -25v-59zM461 498q0 -25 10 -25h369q10 0 10 25v59q0 25 -10 25h-369q-10 0 -10 -25v-59zM461 618q0 -25 10 -24h369q10 0 10 24v60q0 25 -10 24h-369q-10 0 -10 -24v-60zM461 739q0 -25 10 -24h369q10 0 10 24v60q0 25 -10 24h-369 q-10 0 -10 -24v-60zM461 860q0 -25 10 -24h369q10 0 10 24v60q0 25 -10 24h-369q-10 0 -10 -24v-60zM461 981q0 -25 10 -25h369q10 0 10 25v59q0 25 -10 25h-369q-10 0 -10 -25v-59zM461 1546q0 -25 10 -24h369q10 0 10 24v60q0 25 -10 24h-369q-10 0 -10 -24v-60zM829 1425 q0 -25 11 -24h184q10 0 10 24v60q0 25 -10 24h-184q-10 0 -11 -24v-60z" />
<glyph unicode="&#xcf;" d="M92 14q0 -25 10 -24h1106q10 0 11 24v60q0 25 -11 24h-1106q-10 0 -10 -24v-60zM92 135q0 -25 10 -24h1106q10 0 11 24v60q0 25 -11 24h-1106q-10 0 -10 -24v-60zM92 1102q0 -25 10 -25h1106q10 0 11 25v59q0 25 -11 25h-1106q-10 0 -10 -25v-59zM92 1223q0 -25 10 -25 h1106q10 0 11 25v59q0 25 -11 25h-1106q-10 0 -10 -25v-59zM276 1430q0 -25 11 -25h184q10 0 10 25v59q0 25 -10 24h-184q-10 0 -11 -24v-59zM276 1550q0 -25 11 -24h184q10 0 10 24v60q0 25 -10 24h-184q-10 0 -11 -24v-60zM461 256q0 -25 10 -25h369q10 0 10 25v59 q0 25 -10 25h-369q-10 0 -10 -25v-59zM461 377q0 -25 10 -25h369q10 0 10 25v59q0 25 -10 25h-369q-10 0 -10 -25v-59zM461 498q0 -25 10 -25h369q10 0 10 25v59q0 25 -10 25h-369q-10 0 -10 -25v-59zM461 618q0 -25 10 -24h369q10 0 10 24v60q0 25 -10 24h-369 q-10 0 -10 -24v-60zM461 739q0 -25 10 -24h369q10 0 10 24v60q0 25 -10 24h-369q-10 0 -10 -24v-60zM461 860q0 -25 10 -24h369q10 0 10 24v60q0 25 -10 24h-369q-10 0 -10 -24v-60zM461 981q0 -25 10 -25h369q10 0 10 25v59q0 25 -10 25h-369q-10 0 -10 -25v-59zM829 1430 q0 -25 11 -25h184q10 0 10 25v59q0 25 -10 24h-184q-10 0 -11 -24v-59zM829 1550q0 -25 11 -24h184q10 0 10 24v60q0 25 -10 24h-184q-10 0 -11 -24v-60z" />
<glyph unicode="&#xd0;" horiz-adv-x="1468" d="M92 614q0 -23 10 -22h656q10 0 10 22v62q0 25 -10 24h-656q-10 0 -10 -24v-62zM250 14q0 -25 10 -24h737q10 0 11 24v60q0 25 -11 24h-737q-10 0 -10 -24v-60zM250 135q0 -25 10 -24h922q10 0 10 24v60q0 25 -10 24h-922q-10 0 -10 -24v-60zM250 254q0 -23 10 -23h369 q10 0 10 23v61q0 23 -10 23h-369q-10 0 -10 -23v-61zM250 375q0 -25 10 -25h369q10 0 10 25v59q0 25 -10 25h-369q-10 0 -10 -25v-59zM250 496q0 -25 10 -25h369q10 0 10 25v59q0 25 -10 25h-369q-10 0 -10 -25v-59zM250 735q0 -25 10 -24h369q10 0 10 24v62q0 23 -10 22 h-369q-10 0 -10 -22v-62zM250 856q0 -25 10 -25h369q10 0 10 25v59q0 25 -10 25h-369q-10 0 -10 -25v-59zM250 977q0 -25 10 -25h369q10 0 10 25v59q0 25 -10 25h-369q-10 0 -10 -25v-59zM250 1096q0 -23 10 -23h922q10 0 10 23v61q0 23 -10 23h-922q-10 0 -10 -23v-61z M250 1217q0 -25 10 -25h737q10 0 11 25v59q0 25 -11 24h-737q-10 0 -10 -24v-59zM803 254q0 -23 10 -23h553q10 0 10 23v61q0 23 -10 23h-553q-10 0 -10 -23v-61zM803 977q0 -25 10 -25h553q10 0 10 25v59q0 25 -10 25h-553q-10 0 -10 -25v-59zM987 375q0 -25 10 -25h369 q10 0 10 25v59q0 25 -10 25h-369q-10 0 -10 -25v-59zM987 496q0 -25 10 -25h369q10 0 10 25v59q0 25 -10 25h-369q-10 0 -10 -25v-59zM987 614q0 -23 10 -22h369q10 0 10 22v62q0 25 -10 24h-369q-10 0 -10 -24v-62zM987 735q0 -25 10 -24h369q10 0 10 24v62q0 23 -10 22 h-369q-10 0 -10 -22v-62zM987 856q0 -25 10 -25h369q10 0 10 25v59q0 25 -10 25h-369q-10 0 -10 -25v-59z" />
<glyph unicode="&#xd1;" d="M92 14q0 -25 10 -24h369q10 0 10 24v60q0 25 -10 24h-369q-10 0 -10 -24v-60zM92 135q0 -25 10 -24h369q10 0 10 24v60q0 25 -10 24h-369q-10 0 -10 -24v-60zM92 256q0 -25 10 -25h369q10 0 10 25v59q0 25 -10 25h-369q-10 0 -10 -25v-59zM92 377q0 -25 10 -25h369 q10 0 10 25v59q0 25 -10 25h-369q-10 0 -10 -25v-59zM92 498q0 -25 10 -25h369q10 0 10 25v59q0 25 -10 25h-369q-10 0 -10 -25v-59zM92 618q0 -25 10 -24h369q10 0 10 24v60q0 25 -10 24h-369q-10 0 -10 -24v-60zM92 739q0 -25 10 -24h1106q10 0 11 24v60q0 25 -11 24 h-1106q-10 0 -10 -24v-60zM92 860q0 -25 10 -24h1106q10 0 11 24v60q0 25 -11 24h-1106q-10 0 -10 -24v-60zM92 981q0 -25 10 -25h553q10 0 11 25v59q0 25 -11 25h-553q-10 0 -10 -25v-59zM92 1102q0 -25 10 -25h369q10 0 10 25v59q0 25 -10 25h-369q-10 0 -10 -25v-59z M92 1223q0 -25 10 -25h369q10 0 10 25v59q0 25 -10 25h-369q-10 0 -10 -25v-59zM276 1425q0 -25 11 -24h184q10 0 10 24v60q0 25 -10 24h-184q-10 0 -11 -24v-60zM461 1546q0 -25 10 -24h184q10 0 11 24v60q0 25 -11 24h-184q-10 0 -10 -24v-60zM645 618q0 -25 10 -24h553 q10 0 11 24v60q0 25 -11 24h-553q-10 0 -10 -24v-60zM645 1425q0 -25 10 -24h185q10 0 10 24v60q0 25 -10 24h-185q-10 0 -10 -24v-60zM829 14q0 -25 11 -24h368q10 0 11 24v60q0 25 -11 24h-368q-10 0 -11 -24v-60zM829 135q0 -25 11 -24h368q10 0 11 24v60q0 25 -11 24 h-368q-10 0 -11 -24v-60zM829 256q0 -25 11 -25h368q10 0 11 25v59q0 25 -11 25h-368q-10 0 -11 -25v-59zM829 377q0 -25 11 -25h368q10 0 11 25v59q0 25 -11 25h-368q-10 0 -11 -25v-59zM829 498q0 -25 11 -25h368q10 0 11 25v59q0 25 -11 25h-368q-10 0 -11 -25v-59z M829 981q0 -25 11 -25h368q10 0 11 25v59q0 25 -11 25h-368q-10 0 -11 -25v-59zM829 1102q0 -25 11 -25h368q10 0 11 25v59q0 25 -11 25h-368q-10 0 -11 -25v-59zM829 1223q0 -25 11 -25h368q10 0 11 25v59q0 25 -11 25h-368q-10 0 -11 -25v-59zM829 1546q0 -25 11 -24h184 q10 0 10 24v60q0 25 -10 24h-184q-10 0 -11 -24v-60z" />
<glyph unicode="&#xd2;" d="M92 256q0 -25 10 -25h369q10 0 10 25v59q0 25 -10 25h-369q-10 0 -10 -25v-59zM92 377q0 -25 10 -25h369q10 0 10 25v59q0 25 -10 25h-369q-10 0 -10 -25v-59zM92 498q0 -25 10 -25h369q10 0 10 25v59q0 25 -10 25h-369q-10 0 -10 -25v-59zM92 618q0 -25 10 -24h369 q10 0 10 24v60q0 25 -10 24h-369q-10 0 -10 -24v-60zM92 739q0 -25 10 -24h369q10 0 10 24v60q0 25 -10 24h-369q-10 0 -10 -24v-60zM92 860q0 -25 10 -24h369q10 0 10 24v60q0 25 -10 24h-369q-10 0 -10 -24v-60zM92 981q0 -25 10 -25h369q10 0 10 25v59q0 25 -10 25h-369 q-10 0 -10 -25v-59zM276 14q0 -25 11 -24h737q10 0 10 24v60q0 25 -10 24h-737q-10 0 -11 -24v-60zM276 135q0 -25 11 -24h737q10 0 10 24v60q0 25 -10 24h-737q-10 0 -11 -24v-60zM276 1102q0 -25 11 -25h737q10 0 10 25v59q0 25 -10 25h-737q-10 0 -11 -25v-59zM276 1223 q0 -25 11 -25h737q10 0 10 25v59q0 25 -10 25h-737q-10 0 -11 -25v-59zM369 1550q0 -25 10 -24h369q10 0 10 24v60q0 25 -10 24h-369q-10 0 -10 -24v-60zM553 1430q0 -25 10 -25h369q10 0 10 25v59q0 25 -10 24h-369q-10 0 -10 -24v-59zM829 256q0 -25 11 -25h368 q10 0 11 25v59q0 25 -11 25h-368q-10 0 -11 -25v-59zM829 377q0 -25 11 -25h368q10 0 11 25v59q0 25 -11 25h-368q-10 0 -11 -25v-59zM829 498q0 -25 11 -25h368q10 0 11 25v59q0 25 -11 25h-368q-10 0 -11 -25v-59zM829 618q0 -25 11 -24h368q10 0 11 24v60q0 25 -11 24 h-368q-10 0 -11 -24v-60zM829 739q0 -25 11 -24h368q10 0 11 24v60q0 25 -11 24h-368q-10 0 -11 -24v-60zM829 860q0 -25 11 -24h368q10 0 11 24v60q0 25 -11 24h-368q-10 0 -11 -24v-60zM829 981q0 -25 11 -25h368q10 0 11 25v59q0 25 -11 25h-368q-10 0 -11 -25v-59z" />
<glyph unicode="&#xd3;" d="M92 256q0 -25 10 -25h369q10 0 10 25v59q0 25 -10 25h-369q-10 0 -10 -25v-59zM92 377q0 -25 10 -25h369q10 0 10 25v59q0 25 -10 25h-369q-10 0 -10 -25v-59zM92 498q0 -25 10 -25h369q10 0 10 25v59q0 25 -10 25h-369q-10 0 -10 -25v-59zM92 618q0 -25 10 -24h369 q10 0 10 24v60q0 25 -10 24h-369q-10 0 -10 -24v-60zM92 739q0 -25 10 -24h369q10 0 10 24v60q0 25 -10 24h-369q-10 0 -10 -24v-60zM92 860q0 -25 10 -24h369q10 0 10 24v60q0 25 -10 24h-369q-10 0 -10 -24v-60zM92 981q0 -25 10 -25h369q10 0 10 25v59q0 25 -10 25h-369 q-10 0 -10 -25v-59zM276 14q0 -25 11 -24h737q10 0 10 24v60q0 25 -10 24h-737q-10 0 -11 -24v-60zM276 135q0 -25 11 -24h737q10 0 10 24v60q0 25 -10 24h-737q-10 0 -11 -24v-60zM276 1102q0 -25 11 -25h737q10 0 10 25v59q0 25 -10 25h-737q-10 0 -11 -25v-59zM276 1223 q0 -25 11 -25h737q10 0 10 25v59q0 25 -10 25h-737q-10 0 -11 -25v-59zM369 1427q0 -25 10 -24h369q10 0 10 24v60q0 25 -10 24h-369q-10 0 -10 -24v-60zM553 1548q0 -25 10 -24h369q10 0 10 24v60q0 25 -10 24h-369q-10 0 -10 -24v-60zM829 256q0 -25 11 -25h368 q10 0 11 25v59q0 25 -11 25h-368q-10 0 -11 -25v-59zM829 377q0 -25 11 -25h368q10 0 11 25v59q0 25 -11 25h-368q-10 0 -11 -25v-59zM829 498q0 -25 11 -25h368q10 0 11 25v59q0 25 -11 25h-368q-10 0 -11 -25v-59zM829 618q0 -25 11 -24h368q10 0 11 24v60q0 25 -11 24 h-368q-10 0 -11 -24v-60zM829 739q0 -25 11 -24h368q10 0 11 24v60q0 25 -11 24h-368q-10 0 -11 -24v-60zM829 860q0 -25 11 -24h368q10 0 11 24v60q0 25 -11 24h-368q-10 0 -11 -24v-60zM829 981q0 -25 11 -25h368q10 0 11 25v59q0 25 -11 25h-368q-10 0 -11 -25v-59z" />
<glyph unicode="&#xd4;" d="M92 256q0 -25 10 -25h369q10 0 10 25v59q0 25 -10 25h-369q-10 0 -10 -25v-59zM92 377q0 -25 10 -25h369q10 0 10 25v59q0 25 -10 25h-369q-10 0 -10 -25v-59zM92 498q0 -25 10 -25h369q10 0 10 25v59q0 25 -10 25h-369q-10 0 -10 -25v-59zM92 618q0 -25 10 -24h369 q10 0 10 24v60q0 25 -10 24h-369q-10 0 -10 -24v-60zM92 739q0 -25 10 -24h369q10 0 10 24v60q0 25 -10 24h-369q-10 0 -10 -24v-60zM92 860q0 -25 10 -24h369q10 0 10 24v60q0 25 -10 24h-369q-10 0 -10 -24v-60zM92 981q0 -25 10 -25h369q10 0 10 25v59q0 25 -10 25h-369 q-10 0 -10 -25v-59zM276 14q0 -25 11 -24h737q10 0 10 24v60q0 25 -10 24h-737q-10 0 -11 -24v-60zM276 135q0 -25 11 -24h737q10 0 10 24v60q0 25 -10 24h-737q-10 0 -11 -24v-60zM276 1102q0 -25 11 -25h737q10 0 10 25v59q0 25 -10 25h-737q-10 0 -11 -25v-59zM276 1223 q0 -25 11 -25h737q10 0 10 25v59q0 25 -10 25h-737q-10 0 -11 -25v-59zM276 1425q0 -25 11 -24h184q10 0 10 24v60q0 25 -10 24h-184q-10 0 -11 -24v-60zM461 1546q0 -25 10 -24h369q10 0 10 24v60q0 25 -10 24h-369q-10 0 -10 -24v-60zM829 256q0 -25 11 -25h368 q10 0 11 25v59q0 25 -11 25h-368q-10 0 -11 -25v-59zM829 377q0 -25 11 -25h368q10 0 11 25v59q0 25 -11 25h-368q-10 0 -11 -25v-59zM829 498q0 -25 11 -25h368q10 0 11 25v59q0 25 -11 25h-368q-10 0 -11 -25v-59zM829 618q0 -25 11 -24h368q10 0 11 24v60q0 25 -11 24 h-368q-10 0 -11 -24v-60zM829 739q0 -25 11 -24h368q10 0 11 24v60q0 25 -11 24h-368q-10 0 -11 -24v-60zM829 860q0 -25 11 -24h368q10 0 11 24v60q0 25 -11 24h-368q-10 0 -11 -24v-60zM829 981q0 -25 11 -25h368q10 0 11 25v59q0 25 -11 25h-368q-10 0 -11 -25v-59z M829 1425q0 -25 11 -24h184q10 0 10 24v60q0 25 -10 24h-184q-10 0 -11 -24v-60z" />
<glyph unicode="&#xd5;" d="M92 256q0 -25 10 -25h369q10 0 10 25v59q0 25 -10 25h-369q-10 0 -10 -25v-59zM92 377q0 -25 10 -25h369q10 0 10 25v59q0 25 -10 25h-369q-10 0 -10 -25v-59zM92 498q0 -25 10 -25h369q10 0 10 25v59q0 25 -10 25h-369q-10 0 -10 -25v-59zM92 618q0 -25 10 -24h369 q10 0 10 24v60q0 25 -10 24h-369q-10 0 -10 -24v-60zM92 739q0 -25 10 -24h369q10 0 10 24v60q0 25 -10 24h-369q-10 0 -10 -24v-60zM92 860q0 -25 10 -24h369q10 0 10 24v60q0 25 -10 24h-369q-10 0 -10 -24v-60zM92 981q0 -25 10 -25h369q10 0 10 25v59q0 25 -10 25h-369 q-10 0 -10 -25v-59zM276 14q0 -25 11 -24h737q10 0 10 24v60q0 25 -10 24h-737q-10 0 -11 -24v-60zM276 135q0 -25 11 -24h737q10 0 10 24v60q0 25 -10 24h-737q-10 0 -11 -24v-60zM276 1102q0 -25 11 -25h737q10 0 10 25v59q0 25 -10 25h-737q-10 0 -11 -25v-59zM276 1223 q0 -25 11 -25h737q10 0 10 25v59q0 25 -10 25h-737q-10 0 -11 -25v-59zM276 1425q0 -25 11 -24h184q10 0 10 24v60q0 25 -10 24h-184q-10 0 -11 -24v-60zM461 1546q0 -25 10 -24h184q10 0 11 24v60q0 25 -11 24h-184q-10 0 -10 -24v-60zM645 1425q0 -25 10 -24h185 q10 0 10 24v60q0 25 -10 24h-185q-10 0 -10 -24v-60zM829 256q0 -25 11 -25h368q10 0 11 25v59q0 25 -11 25h-368q-10 0 -11 -25v-59zM829 377q0 -25 11 -25h368q10 0 11 25v59q0 25 -11 25h-368q-10 0 -11 -25v-59zM829 498q0 -25 11 -25h368q10 0 11 25v59q0 25 -11 25 h-368q-10 0 -11 -25v-59zM829 618q0 -25 11 -24h368q10 0 11 24v60q0 25 -11 24h-368q-10 0 -11 -24v-60zM829 739q0 -25 11 -24h368q10 0 11 24v60q0 25 -11 24h-368q-10 0 -11 -24v-60zM829 860q0 -25 11 -24h368q10 0 11 24v60q0 25 -11 24h-368q-10 0 -11 -24v-60z M829 981q0 -25 11 -25h368q10 0 11 25v59q0 25 -11 25h-368q-10 0 -11 -25v-59zM829 1546q0 -25 11 -24h184q10 0 10 24v60q0 25 -10 24h-184q-10 0 -11 -24v-60z" />
<glyph unicode="&#xd6;" d="M92 256q0 -25 10 -25h369q10 0 10 25v59q0 25 -10 25h-369q-10 0 -10 -25v-59zM92 377q0 -25 10 -25h369q10 0 10 25v59q0 25 -10 25h-369q-10 0 -10 -25v-59zM92 498q0 -25 10 -25h369q10 0 10 25v59q0 25 -10 25h-369q-10 0 -10 -25v-59zM92 618q0 -25 10 -24h369 q10 0 10 24v60q0 25 -10 24h-369q-10 0 -10 -24v-60zM92 739q0 -25 10 -24h369q10 0 10 24v60q0 25 -10 24h-369q-10 0 -10 -24v-60zM92 860q0 -25 10 -24h369q10 0 10 24v60q0 25 -10 24h-369q-10 0 -10 -24v-60zM92 981q0 -25 10 -25h369q10 0 10 25v59q0 25 -10 25h-369 q-10 0 -10 -25v-59zM276 14q0 -25 11 -24h737q10 0 10 24v60q0 25 -10 24h-737q-10 0 -11 -24v-60zM276 135q0 -25 11 -24h737q10 0 10 24v60q0 25 -10 24h-737q-10 0 -11 -24v-60zM276 1102q0 -25 11 -25h737q10 0 10 25v59q0 25 -10 25h-737q-10 0 -11 -25v-59zM276 1223 q0 -25 11 -25h737q10 0 10 25v59q0 25 -10 25h-737q-10 0 -11 -25v-59zM276 1430q0 -25 11 -25h184q10 0 10 25v59q0 25 -10 24h-184q-10 0 -11 -24v-59zM276 1550q0 -25 11 -24h184q10 0 10 24v60q0 25 -10 24h-184q-10 0 -11 -24v-60zM829 256q0 -25 11 -25h368 q10 0 11 25v59q0 25 -11 25h-368q-10 0 -11 -25v-59zM829 377q0 -25 11 -25h368q10 0 11 25v59q0 25 -11 25h-368q-10 0 -11 -25v-59zM829 498q0 -25 11 -25h368q10 0 11 25v59q0 25 -11 25h-368q-10 0 -11 -25v-59zM829 618q0 -25 11 -24h368q10 0 11 24v60q0 25 -11 24 h-368q-10 0 -11 -24v-60zM829 739q0 -25 11 -24h368q10 0 11 24v60q0 25 -11 24h-368q-10 0 -11 -24v-60zM829 860q0 -25 11 -24h368q10 0 11 24v60q0 25 -11 24h-368q-10 0 -11 -24v-60zM829 981q0 -25 11 -25h368q10 0 11 25v59q0 25 -11 25h-368q-10 0 -11 -25v-59z M829 1430q0 -25 11 -25h184q10 0 10 25v59q0 25 -10 24h-184q-10 0 -11 -24v-59zM829 1550q0 -25 11 -24h184q10 0 10 24v60q0 25 -10 24h-184q-10 0 -11 -24v-60z" />
<glyph unicode="&#xd7;" horiz-adv-x="757" d="M92 365q0 -23 10 -23h185q10 0 10 23v59q0 23 -10 22h-185q-10 0 -10 -22v-59zM92 481q0 -23 10 -22h553q10 0 11 22v60q0 23 -11 22h-553q-10 0 -10 -22v-60zM92 717q0 -25 10 -25h553q10 0 11 25v57q0 25 -11 25h-553q-10 0 -10 -25v-57zM92 834q0 -25 10 -25h185 q10 0 10 25v57q0 25 -10 24h-185q-10 0 -10 -24v-57zM276 598q0 -23 11 -23h184q10 0 10 23v59q0 23 -10 23h-184q-10 0 -11 -23v-59zM461 365q0 -23 10 -23h184q10 0 11 23v59q0 23 -11 22h-184q-10 0 -10 -22v-59zM461 834q0 -25 10 -25h184q10 0 11 25v57q0 25 -11 24 h-184q-10 0 -10 -24v-57z" />
<glyph unicode="&#xd8;" d="M92 254q0 -23 10 -23h369q10 0 10 23v61q0 23 -10 23h-369q-10 0 -10 -23v-61zM92 375q0 -25 10 -25h369q10 0 10 25v59q0 25 -10 25h-369q-10 0 -10 -25v-59zM92 496q0 -25 10 -25h369q10 0 10 25v59q0 25 -10 25h-369q-10 0 -10 -25v-59zM92 614q0 -23 10 -22h1106 q10 0 11 22v62q0 25 -11 24h-1106q-10 0 -10 -24v-62zM92 735q0 -25 10 -24h369q10 0 10 24v62q0 23 -10 22h-369q-10 0 -10 -22v-62zM92 856q0 -25 10 -25h369q10 0 10 25v59q0 25 -10 25h-369q-10 0 -10 -25v-59zM92 977q0 -25 10 -25h369q10 0 10 25v59q0 25 -10 25h-369 q-10 0 -10 -25v-59zM276 14q0 -25 11 -24h737q10 0 10 24v60q0 25 -10 24h-737q-10 0 -11 -24v-60zM276 135q0 -25 11 -24h737q10 0 10 24v60q0 25 -10 24h-737q-10 0 -11 -24v-60zM276 1096q0 -23 11 -23h737q10 0 10 23v61q0 23 -10 23h-737q-10 0 -11 -23v-61zM276 1217 q0 -25 11 -25h737q10 0 10 25v59q0 25 -10 24h-737q-10 0 -11 -24v-59zM829 254q0 -23 11 -23h368q10 0 11 23v61q0 23 -11 23h-368q-10 0 -11 -23v-61zM829 375q0 -25 11 -25h368q10 0 11 25v59q0 25 -11 25h-368q-10 0 -11 -25v-59zM829 496q0 -25 11 -25h368q10 0 11 25 v59q0 25 -11 25h-368q-10 0 -11 -25v-59zM829 735q0 -25 11 -24h368q10 0 11 24v62q0 23 -11 22h-368q-10 0 -11 -22v-62zM829 856q0 -25 11 -25h368q10 0 11 25v59q0 25 -11 25h-368q-10 0 -11 -25v-59zM829 977q0 -25 11 -25h368q10 0 11 25v59q0 25 -11 25h-368 q-10 0 -11 -25v-59z" />
<glyph unicode="&#xd9;" d="M92 256q0 -25 10 -25h369q10 0 10 25v59q0 25 -10 25h-369q-10 0 -10 -25v-59zM92 377q0 -25 10 -25h369q10 0 10 25v59q0 25 -10 25h-369q-10 0 -10 -25v-59zM92 498q0 -25 10 -25h369q10 0 10 25v59q0 25 -10 25h-369q-10 0 -10 -25v-59zM92 618q0 -25 10 -24h369 q10 0 10 24v60q0 25 -10 24h-369q-10 0 -10 -24v-60zM92 739q0 -25 10 -24h369q10 0 10 24v60q0 25 -10 24h-369q-10 0 -10 -24v-60zM92 860q0 -25 10 -24h369q10 0 10 24v60q0 25 -10 24h-369q-10 0 -10 -24v-60zM92 981q0 -25 10 -25h369q10 0 10 25v59q0 25 -10 25h-369 q-10 0 -10 -25v-59zM92 1102q0 -25 10 -25h369q10 0 10 25v59q0 25 -10 25h-369q-10 0 -10 -25v-59zM92 1223q0 -25 10 -25h369q10 0 10 25v59q0 25 -10 25h-369q-10 0 -10 -25v-59zM276 14q0 -25 11 -24h737q10 0 10 24v60q0 25 -10 24h-737q-10 0 -11 -24v-60zM276 135 q0 -25 11 -24h737q10 0 10 24v60q0 25 -10 24h-737q-10 0 -11 -24v-60zM369 1550q0 -25 10 -24h369q10 0 10 24v60q0 25 -10 24h-369q-10 0 -10 -24v-60zM553 1430q0 -25 10 -25h369q10 0 10 25v59q0 25 -10 24h-369q-10 0 -10 -24v-59zM829 256q0 -25 11 -25h368 q10 0 11 25v59q0 25 -11 25h-368q-10 0 -11 -25v-59zM829 377q0 -25 11 -25h368q10 0 11 25v59q0 25 -11 25h-368q-10 0 -11 -25v-59zM829 498q0 -25 11 -25h368q10 0 11 25v59q0 25 -11 25h-368q-10 0 -11 -25v-59zM829 618q0 -25 11 -24h368q10 0 11 24v60q0 25 -11 24 h-368q-10 0 -11 -24v-60zM829 739q0 -25 11 -24h368q10 0 11 24v60q0 25 -11 24h-368q-10 0 -11 -24v-60zM829 860q0 -25 11 -24h368q10 0 11 24v60q0 25 -11 24h-368q-10 0 -11 -24v-60zM829 981q0 -25 11 -25h368q10 0 11 25v59q0 25 -11 25h-368q-10 0 -11 -25v-59z M829 1102q0 -25 11 -25h368q10 0 11 25v59q0 25 -11 25h-368q-10 0 -11 -25v-59zM829 1223q0 -25 11 -25h368q10 0 11 25v59q0 25 -11 25h-368q-10 0 -11 -25v-59z" />
<glyph unicode="&#xda;" d="M92 256q0 -25 10 -25h369q10 0 10 25v59q0 25 -10 25h-369q-10 0 -10 -25v-59zM92 377q0 -25 10 -25h369q10 0 10 25v59q0 25 -10 25h-369q-10 0 -10 -25v-59zM92 498q0 -25 10 -25h369q10 0 10 25v59q0 25 -10 25h-369q-10 0 -10 -25v-59zM92 618q0 -25 10 -24h369 q10 0 10 24v60q0 25 -10 24h-369q-10 0 -10 -24v-60zM92 739q0 -25 10 -24h369q10 0 10 24v60q0 25 -10 24h-369q-10 0 -10 -24v-60zM92 860q0 -25 10 -24h369q10 0 10 24v60q0 25 -10 24h-369q-10 0 -10 -24v-60zM92 981q0 -25 10 -25h369q10 0 10 25v59q0 25 -10 25h-369 q-10 0 -10 -25v-59zM92 1102q0 -25 10 -25h369q10 0 10 25v59q0 25 -10 25h-369q-10 0 -10 -25v-59zM92 1223q0 -25 10 -25h369q10 0 10 25v59q0 25 -10 25h-369q-10 0 -10 -25v-59zM276 14q0 -25 11 -24h737q10 0 10 24v60q0 25 -10 24h-737q-10 0 -11 -24v-60zM276 135 q0 -25 11 -24h737q10 0 10 24v60q0 25 -10 24h-737q-10 0 -11 -24v-60zM369 1427q0 -25 10 -24h369q10 0 10 24v60q0 25 -10 24h-369q-10 0 -10 -24v-60zM553 1548q0 -25 10 -24h369q10 0 10 24v60q0 25 -10 24h-369q-10 0 -10 -24v-60zM829 256q0 -25 11 -25h368 q10 0 11 25v59q0 25 -11 25h-368q-10 0 -11 -25v-59zM829 377q0 -25 11 -25h368q10 0 11 25v59q0 25 -11 25h-368q-10 0 -11 -25v-59zM829 498q0 -25 11 -25h368q10 0 11 25v59q0 25 -11 25h-368q-10 0 -11 -25v-59zM829 618q0 -25 11 -24h368q10 0 11 24v60q0 25 -11 24 h-368q-10 0 -11 -24v-60zM829 739q0 -25 11 -24h368q10 0 11 24v60q0 25 -11 24h-368q-10 0 -11 -24v-60zM829 860q0 -25 11 -24h368q10 0 11 24v60q0 25 -11 24h-368q-10 0 -11 -24v-60zM829 981q0 -25 11 -25h368q10 0 11 25v59q0 25 -11 25h-368q-10 0 -11 -25v-59z M829 1102q0 -25 11 -25h368q10 0 11 25v59q0 25 -11 25h-368q-10 0 -11 -25v-59zM829 1223q0 -25 11 -25h368q10 0 11 25v59q0 25 -11 25h-368q-10 0 -11 -25v-59z" />
<glyph unicode="&#xdb;" d="M92 256q0 -25 10 -25h369q10 0 10 25v59q0 25 -10 25h-369q-10 0 -10 -25v-59zM92 377q0 -25 10 -25h369q10 0 10 25v59q0 25 -10 25h-369q-10 0 -10 -25v-59zM92 498q0 -25 10 -25h369q10 0 10 25v59q0 25 -10 25h-369q-10 0 -10 -25v-59zM92 618q0 -25 10 -24h369 q10 0 10 24v60q0 25 -10 24h-369q-10 0 -10 -24v-60zM92 739q0 -25 10 -24h369q10 0 10 24v60q0 25 -10 24h-369q-10 0 -10 -24v-60zM92 860q0 -25 10 -24h369q10 0 10 24v60q0 25 -10 24h-369q-10 0 -10 -24v-60zM92 981q0 -25 10 -25h369q10 0 10 25v59q0 25 -10 25h-369 q-10 0 -10 -25v-59zM92 1102q0 -25 10 -25h369q10 0 10 25v59q0 25 -10 25h-369q-10 0 -10 -25v-59zM92 1223q0 -25 10 -25h369q10 0 10 25v59q0 25 -10 25h-369q-10 0 -10 -25v-59zM276 14q0 -25 11 -24h737q10 0 10 24v60q0 25 -10 24h-737q-10 0 -11 -24v-60zM276 135 q0 -25 11 -24h737q10 0 10 24v60q0 25 -10 24h-737q-10 0 -11 -24v-60zM276 1425q0 -25 11 -24h184q10 0 10 24v60q0 25 -10 24h-184q-10 0 -11 -24v-60zM461 1546q0 -25 10 -24h369q10 0 10 24v60q0 25 -10 24h-369q-10 0 -10 -24v-60zM829 256q0 -25 11 -25h368 q10 0 11 25v59q0 25 -11 25h-368q-10 0 -11 -25v-59zM829 377q0 -25 11 -25h368q10 0 11 25v59q0 25 -11 25h-368q-10 0 -11 -25v-59zM829 498q0 -25 11 -25h368q10 0 11 25v59q0 25 -11 25h-368q-10 0 -11 -25v-59zM829 618q0 -25 11 -24h368q10 0 11 24v60q0 25 -11 24 h-368q-10 0 -11 -24v-60zM829 739q0 -25 11 -24h368q10 0 11 24v60q0 25 -11 24h-368q-10 0 -11 -24v-60zM829 860q0 -25 11 -24h368q10 0 11 24v60q0 25 -11 24h-368q-10 0 -11 -24v-60zM829 981q0 -25 11 -25h368q10 0 11 25v59q0 25 -11 25h-368q-10 0 -11 -25v-59z M829 1102q0 -25 11 -25h368q10 0 11 25v59q0 25 -11 25h-368q-10 0 -11 -25v-59zM829 1223q0 -25 11 -25h368q10 0 11 25v59q0 25 -11 25h-368q-10 0 -11 -25v-59zM829 1425q0 -25 11 -24h184q10 0 10 24v60q0 25 -10 24h-184q-10 0 -11 -24v-60z" />
<glyph unicode="&#xdc;" d="M92 256q0 -25 10 -25h369q10 0 10 25v59q0 25 -10 25h-369q-10 0 -10 -25v-59zM92 377q0 -25 10 -25h369q10 0 10 25v59q0 25 -10 25h-369q-10 0 -10 -25v-59zM92 498q0 -25 10 -25h369q10 0 10 25v59q0 25 -10 25h-369q-10 0 -10 -25v-59zM92 618q0 -25 10 -24h369 q10 0 10 24v60q0 25 -10 24h-369q-10 0 -10 -24v-60zM92 739q0 -25 10 -24h369q10 0 10 24v60q0 25 -10 24h-369q-10 0 -10 -24v-60zM92 860q0 -25 10 -24h369q10 0 10 24v60q0 25 -10 24h-369q-10 0 -10 -24v-60zM92 981q0 -25 10 -25h369q10 0 10 25v59q0 25 -10 25h-369 q-10 0 -10 -25v-59zM92 1102q0 -25 10 -25h369q10 0 10 25v59q0 25 -10 25h-369q-10 0 -10 -25v-59zM92 1223q0 -25 10 -25h369q10 0 10 25v59q0 25 -10 25h-369q-10 0 -10 -25v-59zM276 14q0 -25 11 -24h737q10 0 10 24v60q0 25 -10 24h-737q-10 0 -11 -24v-60zM276 135 q0 -25 11 -24h737q10 0 10 24v60q0 25 -10 24h-737q-10 0 -11 -24v-60zM276 1430q0 -25 11 -25h184q10 0 10 25v59q0 25 -10 24h-184q-10 0 -11 -24v-59zM276 1550q0 -25 11 -24h184q10 0 10 24v60q0 25 -10 24h-184q-10 0 -11 -24v-60zM829 256q0 -25 11 -25h368 q10 0 11 25v59q0 25 -11 25h-368q-10 0 -11 -25v-59zM829 377q0 -25 11 -25h368q10 0 11 25v59q0 25 -11 25h-368q-10 0 -11 -25v-59zM829 498q0 -25 11 -25h368q10 0 11 25v59q0 25 -11 25h-368q-10 0 -11 -25v-59zM829 618q0 -25 11 -24h368q10 0 11 24v60q0 25 -11 24 h-368q-10 0 -11 -24v-60zM829 739q0 -25 11 -24h368q10 0 11 24v60q0 25 -11 24h-368q-10 0 -11 -24v-60zM829 860q0 -25 11 -24h368q10 0 11 24v60q0 25 -11 24h-368q-10 0 -11 -24v-60zM829 981q0 -25 11 -25h368q10 0 11 25v59q0 25 -11 25h-368q-10 0 -11 -25v-59z M829 1102q0 -25 11 -25h368q10 0 11 25v59q0 25 -11 25h-368q-10 0 -11 -25v-59zM829 1223q0 -25 11 -25h368q10 0 11 25v59q0 25 -11 25h-368q-10 0 -11 -25v-59zM829 1430q0 -25 11 -25h184q10 0 10 25v59q0 25 -10 24h-184q-10 0 -11 -24v-59zM829 1550q0 -25 11 -24h184 q10 0 10 24v60q0 25 -10 24h-184q-10 0 -11 -24v-60z" />
<glyph unicode="&#xdd;" d="M92 739q0 -25 10 -24h369q10 0 10 24v60q0 25 -10 24h-369q-10 0 -10 -24v-60zM92 860q0 -25 10 -24h369q10 0 10 24v60q0 25 -10 24h-369q-10 0 -10 -24v-60zM92 981q0 -25 10 -25h369q10 0 10 25v59q0 25 -10 25h-369q-10 0 -10 -25v-59zM92 1102q0 -25 10 -25h369 q10 0 10 25v59q0 25 -10 25h-369q-10 0 -10 -25v-59zM92 1223q0 -25 10 -25h369q10 0 10 25v59q0 25 -10 25h-369q-10 0 -10 -25v-59zM276 618q0 -25 11 -24h737q10 0 10 24v60q0 25 -10 24h-737q-10 0 -11 -24v-60zM369 1427q0 -25 10 -24h369q10 0 10 24v60q0 25 -10 24 h-369q-10 0 -10 -24v-60zM461 14q0 -25 10 -24h369q10 0 10 24v60q0 25 -10 24h-369q-10 0 -10 -24v-60zM461 135q0 -25 10 -24h369q10 0 10 24v60q0 25 -10 24h-369q-10 0 -10 -24v-60zM461 256q0 -25 10 -25h369q10 0 10 25v59q0 25 -10 25h-369q-10 0 -10 -25v-59z M461 377q0 -25 10 -25h369q10 0 10 25v59q0 25 -10 25h-369q-10 0 -10 -25v-59zM461 498q0 -25 10 -25h369q10 0 10 25v59q0 25 -10 25h-369q-10 0 -10 -25v-59zM553 1548q0 -25 10 -24h369q10 0 10 24v60q0 25 -10 24h-369q-10 0 -10 -24v-60zM829 739q0 -25 11 -24h368 q10 0 11 24v60q0 25 -11 24h-368q-10 0 -11 -24v-60zM829 860q0 -25 11 -24h368q10 0 11 24v60q0 25 -11 24h-368q-10 0 -11 -24v-60zM829 981q0 -25 11 -25h368q10 0 11 25v59q0 25 -11 25h-368q-10 0 -11 -25v-59zM829 1102q0 -25 11 -25h368q10 0 11 25v59q0 25 -11 25 h-368q-10 0 -11 -25v-59zM829 1223q0 -25 11 -25h368q10 0 11 25v59q0 25 -11 25h-368q-10 0 -11 -25v-59z" />
<glyph unicode="&#xde;" d="M92 8q0 -25 10 -24h369q10 0 10 24v60q0 25 -10 24h-369q-10 0 -10 -24v-60zM92 129q0 -25 10 -25h369q10 0 10 25v59q0 25 -10 25h-369q-10 0 -10 -25v-59zM92 248q0 -23 10 -23h799q10 0 10 23v61q0 23 -10 23h-799q-10 0 -10 -23v-61zM92 369q0 -25 10 -25h922 q10 0 10 25v59q0 25 -10 25h-922q-10 0 -10 -25v-59zM92 489q0 -25 10 -24h369q10 0 10 24v60q0 25 -10 24h-369q-10 0 -10 -24v-60zM92 610q0 -25 10 -24h369q10 0 10 24v60q0 25 -10 24h-369q-10 0 -10 -24v-60zM92 729q0 -25 10 -24h369q10 0 10 24v62q0 23 -10 22h-369 q-10 0 -10 -22v-62zM92 850q0 -25 10 -25h922q10 0 10 25v59q0 25 -10 25h-922q-10 0 -10 -25v-59zM92 971q0 -25 10 -25h738q10 0 10 25v59q0 25 -10 25h-738q-10 0 -10 -25v-59zM94 1096q0 -23 10 -23h369q10 0 10 23v61q0 23 -10 23h-369q-10 0 -10 -23v-61zM94 1217 q0 -25 10 -25h369q10 0 10 25v59q0 25 -10 24h-369q-10 0 -10 -24v-59zM829 489q0 -25 11 -24h368q10 0 11 24v60q0 25 -11 24h-368q-10 0 -11 -24v-60zM829 610q0 -25 11 -24h368q10 0 11 24v60q0 25 -11 24h-368q-10 0 -11 -24v-60zM829 729q0 -25 11 -24h368q10 0 11 24 v62q0 23 -11 22h-368q-10 0 -11 -22v-62z" />
<glyph unicode="&#xdf;" horiz-adv-x="1187" d="M92 14q0 -25 10 -24h375q10 0 10 24v60q0 25 -10 24h-375q-10 0 -10 -24v-60zM92 135q0 -25 10 -24h375q10 0 10 24v60q0 25 -10 24h-375q-10 0 -10 -24v-60zM92 254q0 -23 10 -23h369q10 0 10 23v61q0 23 -10 23h-369q-10 0 -10 -23v-61zM92 375q0 -25 10 -25h369 q10 0 10 25v59q0 25 -10 25h-369q-10 0 -10 -25v-59zM92 496q0 -25 10 -25h369q10 0 10 25v59q0 25 -10 25h-369q-10 0 -10 -25v-59zM92 614q0 -23 10 -22h799q10 0 10 22v62q0 25 -10 24h-799q-10 0 -10 -24v-62zM92 735q0 -25 10 -24h369q10 0 10 24v62q0 23 -10 22h-369 q-10 0 -10 -22v-62zM92 856q0 -25 10 -25h369q10 0 10 25v59q0 25 -10 25h-369q-10 0 -10 -25v-59zM92 977q0 -25 10 -25h369q10 0 10 25v59q0 25 -10 25h-369q-10 0 -10 -25v-59zM254 1096q0 -23 10 -23h637q10 0 10 23v61q0 23 -10 23h-637q-10 0 -10 -23v-61zM383 1217 q0 -25 10 -25h385q10 0 10 25v59q0 25 -10 24h-385q-10 0 -10 -24v-59zM610 131q0 -23 11 -22h368q10 0 10 22v62q0 23 -10 22h-368q-10 0 -11 -22v-62zM707 254q0 -23 10 -23h368q10 0 11 23v61q0 23 -11 23h-368q-10 0 -10 -23v-61zM707 375q0 -25 10 -25h368q10 0 11 25 v59q0 25 -11 25h-368q-10 0 -10 -25v-59zM707 496q0 -25 10 -25h368q10 0 11 25v59q0 25 -11 25h-368q-10 0 -10 -25v-59zM707 735q0 -25 10 -24h368q10 0 11 24v62q0 23 -11 22h-368q-10 0 -10 -22v-62zM707 856q0 -25 10 -25h368q10 0 11 25v59q0 25 -11 25h-368 q-10 0 -10 -25v-59zM707 977q0 -25 10 -25h368q10 0 11 25v59q0 25 -11 25h-368q-10 0 -10 -25v-59z" />
<glyph unicode="&#xe0;" d="M92 254q0 -23 10 -23h369q10 0 10 23v61q0 23 -10 23h-369q-10 0 -10 -23v-61zM92 375q0 -25 10 -25h369q10 0 10 25v59q0 25 -10 25h-369q-10 0 -10 -25v-59zM92 496q0 -25 10 -25h369q10 0 10 25v59q0 25 -10 25h-369q-10 0 -10 -25v-59zM92 614q0 -23 10 -22h369 q10 0 10 22v62q0 25 -10 24h-369q-10 0 -10 -24v-62zM276 14q0 -25 11 -24h921q10 0 11 24v60q0 25 -11 24h-921q-10 0 -11 -24v-60zM276 135q0 -25 11 -24h921q10 0 11 24v60q0 25 -11 24h-921q-10 0 -11 -24v-60zM276 735q0 -25 11 -24h921q10 0 11 24v62q0 23 -11 22 h-921q-10 0 -11 -22v-62zM276 856q0 -25 11 -25h921q10 0 11 25v59q0 25 -11 25h-921q-10 0 -11 -25v-59zM461 1217q0 -25 10 -25h369q10 0 10 25v59q0 25 -10 24h-369q-10 0 -10 -24v-59zM645 1096q0 -23 10 -23h369q10 0 10 23v61q0 23 -10 23h-369q-10 0 -10 -23v-61z M829 254q0 -23 11 -23h368q10 0 11 23v61q0 23 -11 23h-368q-10 0 -11 -23v-61zM829 375q0 -25 11 -25h368q10 0 11 25v59q0 25 -11 25h-368q-10 0 -11 -25v-59zM829 496q0 -25 11 -25h368q10 0 11 25v59q0 25 -11 25h-368q-10 0 -11 -25v-59zM829 614q0 -23 11 -22h368 q10 0 11 22v62q0 25 -11 24h-368q-10 0 -11 -24v-62z" />
<glyph unicode="&#xe1;" d="M92 254q0 -23 10 -23h369q10 0 10 23v61q0 23 -10 23h-369q-10 0 -10 -23v-61zM92 375q0 -25 10 -25h369q10 0 10 25v59q0 25 -10 25h-369q-10 0 -10 -25v-59zM92 496q0 -25 10 -25h369q10 0 10 25v59q0 25 -10 25h-369q-10 0 -10 -25v-59zM92 614q0 -23 10 -22h369 q10 0 10 22v62q0 25 -10 24h-369q-10 0 -10 -24v-62zM276 14q0 -25 11 -24h921q10 0 11 24v60q0 25 -11 24h-921q-10 0 -11 -24v-60zM276 135q0 -25 11 -24h921q10 0 11 24v60q0 25 -11 24h-921q-10 0 -11 -24v-60zM276 735q0 -25 11 -24h921q10 0 11 24v62q0 23 -11 22 h-921q-10 0 -11 -22v-62zM276 856q0 -25 11 -25h921q10 0 11 25v59q0 25 -11 25h-921q-10 0 -11 -25v-59zM461 1096q0 -23 10 -23h369q10 0 10 23v61q0 23 -10 23h-369q-10 0 -10 -23v-61zM645 1217q0 -25 10 -25h369q10 0 10 25v59q0 25 -10 24h-369q-10 0 -10 -24v-59z M829 254q0 -23 11 -23h368q10 0 11 23v61q0 23 -11 23h-368q-10 0 -11 -23v-61zM829 375q0 -25 11 -25h368q10 0 11 25v59q0 25 -11 25h-368q-10 0 -11 -25v-59zM829 496q0 -25 11 -25h368q10 0 11 25v59q0 25 -11 25h-368q-10 0 -11 -25v-59zM829 614q0 -23 11 -22h368 q10 0 11 22v62q0 25 -11 24h-368q-10 0 -11 -24v-62z" />
<glyph unicode="&#xe2;" d="M92 254q0 -23 10 -23h369q10 0 10 23v61q0 23 -10 23h-369q-10 0 -10 -23v-61zM92 375q0 -25 10 -25h369q10 0 10 25v59q0 25 -10 25h-369q-10 0 -10 -25v-59zM92 496q0 -25 10 -25h369q10 0 10 25v59q0 25 -10 25h-369q-10 0 -10 -25v-59zM92 614q0 -23 10 -22h369 q10 0 10 22v62q0 25 -10 24h-369q-10 0 -10 -24v-62zM276 14q0 -25 11 -24h921q10 0 11 24v60q0 25 -11 24h-921q-10 0 -11 -24v-60zM276 135q0 -25 11 -24h921q10 0 11 24v60q0 25 -11 24h-921q-10 0 -11 -24v-60zM276 735q0 -25 11 -24h921q10 0 11 24v62q0 23 -11 22 h-921q-10 0 -11 -22v-62zM276 856q0 -25 11 -25h921q10 0 11 25v59q0 25 -11 25h-921q-10 0 -11 -25v-59zM276 1096q0 -23 11 -23h184q10 0 10 23v61q0 23 -10 23h-184q-10 0 -11 -23v-61zM461 1217q0 -25 10 -25h369q10 0 10 25v59q0 25 -10 24h-369q-10 0 -10 -24v-59z M829 254q0 -23 11 -23h368q10 0 11 23v61q0 23 -11 23h-368q-10 0 -11 -23v-61zM829 375q0 -25 11 -25h368q10 0 11 25v59q0 25 -11 25h-368q-10 0 -11 -25v-59zM829 496q0 -25 11 -25h368q10 0 11 25v59q0 25 -11 25h-368q-10 0 -11 -25v-59zM829 614q0 -23 11 -22h368 q10 0 11 22v62q0 25 -11 24h-368q-10 0 -11 -24v-62zM829 1096q0 -23 11 -23h184q10 0 10 23v61q0 23 -10 23h-184q-10 0 -11 -23v-61z" />
<glyph unicode="&#xe3;" d="M92 254q0 -23 10 -23h369q10 0 10 23v61q0 23 -10 23h-369q-10 0 -10 -23v-61zM92 375q0 -25 10 -25h369q10 0 10 25v59q0 25 -10 25h-369q-10 0 -10 -25v-59zM92 496q0 -25 10 -25h369q10 0 10 25v59q0 25 -10 25h-369q-10 0 -10 -25v-59zM92 614q0 -23 10 -22h369 q10 0 10 22v62q0 25 -10 24h-369q-10 0 -10 -24v-62zM256 1096q0 -23 10 -23h185q10 0 10 23v61q0 23 -10 23h-185q-10 0 -10 -23v-61zM276 14q0 -25 11 -24h921q10 0 11 24v60q0 25 -11 24h-921q-10 0 -11 -24v-60zM276 135q0 -25 11 -24h921q10 0 11 24v60q0 25 -11 24 h-921q-10 0 -11 -24v-60zM276 735q0 -25 11 -24h921q10 0 11 24v62q0 23 -11 22h-921q-10 0 -11 -22v-62zM276 856q0 -25 11 -25h921q10 0 11 25v59q0 25 -11 25h-921q-10 0 -11 -25v-59zM440 1217q0 -25 11 -25h184q10 0 10 25v59q0 25 -10 24h-184q-10 0 -11 -24v-59z M625 1096q0 -23 10 -23h184q10 0 10 23v61q0 23 -10 23h-184q-10 0 -10 -23v-61zM809 1217q0 -25 10 -25h185q10 0 10 25v59q0 25 -10 24h-185q-10 0 -10 -24v-59zM829 254q0 -23 11 -23h368q10 0 11 23v61q0 23 -11 23h-368q-10 0 -11 -23v-61zM829 375q0 -25 11 -25h368 q10 0 11 25v59q0 25 -11 25h-368q-10 0 -11 -25v-59zM829 496q0 -25 11 -25h368q10 0 11 25v59q0 25 -11 25h-368q-10 0 -11 -25v-59zM829 614q0 -23 11 -22h368q10 0 11 22v62q0 25 -11 24h-368q-10 0 -11 -24v-62z" />
<glyph unicode="&#xe4;" d="M92 254q0 -23 10 -23h369q10 0 10 23v61q0 23 -10 23h-369q-10 0 -10 -23v-61zM92 375q0 -25 10 -25h369q10 0 10 25v59q0 25 -10 25h-369q-10 0 -10 -25v-59zM92 496q0 -25 10 -25h369q10 0 10 25v59q0 25 -10 25h-369q-10 0 -10 -25v-59zM92 614q0 -23 10 -22h369 q10 0 10 22v62q0 25 -10 24h-369q-10 0 -10 -24v-62zM276 14q0 -25 11 -24h921q10 0 11 24v60q0 25 -11 24h-921q-10 0 -11 -24v-60zM276 135q0 -25 11 -24h921q10 0 11 24v60q0 25 -11 24h-921q-10 0 -11 -24v-60zM276 735q0 -25 11 -24h921q10 0 11 24v62q0 23 -11 22 h-921q-10 0 -11 -22v-62zM276 856q0 -25 11 -25h921q10 0 11 25v59q0 25 -11 25h-921q-10 0 -11 -25v-59zM276 1096q0 -23 11 -23h184q10 0 10 23v61q0 23 -10 23h-184q-10 0 -11 -23v-61zM276 1217q0 -25 11 -25h184q10 0 10 25v59q0 25 -10 24h-184q-10 0 -11 -24v-59z M829 254q0 -23 11 -23h368q10 0 11 23v61q0 23 -11 23h-368q-10 0 -11 -23v-61zM829 375q0 -25 11 -25h368q10 0 11 25v59q0 25 -11 25h-368q-10 0 -11 -25v-59zM829 496q0 -25 11 -25h368q10 0 11 25v59q0 25 -11 25h-368q-10 0 -11 -25v-59zM829 614q0 -23 11 -22h368 q10 0 11 22v62q0 25 -11 24h-368q-10 0 -11 -24v-62zM829 1096q0 -23 11 -23h184q10 0 10 23v61q0 23 -10 23h-184q-10 0 -11 -23v-61zM829 1217q0 -25 11 -25h184q10 0 10 25v59q0 25 -10 24h-184q-10 0 -11 -24v-59z" />
<glyph unicode="&#xe5;" d="M92 254q0 -23 10 -23h369q10 0 10 23v61q0 23 -10 23h-369q-10 0 -10 -23v-61zM92 375q0 -25 10 -25h369q10 0 10 25v59q0 25 -10 25h-369q-10 0 -10 -25v-59zM92 496q0 -25 10 -25h369q10 0 10 25v59q0 25 -10 25h-369q-10 0 -10 -25v-59zM92 614q0 -23 10 -22h369 q10 0 10 22v62q0 25 -10 24h-369q-10 0 -10 -24v-62zM276 14q0 -25 11 -24h921q10 0 11 24v60q0 25 -11 24h-921q-10 0 -11 -24v-60zM276 135q0 -25 11 -24h921q10 0 11 24v60q0 25 -11 24h-921q-10 0 -11 -24v-60zM276 735q0 -25 11 -24h921q10 0 11 24v62q0 23 -11 22 h-921q-10 0 -11 -22v-62zM276 856q0 -25 11 -25h921q10 0 11 25v59q0 25 -11 25h-921q-10 0 -11 -25v-59zM461 1096q0 -23 10 -23h184q10 0 11 23v61q0 23 -11 23h-184q-10 0 -10 -23v-61zM645 977q0 -25 10 -25h185q10 0 10 25v59q0 25 -10 25h-185q-10 0 -10 -25v-59z M645 1217q0 -25 10 -25h185q10 0 10 25v59q0 25 -10 24h-185q-10 0 -10 -24v-59zM829 254q0 -23 11 -23h368q10 0 11 23v61q0 23 -11 23h-368q-10 0 -11 -23v-61zM829 375q0 -25 11 -25h368q10 0 11 25v59q0 25 -11 25h-368q-10 0 -11 -25v-59zM829 496q0 -25 11 -25h368 q10 0 11 25v59q0 25 -11 25h-368q-10 0 -11 -25v-59zM829 614q0 -23 11 -22h368q10 0 11 22v62q0 25 -11 24h-368q-10 0 -11 -24v-62zM829 1096q0 -23 11 -23h184q10 0 10 23v61q0 23 -10 23h-184q-10 0 -11 -23v-61z" />
<glyph unicode="&#xe6;" horiz-adv-x="2048" d="M92 252q0 -23 10 -23h369q10 0 10 23v59q0 25 -10 25h-369q-10 0 -10 -25v-59zM92 371q0 -23 10 -23h369q10 0 10 23v61q0 23 -10 23h-369q-10 0 -10 -23v-61zM92 492q0 -25 10 -25h1106q10 0 11 25v59q0 23 -11 22h-1106q-10 0 -10 -22v-59zM276 14q0 -25 11 -24h1474 q10 0 11 24v60q0 25 -11 24h-1474q-10 0 -11 -24v-60zM276 133q0 -25 11 -24h1474q10 0 11 24v60q0 25 -11 24h-1474q-10 0 -11 -24v-60zM276 729q0 -23 11 -22h1474q10 0 11 22v59q0 25 -11 25h-1474q-10 0 -11 -25v-59zM276 848q0 -23 11 -23h1474q10 0 11 23v61 q0 23 -11 23h-1474q-10 0 -11 -23v-61zM829 252q0 -23 11 -23h368q10 0 11 23v59q0 25 -11 25h-368q-10 0 -11 -25v-59zM829 371q0 -23 11 -23h1106q10 0 10 23v61q0 23 -10 23h-1106q-10 0 -11 -23v-61zM829 610q0 -25 11 -24h368q10 0 11 24v60q0 25 -11 24h-368 q-10 0 -11 -24v-60zM1567 492q0 -25 10 -25h369q10 0 10 25v59q0 23 -10 22h-369q-10 0 -10 -22v-59zM1567 610q0 -25 10 -24h369q10 0 10 24v60q0 25 -10 24h-369q-10 0 -10 -24v-60z" />
<glyph unicode="&#xe7;" horiz-adv-x="1126" d="M92 254q0 -23 10 -23h369q10 0 10 23v61q0 23 -10 23h-369q-10 0 -10 -23v-61zM92 375q0 -25 10 -25h369q10 0 10 25v59q0 25 -10 25h-369q-10 0 -10 -25v-59zM92 496q0 -25 10 -25h369q10 0 10 25v59q0 25 -10 25h-369q-10 0 -10 -25v-59zM92 614q0 -23 10 -22h369 q10 0 10 22v62q0 25 -10 24h-369q-10 0 -10 -24v-62zM276 -47v-59q0 -25 11 -25h368q10 0 11 25v59q0 25 -11 24h-368q-10 0 -11 -24zM276 135q0 -25 11 -24h737q10 0 10 24v60q0 25 -10 24h-737q-10 0 -11 -24v-60zM276 735q0 -25 11 -24h737q10 0 10 24v62q0 23 -10 22 h-737q-10 0 -11 -22v-62zM461 14q0 -25 10 -24h553q10 0 10 24v60q0 25 -10 24h-553q-10 0 -10 -24v-60zM461 -166v-61q0 -23 10 -23h369q10 0 10 23v61q0 25 -10 25h-369q-10 0 -10 -25zM461 -287v-59q0 -25 10 -25h369q10 0 10 25v59q0 25 -10 25h-369q-10 0 -10 -25z M461 856q0 -25 10 -25h553q10 0 10 25v59q0 25 -10 25h-553q-10 0 -10 -25v-59z" />
<glyph unicode="&#xe8;" d="M92 254q0 -23 10 -23h369q10 0 10 23v61q0 23 -10 23h-369q-10 0 -10 -23v-61zM92 375q0 -25 10 -25h1106q10 0 11 25v59q0 25 -11 25h-1106q-10 0 -10 -25v-59zM92 496q0 -25 10 -25h369q10 0 10 25v59q0 25 -10 25h-369q-10 0 -10 -25v-59zM92 614q0 -23 10 -22h369 q10 0 10 22v62q0 25 -10 24h-369q-10 0 -10 -24v-62zM276 14q0 -25 11 -24h737q10 0 10 24v60q0 25 -10 24h-737q-10 0 -11 -24v-60zM276 135q0 -25 11 -24h737q10 0 10 24v60q0 25 -10 24h-737q-10 0 -11 -24v-60zM276 735q0 -25 11 -24h737q10 0 10 24v62q0 23 -10 22 h-737q-10 0 -11 -22v-62zM276 856q0 -25 11 -25h737q10 0 10 25v59q0 25 -10 25h-737q-10 0 -11 -25v-59zM461 1217q0 -25 10 -25h369q10 0 10 25v59q0 25 -10 24h-369q-10 0 -10 -24v-59zM645 1096q0 -23 10 -23h369q10 0 10 23v61q0 23 -10 23h-369q-10 0 -10 -23v-61z M829 496q0 -25 11 -25h368q10 0 11 25v59q0 25 -11 25h-368q-10 0 -11 -25v-59zM829 614q0 -23 11 -22h368q10 0 11 22v62q0 25 -11 24h-368q-10 0 -11 -24v-62z" />
<glyph unicode="&#xe9;" d="M92 254q0 -23 10 -23h369q10 0 10 23v61q0 23 -10 23h-369q-10 0 -10 -23v-61zM92 375q0 -25 10 -25h1106q10 0 11 25v59q0 25 -11 25h-1106q-10 0 -10 -25v-59zM92 496q0 -25 10 -25h369q10 0 10 25v59q0 25 -10 25h-369q-10 0 -10 -25v-59zM92 614q0 -23 10 -22h369 q10 0 10 22v62q0 25 -10 24h-369q-10 0 -10 -24v-62zM276 14q0 -25 11 -24h737q10 0 10 24v60q0 25 -10 24h-737q-10 0 -11 -24v-60zM276 135q0 -25 11 -24h737q10 0 10 24v60q0 25 -10 24h-737q-10 0 -11 -24v-60zM276 735q0 -25 11 -24h737q10 0 10 24v62q0 23 -10 22 h-737q-10 0 -11 -22v-62zM276 856q0 -25 11 -25h737q10 0 10 25v59q0 25 -10 25h-737q-10 0 -11 -25v-59zM461 1096q0 -23 10 -23h369q10 0 10 23v61q0 23 -10 23h-369q-10 0 -10 -23v-61zM645 1217q0 -25 10 -25h369q10 0 10 25v59q0 25 -10 24h-369q-10 0 -10 -24v-59z M829 496q0 -25 11 -25h368q10 0 11 25v59q0 25 -11 25h-368q-10 0 -11 -25v-59zM829 614q0 -23 11 -22h368q10 0 11 22v62q0 25 -11 24h-368q-10 0 -11 -24v-62z" />
<glyph unicode="&#xea;" d="M92 254q0 -23 10 -23h369q10 0 10 23v61q0 23 -10 23h-369q-10 0 -10 -23v-61zM92 375q0 -25 10 -25h1106q10 0 11 25v59q0 25 -11 25h-1106q-10 0 -10 -25v-59zM92 496q0 -25 10 -25h369q10 0 10 25v59q0 25 -10 25h-369q-10 0 -10 -25v-59zM92 614q0 -23 10 -22h369 q10 0 10 22v62q0 25 -10 24h-369q-10 0 -10 -24v-62zM276 14q0 -25 11 -24h737q10 0 10 24v60q0 25 -10 24h-737q-10 0 -11 -24v-60zM276 135q0 -25 11 -24h737q10 0 10 24v60q0 25 -10 24h-737q-10 0 -11 -24v-60zM276 735q0 -25 11 -24h737q10 0 10 24v62q0 23 -10 22 h-737q-10 0 -11 -22v-62zM276 856q0 -25 11 -25h737q10 0 10 25v59q0 25 -10 25h-737q-10 0 -11 -25v-59zM276 1096q0 -23 11 -23h184q10 0 10 23v61q0 23 -10 23h-184q-10 0 -11 -23v-61zM461 1217q0 -25 10 -25h369q10 0 10 25v59q0 25 -10 24h-369q-10 0 -10 -24v-59z M829 496q0 -25 11 -25h368q10 0 11 25v59q0 25 -11 25h-368q-10 0 -11 -25v-59zM829 614q0 -23 11 -22h368q10 0 11 22v62q0 25 -11 24h-368q-10 0 -11 -24v-62zM829 1096q0 -23 11 -23h184q10 0 10 23v61q0 23 -10 23h-184q-10 0 -11 -23v-61z" />
<glyph unicode="&#xeb;" d="M92 254q0 -23 10 -23h369q10 0 10 23v61q0 23 -10 23h-369q-10 0 -10 -23v-61zM92 375q0 -25 10 -25h1106q10 0 11 25v59q0 25 -11 25h-1106q-10 0 -10 -25v-59zM92 496q0 -25 10 -25h369q10 0 10 25v59q0 25 -10 25h-369q-10 0 -10 -25v-59zM92 614q0 -23 10 -22h369 q10 0 10 22v62q0 25 -10 24h-369q-10 0 -10 -24v-62zM276 14q0 -25 11 -24h737q10 0 10 24v60q0 25 -10 24h-737q-10 0 -11 -24v-60zM276 135q0 -25 11 -24h737q10 0 10 24v60q0 25 -10 24h-737q-10 0 -11 -24v-60zM276 735q0 -25 11 -24h737q10 0 10 24v62q0 23 -10 22 h-737q-10 0 -11 -22v-62zM276 856q0 -25 11 -25h737q10 0 10 25v59q0 25 -10 25h-737q-10 0 -11 -25v-59zM276 1096q0 -23 11 -23h184q10 0 10 23v61q0 23 -10 23h-184q-10 0 -11 -23v-61zM276 1217q0 -25 11 -25h184q10 0 10 25v59q0 25 -10 24h-184q-10 0 -11 -24v-59z M829 496q0 -25 11 -25h368q10 0 11 25v59q0 25 -11 25h-368q-10 0 -11 -25v-59zM829 614q0 -23 11 -22h368q10 0 11 22v62q0 25 -11 24h-368q-10 0 -11 -24v-62zM829 1096q0 -23 11 -23h184q10 0 10 23v61q0 23 -10 23h-184q-10 0 -11 -23v-61zM829 1217q0 -25 11 -25h184 q10 0 10 25v59q0 25 -10 24h-184q-10 0 -11 -24v-59z" />
<glyph unicode="&#xec;" horiz-adv-x="757" d="M92 1217q0 -25 10 -25h369q10 0 10 25v59q0 25 -10 24h-369q-10 0 -10 -24v-59zM170 14q0 -25 10 -24h375q10 0 10 24v60q0 25 -10 24h-375q-10 0 -10 -24v-60zM170 135q0 -25 10 -24h375q10 0 10 24v60q0 25 -10 24h-375q-10 0 -10 -24v-60zM170 254q0 -23 10 -23h369 q10 0 10 23v61q0 23 -10 23h-369q-10 0 -10 -23v-61zM170 375q0 -25 10 -25h369q10 0 10 25v59q0 25 -10 25h-369q-10 0 -10 -25v-59zM170 496q0 -25 10 -25h369q10 0 10 25v59q0 25 -10 25h-369q-10 0 -10 -25v-59zM170 614q0 -23 10 -22h369q10 0 10 22v62q0 25 -10 24 h-369q-10 0 -10 -24v-62zM170 735q0 -25 10 -24h375q10 0 10 24v62q0 23 -10 22h-375q-10 0 -10 -22v-62zM170 856q0 -25 10 -25h375q10 0 10 25v59q0 25 -10 25h-375q-10 0 -10 -25v-59zM276 1096q0 -23 11 -23h368q10 0 11 23v61q0 23 -11 23h-368q-10 0 -11 -23v-61z" />
<glyph unicode="&#xed;" horiz-adv-x="757" d="M92 1096q0 -23 10 -23h369q10 0 10 23v61q0 23 -10 23h-369q-10 0 -10 -23v-61zM193 14q0 -25 10 -24h375q10 0 10 24v60q0 25 -10 24h-375q-10 0 -10 -24v-60zM193 135q0 -25 10 -24h375q10 0 10 24v60q0 25 -10 24h-375q-10 0 -10 -24v-60zM193 254q0 -23 10 -23h368 q10 0 11 23v61q0 23 -11 23h-368q-10 0 -10 -23v-61zM193 375q0 -25 10 -25h368q10 0 11 25v59q0 25 -11 25h-368q-10 0 -10 -25v-59zM193 496q0 -25 10 -25h368q10 0 11 25v59q0 25 -11 25h-368q-10 0 -10 -25v-59zM193 614q0 -23 10 -22h368q10 0 11 22v62q0 25 -11 24 h-368q-10 0 -10 -24v-62zM193 735q0 -25 10 -24h375q10 0 10 24v62q0 23 -10 22h-375q-10 0 -10 -22v-62zM193 856q0 -25 10 -25h375q10 0 10 25v59q0 25 -10 25h-375q-10 0 -10 -25v-59zM276 1217q0 -25 11 -25h368q10 0 11 25v59q0 25 -11 24h-368q-10 0 -11 -24v-59z" />
<glyph unicode="&#xee;" horiz-adv-x="942" d="M92 1096q0 -23 10 -23h185q10 0 10 23v61q0 23 -10 23h-185q-10 0 -10 -23v-61zM272 14q0 -25 11 -24h374q10 0 11 24v60q0 25 -11 24h-374q-10 0 -11 -24v-60zM272 135q0 -25 11 -24h374q10 0 11 24v60q0 25 -11 24h-374q-10 0 -11 -24v-60zM272 254q0 -23 11 -23h368 q10 0 11 23v61q0 23 -11 23h-368q-10 0 -11 -23v-61zM272 375q0 -25 11 -25h368q10 0 11 25v59q0 25 -11 25h-368q-10 0 -11 -25v-59zM272 496q0 -25 11 -25h368q10 0 11 25v59q0 25 -11 25h-368q-10 0 -11 -25v-59zM272 614q0 -23 11 -22h368q10 0 11 22v62q0 25 -11 24 h-368q-10 0 -11 -24v-62zM272 735q0 -25 11 -24h374q10 0 11 24v62q0 23 -11 22h-374q-10 0 -11 -22v-62zM272 856q0 -25 11 -25h374q10 0 11 25v59q0 25 -11 25h-374q-10 0 -11 -25v-59zM276 1217q0 -25 11 -25h368q10 0 11 25v59q0 25 -11 24h-368q-10 0 -11 -24v-59z M645 1096q0 -23 10 -23h185q10 0 10 23v61q0 23 -10 23h-185q-10 0 -10 -23v-61z" />
<glyph unicode="&#xef;" horiz-adv-x="942" d="M92 1096q0 -23 10 -23h185q10 0 10 23v61q0 23 -10 23h-185q-10 0 -10 -23v-61zM92 1217q0 -25 10 -25h185q10 0 10 25v59q0 25 -10 24h-185q-10 0 -10 -24v-59zM272 14q0 -25 11 -24h374q10 0 11 24v60q0 25 -11 24h-374q-10 0 -11 -24v-60zM272 135q0 -25 11 -24h374 q10 0 11 24v60q0 25 -11 24h-374q-10 0 -11 -24v-60zM272 254q0 -23 11 -23h368q10 0 11 23v61q0 23 -11 23h-368q-10 0 -11 -23v-61zM272 375q0 -25 11 -25h368q10 0 11 25v59q0 25 -11 25h-368q-10 0 -11 -25v-59zM272 496q0 -25 11 -25h368q10 0 11 25v59q0 25 -11 25 h-368q-10 0 -11 -25v-59zM272 614q0 -23 11 -22h368q10 0 11 22v62q0 25 -11 24h-368q-10 0 -11 -24v-62zM272 735q0 -25 11 -24h374q10 0 11 24v62q0 23 -11 22h-374q-10 0 -11 -22v-62zM272 856q0 -25 11 -25h374q10 0 11 25v59q0 25 -11 25h-374q-10 0 -11 -25v-59z M645 1096q0 -23 10 -23h185q10 0 10 23v61q0 23 -10 23h-185q-10 0 -10 -23v-61zM645 1217q0 -25 10 -25h185q10 0 10 25v59q0 25 -10 24h-185q-10 0 -10 -24v-59z" />
<glyph unicode="&#xf0;" d="M92 254q0 -23 10 -23h369q10 0 10 23v61q0 23 -10 23h-369q-10 0 -10 -23v-61zM92 375q0 -25 10 -25h369q10 0 10 25v59q0 25 -10 25h-369q-10 0 -10 -25v-59zM92 496q0 -25 10 -25h369q10 0 10 25v59q0 25 -10 25h-369q-10 0 -10 -25v-59zM207 977q0 -25 12 -25h981 q10 0 10 25v59q0 25 -10 25h-983q-10 0 -10 -25v-59zM276 14q1 -24 11 -24h737q10 0 10 24v60q0 25 -10 24h-737q-10 0 -11 -24v-60zM276 135q1 -24 11 -24h737q10 0 10 24v60q0 25 -10 24h-737q-10 0 -11 -24v-60zM276 614q1 -22 11 -22h737q10 0 10 22v62q0 25 -10 24 h-737q-10 0 -11 -24v-62zM461 1096q0 -23 10 -23h369q10 0 10 23v61q0 23 -10 23h-369q-10 0 -10 -23v-61zM461 1217q0 -25 10 -25h369q10 0 10 25v59q0 25 -10 24h-369q-10 0 -10 -24v-59zM645 856q0 -25 10 -25h369q10 0 10 25v59q0 25 -10 25h-369q-10 0 -10 -25v-59z M829 254q1 -23 11 -23h368q10 0 11 23v61q0 23 -11 23h-368q-10 0 -11 -23v-61zM829 375q1 -25 11 -25h368q10 0 11 25v59q0 25 -11 25h-368q-10 0 -11 -25v-59zM829 496q1 -25 11 -25h368q10 0 11 25v59q0 25 -11 25h-368q-10 0 -11 -25v-59zM829 735q1 -24 11 -24h368 q10 0 11 24v62q0 23 -11 22h-368q-10 0 -11 -22v-62z" />
<glyph unicode="&#xf1;" d="M92 14q0 -25 10 -24h369q10 0 10 24v60q0 25 -10 24h-369q-10 0 -10 -24v-60zM92 135q0 -25 10 -24h369q10 0 10 24v60q0 25 -10 24h-369q-10 0 -10 -24v-60zM92 254q0 -23 10 -23h369q10 0 10 23v61q0 23 -10 23h-369q-10 0 -10 -23v-61zM92 375q0 -25 10 -25h369 q10 0 10 25v59q0 25 -10 25h-369q-10 0 -10 -25v-59zM92 496q0 -25 10 -25h369q10 0 10 25v59q0 25 -10 25h-369q-10 0 -10 -25v-59zM92 614q0 -23 10 -22h369q10 0 10 22v62q0 25 -10 24h-369q-10 0 -10 -24v-62zM256 1096q0 -23 10 -23h185q10 0 10 23v61q0 23 -10 23 h-185q-10 0 -10 -23v-61zM276 735q0 -25 11 -24h737q10 0 10 24v62q0 23 -10 22h-737q-10 0 -11 -22v-62zM276 856q0 -25 11 -25h737q10 0 10 25v59q0 25 -10 25h-737q-10 0 -11 -25v-59zM440 1217q0 -25 11 -25h184q10 0 10 25v59q0 25 -10 24h-184q-10 0 -11 -24v-59z M625 1096q0 -23 10 -23h184q10 0 10 23v61q0 23 -10 23h-184q-10 0 -10 -23v-61zM809 1217q0 -25 10 -25h185q10 0 10 25v59q0 25 -10 24h-185q-10 0 -10 -24v-59zM829 14q0 -25 11 -24h368q10 0 11 24v60q0 25 -11 24h-368q-10 0 -11 -24v-60zM829 135q0 -25 11 -24h368 q10 0 11 24v60q0 25 -11 24h-368q-10 0 -11 -24v-60zM829 254q0 -23 11 -23h368q10 0 11 23v61q0 23 -11 23h-368q-10 0 -11 -23v-61zM829 375q0 -25 11 -25h368q10 0 11 25v59q0 25 -11 25h-368q-10 0 -11 -25v-59zM829 496q0 -25 11 -25h368q10 0 11 25v59q0 25 -11 25 h-368q-10 0 -11 -25v-59zM829 614q0 -23 11 -22h368q10 0 11 22v62q0 25 -11 24h-368q-10 0 -11 -24v-62z" />
<glyph unicode="&#xf2;" d="M92 254q0 -23 10 -23h369q10 0 10 23v61q0 23 -10 23h-369q-10 0 -10 -23v-61zM92 375q0 -25 10 -25h369q10 0 10 25v59q0 25 -10 25h-369q-10 0 -10 -25v-59zM92 496q0 -25 10 -25h369q10 0 10 25v59q0 25 -10 25h-369q-10 0 -10 -25v-59zM92 614q0 -23 10 -22h369 q10 0 10 22v62q0 25 -10 24h-369q-10 0 -10 -24v-62zM276 14q0 -25 11 -24h737q10 0 10 24v60q0 25 -10 24h-737q-10 0 -11 -24v-60zM276 135q0 -25 11 -24h737q10 0 10 24v60q0 25 -10 24h-737q-10 0 -11 -24v-60zM276 735q0 -25 11 -24h737q10 0 10 24v62q0 23 -10 22 h-737q-10 0 -11 -22v-62zM276 856q0 -25 11 -25h737q10 0 10 25v59q0 25 -10 25h-737q-10 0 -11 -25v-59zM461 1217q0 -25 10 -25h369q10 0 10 25v59q0 25 -10 24h-369q-10 0 -10 -24v-59zM645 1096q0 -23 10 -23h369q10 0 10 23v61q0 23 -10 23h-369q-10 0 -10 -23v-61z M829 254q0 -23 11 -23h368q10 0 11 23v61q0 23 -11 23h-368q-10 0 -11 -23v-61zM829 375q0 -25 11 -25h368q10 0 11 25v59q0 25 -11 25h-368q-10 0 -11 -25v-59zM829 496q0 -25 11 -25h368q10 0 11 25v59q0 25 -11 25h-368q-10 0 -11 -25v-59zM829 614q0 -23 11 -22h368 q10 0 11 22v62q0 25 -11 24h-368q-10 0 -11 -24v-62z" />
<glyph unicode="&#xf3;" d="M92 254q0 -23 10 -23h369q10 0 10 23v61q0 23 -10 23h-369q-10 0 -10 -23v-61zM92 375q0 -25 10 -25h369q10 0 10 25v59q0 25 -10 25h-369q-10 0 -10 -25v-59zM92 496q0 -25 10 -25h369q10 0 10 25v59q0 25 -10 25h-369q-10 0 -10 -25v-59zM92 614q0 -23 10 -22h369 q10 0 10 22v62q0 25 -10 24h-369q-10 0 -10 -24v-62zM276 14q0 -25 11 -24h737q10 0 10 24v60q0 25 -10 24h-737q-10 0 -11 -24v-60zM276 135q0 -25 11 -24h737q10 0 10 24v60q0 25 -10 24h-737q-10 0 -11 -24v-60zM276 735q0 -25 11 -24h737q10 0 10 24v62q0 23 -10 22 h-737q-10 0 -11 -22v-62zM276 856q0 -25 11 -25h737q10 0 10 25v59q0 25 -10 25h-737q-10 0 -11 -25v-59zM461 1096q0 -23 10 -23h369q10 0 10 23v61q0 23 -10 23h-369q-10 0 -10 -23v-61zM645 1217q0 -25 10 -25h369q10 0 10 25v59q0 25 -10 24h-369q-10 0 -10 -24v-59z M829 254q0 -23 11 -23h368q10 0 11 23v61q0 23 -11 23h-368q-10 0 -11 -23v-61zM829 375q0 -25 11 -25h368q10 0 11 25v59q0 25 -11 25h-368q-10 0 -11 -25v-59zM829 496q0 -25 11 -25h368q10 0 11 25v59q0 25 -11 25h-368q-10 0 -11 -25v-59zM829 614q0 -23 11 -22h368 q10 0 11 22v62q0 25 -11 24h-368q-10 0 -11 -24v-62z" />
<glyph unicode="&#xf4;" d="M92 254q0 -23 10 -23h369q10 0 10 23v61q0 23 -10 23h-369q-10 0 -10 -23v-61zM92 375q0 -25 10 -25h369q10 0 10 25v59q0 25 -10 25h-369q-10 0 -10 -25v-59zM92 496q0 -25 10 -25h369q10 0 10 25v59q0 25 -10 25h-369q-10 0 -10 -25v-59zM92 614q0 -23 10 -22h369 q10 0 10 22v62q0 25 -10 24h-369q-10 0 -10 -24v-62zM276 14q0 -25 11 -24h737q10 0 10 24v60q0 25 -10 24h-737q-10 0 -11 -24v-60zM276 135q0 -25 11 -24h737q10 0 10 24v60q0 25 -10 24h-737q-10 0 -11 -24v-60zM276 735q0 -25 11 -24h737q10 0 10 24v62q0 23 -10 22 h-737q-10 0 -11 -22v-62zM276 856q0 -25 11 -25h737q10 0 10 25v59q0 25 -10 25h-737q-10 0 -11 -25v-59zM276 1096q0 -23 11 -23h184q10 0 10 23v61q0 23 -10 23h-184q-10 0 -11 -23v-61zM461 1217q0 -25 10 -25h369q10 0 10 25v59q0 25 -10 24h-369q-10 0 -10 -24v-59z M829 254q0 -23 11 -23h368q10 0 11 23v61q0 23 -11 23h-368q-10 0 -11 -23v-61zM829 375q0 -25 11 -25h368q10 0 11 25v59q0 25 -11 25h-368q-10 0 -11 -25v-59zM829 496q0 -25 11 -25h368q10 0 11 25v59q0 25 -11 25h-368q-10 0 -11 -25v-59zM829 614q0 -23 11 -22h368 q10 0 11 22v62q0 25 -11 24h-368q-10 0 -11 -24v-62zM829 1096q0 -23 11 -23h184q10 0 10 23v61q0 23 -10 23h-184q-10 0 -11 -23v-61z" />
<glyph unicode="&#xf5;" d="M92 254q0 -23 10 -23h369q10 0 10 23v61q0 23 -10 23h-369q-10 0 -10 -23v-61zM92 375q0 -25 10 -25h369q10 0 10 25v59q0 25 -10 25h-369q-10 0 -10 -25v-59zM92 496q0 -25 10 -25h369q10 0 10 25v59q0 25 -10 25h-369q-10 0 -10 -25v-59zM92 614q0 -23 10 -22h369 q10 0 10 22v62q0 25 -10 24h-369q-10 0 -10 -24v-62zM256 1096q0 -23 10 -23h185q10 0 10 23v61q0 23 -10 23h-185q-10 0 -10 -23v-61zM276 14q0 -25 11 -24h737q10 0 10 24v60q0 25 -10 24h-737q-10 0 -11 -24v-60zM276 135q0 -25 11 -24h737q10 0 10 24v60q0 25 -10 24 h-737q-10 0 -11 -24v-60zM276 735q0 -25 11 -24h737q10 0 10 24v62q0 23 -10 22h-737q-10 0 -11 -22v-62zM276 856q0 -25 11 -25h737q10 0 10 25v59q0 25 -10 25h-737q-10 0 -11 -25v-59zM440 1217q0 -25 11 -25h184q10 0 10 25v59q0 25 -10 24h-184q-10 0 -11 -24v-59z M625 1096q0 -23 10 -23h184q10 0 10 23v61q0 23 -10 23h-184q-10 0 -10 -23v-61zM809 1217q0 -25 10 -25h185q10 0 10 25v59q0 25 -10 24h-185q-10 0 -10 -24v-59zM829 254q0 -23 11 -23h368q10 0 11 23v61q0 23 -11 23h-368q-10 0 -11 -23v-61zM829 375q0 -25 11 -25h368 q10 0 11 25v59q0 25 -11 25h-368q-10 0 -11 -25v-59zM829 496q0 -25 11 -25h368q10 0 11 25v59q0 25 -11 25h-368q-10 0 -11 -25v-59zM829 614q0 -23 11 -22h368q10 0 11 22v62q0 25 -11 24h-368q-10 0 -11 -24v-62z" />
<glyph unicode="&#xf6;" d="M92 254q0 -23 10 -23h369q10 0 10 23v61q0 23 -10 23h-369q-10 0 -10 -23v-61zM92 375q0 -25 10 -25h369q10 0 10 25v59q0 25 -10 25h-369q-10 0 -10 -25v-59zM92 496q0 -25 10 -25h369q10 0 10 25v59q0 25 -10 25h-369q-10 0 -10 -25v-59zM92 614q0 -23 10 -22h369 q10 0 10 22v62q0 25 -10 24h-369q-10 0 -10 -24v-62zM276 14q0 -25 11 -24h737q10 0 10 24v60q0 25 -10 24h-737q-10 0 -11 -24v-60zM276 135q0 -25 11 -24h737q10 0 10 24v60q0 25 -10 24h-737q-10 0 -11 -24v-60zM276 735q0 -25 11 -24h737q10 0 10 24v62q0 23 -10 22 h-737q-10 0 -11 -22v-62zM276 856q0 -25 11 -25h737q10 0 10 25v59q0 25 -10 25h-737q-10 0 -11 -25v-59zM276 1096q0 -23 11 -23h184q10 0 10 23v61q0 23 -10 23h-184q-10 0 -11 -23v-61zM276 1217q0 -25 11 -25h184q10 0 10 25v59q0 25 -10 24h-184q-10 0 -11 -24v-59z M829 254q0 -23 11 -23h368q10 0 11 23v61q0 23 -11 23h-368q-10 0 -11 -23v-61zM829 375q0 -25 11 -25h368q10 0 11 25v59q0 25 -11 25h-368q-10 0 -11 -25v-59zM829 496q0 -25 11 -25h368q10 0 11 25v59q0 25 -11 25h-368q-10 0 -11 -25v-59zM829 614q0 -23 11 -22h368 q10 0 11 22v62q0 25 -11 24h-368q-10 0 -11 -24v-62zM829 1096q0 -23 11 -23h184q10 0 10 23v61q0 23 -10 23h-184q-10 0 -11 -23v-61zM829 1217q0 -25 11 -25h184q10 0 10 25v59q0 25 -10 24h-184q-10 0 -11 -24v-59z" />
<glyph unicode="&#xf7;" horiz-adv-x="757" d="M92 516q0 -25 10 -24h553q10 0 11 24v59q0 25 -11 25h-553q-10 0 -10 -25v-59zM92 637q0 -25 10 -25h553q10 0 11 25v59q0 25 -11 25h-553q-10 0 -10 -25v-59zM186 897q0 -25 11 -25h368q10 0 10 25v59q0 25 -10 25h-368q-10 0 -11 -25v-59zM186 1016q0 -23 11 -23h368 q10 0 10 23v61q0 23 -10 23h-368q-10 0 -11 -23v-61zM186 1137q0 -25 11 -25h368q10 0 10 25v59q0 25 -10 25h-368q-10 0 -11 -25v-59zM195 14q0 -25 10 -24h368q10 0 11 24v60q0 25 -11 24h-368q-10 0 -10 -24v-60zM195 133q0 -23 10 -22h368q10 0 11 22v62q0 25 -11 24 h-368q-10 0 -10 -24v-62zM195 254q0 -25 10 -25h368q10 0 11 25v59q0 25 -11 25h-368q-10 0 -10 -25v-59z" />
<glyph unicode="&#xf8;" d="M92 254q0 -23 10 -23h369q10 0 10 23v61q0 23 -10 23h-369q-10 0 -10 -23v-61zM92 375q0 -25 10 -25h369q10 0 10 25v59q0 25 -10 25h-369q-10 0 -10 -25v-59zM92 496q0 -25 10 -25h369q10 0 10 25v59q0 25 -10 25h-369q-10 0 -10 -25v-59zM92 614q0 -23 10 -22h1106 q10 0 11 22v62q0 25 -11 24h-1106q-10 0 -10 -24v-62zM92 735q0 -25 10 -24h369q10 0 10 24v62q0 23 -10 22h-369q-10 0 -10 -22v-62zM92 856q0 -25 10 -25h369q10 0 10 25v59q0 25 -10 25h-369q-10 0 -10 -25v-59zM92 977q0 -25 10 -25h369q10 0 10 25v59q0 25 -10 25h-369 q-10 0 -10 -25v-59zM276 14q0 -25 11 -24h737q10 0 10 24v60q0 25 -10 24h-737q-10 0 -11 -24v-60zM276 135q0 -25 11 -24h737q10 0 10 24v60q0 25 -10 24h-737q-10 0 -11 -24v-60zM276 1096q0 -23 11 -23h737q10 0 10 23v61q0 23 -10 23h-737q-10 0 -11 -23v-61zM276 1217 q0 -25 11 -25h737q10 0 10 25v59q0 25 -10 24h-737q-10 0 -11 -24v-59zM829 254q0 -23 11 -23h368q10 0 11 23v61q0 23 -11 23h-368q-10 0 -11 -23v-61zM829 375q0 -25 11 -25h368q10 0 11 25v59q0 25 -11 25h-368q-10 0 -11 -25v-59zM829 496q0 -25 11 -25h368q10 0 11 25 v59q0 25 -11 25h-368q-10 0 -11 -25v-59zM829 735q0 -25 11 -24h368q10 0 11 24v62q0 23 -11 22h-368q-10 0 -11 -22v-62zM829 856q0 -25 11 -25h368q10 0 11 25v59q0 25 -11 25h-368q-10 0 -11 -25v-59zM829 977q0 -25 11 -25h368q10 0 11 25v59q0 25 -11 25h-368 q-10 0 -11 -25v-59z" />
<glyph unicode="&#xf9;" d="M92 254q0 -23 10 -23h369q10 0 10 23v61q0 23 -10 23h-369q-10 0 -10 -23v-61zM92 375q0 -25 10 -25h369q10 0 10 25v59q0 25 -10 25h-369q-10 0 -10 -25v-59zM92 496q0 -25 10 -25h369q10 0 10 25v59q0 25 -10 25h-369q-10 0 -10 -25v-59zM92 614q0 -23 10 -22h369 q10 0 10 22v62q0 25 -10 24h-369q-10 0 -10 -24v-62zM92 735q0 -25 10 -24h369q10 0 10 24v62q0 23 -10 22h-369q-10 0 -10 -22v-62zM276 14q0 -25 11 -24h737q10 0 10 24v60q0 25 -10 24h-737q-10 0 -11 -24v-60zM276 135q0 -25 11 -24h737q10 0 10 24v60q0 25 -10 24h-737 q-10 0 -11 -24v-60zM461 1217q0 -25 10 -25h369q10 0 10 25v59q0 25 -10 24h-369q-10 0 -10 -24v-59zM645 1096q0 -23 10 -23h369q10 0 10 23v61q0 23 -10 23h-369q-10 0 -10 -23v-61zM829 254q0 -23 11 -23h368q10 0 11 23v61q0 23 -11 23h-368q-10 0 -11 -23v-61zM829 375 q0 -25 11 -25h368q10 0 11 25v59q0 25 -11 25h-368q-10 0 -11 -25v-59zM829 496q0 -25 11 -25h368q10 0 11 25v59q0 25 -11 25h-368q-10 0 -11 -25v-59zM829 614q0 -23 11 -22h368q10 0 11 22v62q0 25 -11 24h-368q-10 0 -11 -24v-62zM829 735q0 -25 11 -24h368q10 0 11 24 v62q0 23 -11 22h-368q-10 0 -11 -22v-62z" />
<glyph unicode="&#xfa;" d="M92 254q0 -23 10 -23h369q10 0 10 23v61q0 23 -10 23h-369q-10 0 -10 -23v-61zM92 375q0 -25 10 -25h369q10 0 10 25v59q0 25 -10 25h-369q-10 0 -10 -25v-59zM92 496q0 -25 10 -25h369q10 0 10 25v59q0 25 -10 25h-369q-10 0 -10 -25v-59zM92 614q0 -23 10 -22h369 q10 0 10 22v62q0 25 -10 24h-369q-10 0 -10 -24v-62zM92 735q0 -25 10 -24h369q10 0 10 24v62q0 23 -10 22h-369q-10 0 -10 -22v-62zM276 14q0 -25 11 -24h737q10 0 10 24v60q0 25 -10 24h-737q-10 0 -11 -24v-60zM276 135q0 -25 11 -24h737q10 0 10 24v60q0 25 -10 24h-737 q-10 0 -11 -24v-60zM461 1096q0 -23 10 -23h369q10 0 10 23v61q0 23 -10 23h-369q-10 0 -10 -23v-61zM645 1217q0 -25 10 -25h369q10 0 10 25v59q0 25 -10 24h-369q-10 0 -10 -24v-59zM829 254q0 -23 11 -23h368q10 0 11 23v61q0 23 -11 23h-368q-10 0 -11 -23v-61zM829 375 q0 -25 11 -25h368q10 0 11 25v59q0 25 -11 25h-368q-10 0 -11 -25v-59zM829 496q0 -25 11 -25h368q10 0 11 25v59q0 25 -11 25h-368q-10 0 -11 -25v-59zM829 614q0 -23 11 -22h368q10 0 11 22v62q0 25 -11 24h-368q-10 0 -11 -24v-62zM829 735q0 -25 11 -24h368q10 0 11 24 v62q0 23 -11 22h-368q-10 0 -11 -22v-62z" />
</font>
</defs>
</svg>
