<?xml version="1.0" standalone="no"?>
<!DOCTYPE svg PUBLIC "-//W3C//DTD SVG 1.1//EN" "http://www.w3.org/Graphics/SVG/1.1/DTD/svg11.dtd" >
<svg xmlns="http://www.w3.org/2000/svg">
<metadata></metadata>
<defs>
<font id="pixbasic" horiz-adv-x="1093" >
<font-face units-per-em="2048" ascent="1638" descent="-410" />
<missing-glyph horiz-adv-x="696" />
<glyph horiz-adv-x="2048" />
<glyph horiz-adv-x="2048" />
<glyph unicode="&#xd;" horiz-adv-x="681" />
<glyph unicode="&#x9;" horiz-adv-x="409" />
<glyph unicode=" "  horiz-adv-x="696" />
<glyph unicode="&#x09;" horiz-adv-x="696" />
<glyph unicode="&#xa0;" horiz-adv-x="696" />
<glyph unicode="!" horiz-adv-x="548" d="M137 0v274h275v-274h-275zM137 547v819h275v-819h-275z" />
<glyph unicode="&#x22;" d="M137 817v547h273v-547h-273zM684 817v547h272v-547h-272z" />
<glyph unicode="#" horiz-adv-x="1640" d="M137 274v275h273v272h-273v273h273v274h274v-274h272v274h275v-274h272v-273h-272v-272h272v-275h-272v-272h-275v272h-272v-272h-274v272h-273zM684 549h272v272h-272v-272z" />
<glyph unicode="$" horiz-adv-x="1638" d="M137 0v274h547v273h-272v272h272v273h-272v274h1091v-274h-547v-273h273v-272h-273v-273h273v-274h-1092zM137 819v273h275v-273h-275zM1229 274v273h274v-273h-274z" />
<glyph unicode="%" horiz-adv-x="1363" d="M0 0v272h272v-272h-272zM272 272v275h275v-275h-275zM272 1092v274h275v-274h-275zM547 547v272h272v-272h-272zM819 0v272h273v-272h-273zM819 819v273h273v-273h-273zM1092 1092v274h274v-274h-274z" />
<glyph unicode="&#x26;" horiz-adv-x="1366" d="M137 0v1092h275v-273h272v273h-272v274h544v-547h273v-272h-273v-273h273v-274h-1092zM412 274h272v273h-272v-273z" />
<glyph unicode="'" horiz-adv-x="546" d="M137 819v545h273v-545h-273z" />
<glyph unicode="(" horiz-adv-x="821" d="M137 0v1364h275v-1364h-275zM412 0h272v-274h-272v274zM412 1364v274h272v-274h-272z" />
<glyph unicode=")" horiz-adv-x="821" d="M137 0h273v-274h-273v274zM137 1364v274h273v-274h-273zM410 0v1364h274v-1364h-274z" />
<glyph unicode="*" d="M137 819v273h273v-273h-273zM410 545v274h274v-274h-274zM410 1092v274h274v-274h-274zM684 819v273h272v-273h-272z" />
<glyph unicode="+" d="M137 274v273h273v272h272v-272h274v-273h-274v-272h-272v272h-273z" />
<glyph unicode="," horiz-adv-x="649" d="M43 -272l205 546h272l-205 -546h-272z" />
<glyph unicode="-" horiz-adv-x="819" d="M137 547v272h545v-272h-545z" />
<glyph unicode="." horiz-adv-x="548" d="M137 0v274h275v-274h-275z" />
<glyph unicode="/" horiz-adv-x="851" d="M0 -274l715 1912h272l-715 -1912h-272z" />
<glyph unicode="0" d="M137 0v1366h819v-1366h-819zM412 274h272v818h-272v-818z" />
<glyph unicode="1" horiz-adv-x="821" d="M137 1092v274h547v-1366h-274v1092h-273z" />
<glyph unicode="2" d="M137 0v819h547v273h-547v274h819v-819h-546v-273h546v-274h-819z" />
<glyph unicode="3" d="M137 0v274h547v273h-547v272h547v273h-547v274h819v-1366h-819z" />
<glyph unicode="4" d="M137 547v819h273v-547h272v547h274v-1366h-274v547h-545z" />
<glyph unicode="5" d="M137 0v274h547v273h-547v819h819v-274h-544v-273h544v-819h-819z" />
<glyph unicode="6" d="M137 0v1366h819v-274h-544v-273h544v-819h-819zM412 274h272v273h-272v-273z" />
<glyph unicode="7" d="M137 1094v274h819v-549h-272v-817h-272v817h272v275h-547z" />
<glyph unicode="8" d="M137 0v1366h819v-1366h-819zM410 274h274v273h-274v-273zM410 819h274v273h-274v-273z" />
<glyph unicode="9" d="M137 0v274h545v273h-545v819h819v-1366h-819zM410 819h272v273h-272v-273z" />
<glyph unicode=":" horiz-adv-x="546" d="M137 0v274h273v-274h-273zM137 547v272h273v-272h-273z" />
<glyph unicode=";" horiz-adv-x="546" d="M-68 -272l205 544h273l-205 -544h-273zM137 545v274h273v-274h-273z" />
<glyph unicode="&#x3c;" horiz-adv-x="821" d="M137 274v275h275v-275h-275zM410 2v272h274v-272h-274zM410 547v274h274v-274h-274z" />
<glyph unicode="=" d="M137 0v272h819v-272h-819zM137 547v272h819v-272h-819z" />
<glyph unicode="&#x3e;" horiz-adv-x="821" d="M137 0v274h275v-274h-275zM137 547v272h275v-272h-275zM410 272v275h274v-275h-274z" />
<glyph unicode="?" d="M137 1092v274h819v-819h-546v272h272v273h-545zM410 0v274h272v-274h-272z" />
<glyph unicode="@" horiz-adv-x="2185" d="M137 0v819h273v-819h-273zM410 819v273h274v-273h-274zM684 0v547h272v-275h273v275h-273v272h547v-547h273v-272h-1092zM684 1092v272h1092v-272h-1092zM1776 272v820h272v-820h-272z" />
<glyph unicode="A" d="M137 0v1366h819v-1366h-272v547h-274v-547h-273zM410 819h274v273h-274v-273z" />
<glyph unicode="B" d="M137 0v1366h547v-274h272v-1092h-819zM412 274h272v273h-272v-273zM412 819h272v273h-272v-273z" />
<glyph unicode="C" d="M137 0v1366h819v-274h-544v-818h544v-274h-819z" />
<glyph unicode="D" d="M137 0v1366h547v-274h-274v-818h274v-274h-547zM684 274v818h272v-818h-272z" />
<glyph unicode="E" d="M137 0v1366h819v-274h-546v-273h546v-272h-546v-273h546v-274h-819z" />
<glyph unicode="F" d="M137 0v1366h819v-274h-546v-273h546v-272h-546v-547h-273z" />
<glyph unicode="G" d="M137 0v1366h819v-274h-544v-818h272v545h272v-819h-819z" />
<glyph unicode="H" d="M137 0v1366h275v-547h272v547h272v-1366h-272v547h-272v-547h-275z" />
<glyph unicode="I" horiz-adv-x="546" d="M137 0v1366h273v-1366h-273z" />
<glyph unicode="J" d="M137 0v547h273v-273h274v1092h272v-1366h-819z" />
<glyph unicode="K" d="M137 0v1366h273v-547h274v-272h-274v-547h-273zM684 0v547h272v-547h-272zM684 819v547h272v-547h-272z" />
<glyph unicode="L" d="M137 0v1366h275v-1092h544v-274h-819z" />
<glyph unicode="M" horiz-adv-x="1640" d="M137 0v1366h1092v-274h274v-1092h-274v1092h-273v-1092h-272v1092h-272v-1092h-275z" />
<glyph unicode="N" d="M137 0v1366h547v-274h272v-1092h-272v1092h-272v-1092h-275z" />
<glyph unicode="O" d="M137 0v1366h819v-1366h-819zM410 274h274v818h-274v-818z" />
<glyph unicode="P" d="M137 0v1366h819v-819h-546v-547h-273zM410 819h274v273h-274v-273z" />
<glyph unicode="Q" d="M137 0v1366h819v-1366h-272v-272h-274v272h-273zM410 274h274v818h-274v-818z" />
<glyph unicode="R" d="M137 0v1366h819v-547h-272v273h-2h-272v-273h274v-272h-274v-547h-273zM684 0v274v273h272v-273v-274h-272z" />
<glyph unicode="S" d="M137 0v274h545h2v273h-2h-545v819h819v-274h-546v-273h546v-819h-819z" />
<glyph unicode="T" d="M137 1092v274h819v-274h-274v-1092h-272v1092h-273z" />
<glyph unicode="U" d="M137 0v1366h273v-1092h274v1092h272v-1366h-819z" />
<glyph unicode="V" d="M137 274v1092h273v-1092h-273zM410 0v274h272v-274h-272zM682 274v1092h272v-1092h-272z" />
<glyph unicode="W" horiz-adv-x="1638" d="M137 274v1092h273v-1092h-273zM410 0v274h272l2 1092h272v-1092h273v-274h-819zM1229 274v1092h272v-1092h-272z" />
<glyph unicode="X" d="M137 0v547h273v-547h-273zM137 819v547h273v-547h-273zM410 547v272h272v-272h-272zM682 0v547h272v-547h-272zM682 819v547h272v-547h-272z" />
<glyph unicode="Y" d="M137 547v819h273v-547h272v547h274v-819h-274v-547h-272v547h-273z" />
<glyph unicode="Z" d="M137 0v547h273v-273h546v-274h-819zM137 1092v274h819v-547h-274v273h-545zM410 547v272h272v-272h-272z" />
<glyph unicode="[" horiz-adv-x="823" d="M139 -274v1912h547v-272h-272v-1366h272v-274h-547z" />
<glyph unicode="\" horiz-adv-x="987" d="M-135 1638l715 -1912h272l-715 1912h-272z" />
<glyph unicode="]" horiz-adv-x="819" d="M137 0h273v1364h-273v274h545v-1912h-545v274z" />
<glyph unicode="^" horiz-adv-x="815" d="M152 1120l254 256l256 -256l-130 -127l-126 127l-127 -127z" />
<glyph unicode="_" horiz-adv-x="1368" d="M137 2v272h1092v-272h-1092z" />
<glyph unicode="a" d="M137 0v545h275v-273h272v273h-272v274h544v-819h-819z" />
<glyph unicode="b" d="M137 0v1366h273v-547h546v-819h-819zM410 274h274v273h-274v-273z" />
<glyph unicode="c" horiz-adv-x="821" d="M137 -2v821h547v-274h-274v-273h274v-274h-547z" />
<glyph unicode="d" d="M137 0v819h547v547h272v-1366h-819zM410 274h274v273h-274v-273z" />
<glyph unicode="e" d="M137 0v819h819v-545h-272v273h-274v-273h274v-274h-547z" />
<glyph unicode="f" horiz-adv-x="956" d="M0 549v274h272v545h547v-272h-274v-273h274v-274h-274v-547h-273v547h-272z" />
<glyph unicode="g" d="M137 0v819h819v-819h-272v-272h-274v272h-273zM410 274h274v273h-274v-273z" />
<glyph unicode="h" d="M137 0v1366h273v-547h546v-819h-272v547h-274v-547h-273z" />
<glyph unicode="i" horiz-adv-x="546" d="M137 0v819h273v-819h-273zM137 1092v274h273v-274h-273z" />
<glyph unicode="j" horiz-adv-x="821" d="M137 0h275v819h272v-1091h-547v272zM412 1092v274h272v-274h-272z" />
<glyph unicode="k" d="M137 0v1366h273v-819h274v-273h-274v-274h-273zM684 0v274h272v-274h-272zM684 547v272h272v-272h-272z" />
<glyph unicode="l" horiz-adv-x="546" d="M137 0v1366h273v-1366h-273z" />
<glyph unicode="m" horiz-adv-x="1640" d="M137 0v819h1366v-819h-274v547h-273v-547h-272v547h-272v-547h-275z" />
<glyph unicode="n" d="M137 0v819h819v-819h-272v547h-272v-547h-275z" />
<glyph unicode="o" d="M137 0v819h819v-819h-819zM410 274h274v273h-274v-273z" />
<glyph unicode="p" horiz-adv-x="1097" d="M141 -272v1091h820v-819h-547v-272h-273zM414 274h274v273h-274v-273z" />
<glyph unicode="q" d="M137 0v819h819v-1091h-272v272h-547zM410 274h274v273h-274v-273z" />
<glyph unicode="r" horiz-adv-x="821" d="M137 0v819h547v-272h-274v-547h-273z" />
<glyph unicode="s" horiz-adv-x="956" d="M0 0v274h272v545h547v-272h-272v-547h-547z" />
<glyph unicode="t" horiz-adv-x="819" d="M137 0v1092h273v-273h272v-272h-272v-547h-273z" />
<glyph unicode="u" d="M137 0v819h273v-545h2h272v545h272v-819h-819z" />
<glyph unicode="v" d="M137 274v547h273v-547h-273zM410 0v274h272v-274h-272zM682 274v547h272v-547h-272z" />
<glyph unicode="w" horiz-adv-x="1638" d="M137 274v545h273v-545h-273zM410 0v274h272v545h274v-545h273v-274h-819zM1229 274v545h272v-545h-272z" />
<glyph unicode="x" horiz-adv-x="1091" d="M137 0v274h273v-274h-273zM137 547v272h273v-272h-273zM410 274v273h272v-273h-272zM682 0v274h272v-274h-272zM682 547v272h272v-272h-272z" />
<glyph unicode="y" d="M137 0v819h273l2 -545h272v545h272v-1091h-272v272h-547z" />
<glyph unicode="z" d="M137 547v272h545v-545h274v-274h-546v547h-273z" />
<glyph unicode="{" horiz-adv-x="1097" d="M139 549v274h273v-274h-273zM412 -270v819h274v-545h272v-274h-546zM412 823v819h546v-274h-272v-545h-274z" />
<glyph unicode="|" horiz-adv-x="546" d="M137 -274v1912h273v-1912h-273z" />
<glyph unicode="}" horiz-adv-x="1097" d="M139 0h273v547h274v-821h-547v274zM139 1366v272h547v-819h-274v547h-273zM686 547v272h272v-272h-272z" />
<glyph horiz-adv-x="2187" />
<glyph horiz-adv-x="2457" />
<glyph unicode="&#xa3;" horiz-adv-x="2115" d="M137 0v195h193v-195h-193zM137 -12h193v-193h-193v193zM137 207v192h193v-192h-193zM137 412v194h193v-194h-193zM342 0v195h195v-195h-195zM342 412v194h195v-194h-195zM549 0v195h192v-195h-192zM549 207v192h192v-192h-192zM549 412v194h192v-194h-192zM961 0v195h192 v-195h-192zM961 207v192h192v-192h-192zM961 412v194h192v-194h-192zM961 758v192h192v-192h-192zM1372 0v195h195v-195h-195zM1372 412v194h195v-194h-195zM1579 207v192h193v-192h-193zM1784 0v195h194v-195h-194zM1784 412v194h194v-194h-194z" />
<glyph unicode="&#xa7;" d="M137 0h545v-272h-545v272zM137 272v1092h273v-272h546v-1092h-274v272h-545zM410 545h272v274h-272v-274zM410 1364v272h546v-272h-546z" />
<glyph unicode="&#xa9;" horiz-adv-x="1916" d="M139 0v1366h275v-1366h-275zM414 0h1091v-274h-1091v274zM414 1364v274h1091v-274h-1091zM686 272v820h547v-273h-275v-274h275v-273h-547zM1505 0v1366h275v-1366h-275z" />
<glyph unicode="&#xab;" horiz-adv-x="1024" d="M-55 1366h272l205 -547h-272zM489 1366h273l205 -547h-273z" />
<glyph unicode="&#xac;" horiz-adv-x="1638" d="M137 0v274h273v-274h-273zM137 547v272v273v274h273h274h272h273h274v-274v-273v-272h-274v-273h-273v273h-272v-273h-274v273h-273zM410 819h274v273h-274v-273zM956 819h273v273h-273v-273zM1229 0v274h274v-274h-274z" />
<glyph unicode="&#xad;" horiz-adv-x="1368" d="M137 274v273h1092v-273h-1092z" />
<glyph unicode="&#xae;" horiz-adv-x="1679" d="M-152 1057l1829 67l-84 -1034l-1593 -90zM51 473l125 -352l121 12l8 156l57 -146l146 33v90q29 -66 92 -73q59 -10 100 22.5t56 101.5q2 12 4 29l20 -145l105 12l-21 104l82 -92l53 19l-8 -45l96 -19l21 119l41 -127l102 -4l-80 182l64 64q6 -25 33.5 -41.5t57.5 -22.5 t51.5 -17t19.5 -26q-4 -12 -13.5 -16t-21.5 3t-19 25l-81 -18q14 -125 151 -86q96 29 90 102q-6 86 -123 107q-57 8 -43 35q25 33 58 -10l80 36q-10 33 -50.5 52.5t-81.5 9.5q-70 -14 -98 -62l-37 25l-92 -88l17 88l-93 10l-32 -223l-70 59q43 29 54.5 74t-13.5 90 q-20 37 -106.5 32t-135.5 -46l6 -41q-25 55 -73 61q-49 8 -95.5 -24.5t-66.5 -87.5v149l-119 -26l-4 -191l-66 174l-90 -4l-6 -199l-67 197zM131 780q2 -92 57.5 -143t142.5 -53t191 32l68 -28l26 92h52l34 -111l78 35v-18l74 10l-12 129l45 -125l59 14l8 113l27 -113l59 11 l-2 -19l248 -28l6 88l-127 4l6 51l74 -2l6 78l-90 4l6 41l129 -13l11 101l-240 6l-23 -248l-49 262l-96 -16l-8 -156l-55 144l-68 -13l12 -280l-71 282l-105 9l-69 -240l-33 188l-183 -34l11 -60l88 6v-106q-86 0 -130 31.5t-36 97.5q6 47 66.5 83t150.5 23l27 74 q-51 16 -115 7t-119 -31.5t-93 -70.5t-38 -108zM581.5 335.5q-8.5 24.5 1 53.5t32 43t42.5 8q20 -8 25.5 -36.5t-4.5 -57.5q-20 -57 -68 -43q-20 8 -28.5 32.5zM627 743l18 72l21 -76zM844 471q16 10 33.5 4t21.5 -24q2 -14 -9 -28.5t-36 -21.5z" />
<glyph unicode="&#xb0;" horiz-adv-x="548" d="M137 549v274h275v-274h-275z" />
<glyph unicode="&#xb1;" horiz-adv-x="1912" d="M137 0v274h273v-274h-273zM684 274v273h272v-273h-272zM956 819v273h273v-273h-273zM1503 1092v274h273v-274h-273z" />
<glyph unicode="&#xb5;" horiz-adv-x="1638" d="M137 0v819h273v-545h274v273h272v-273h273v545h274v-819h-1366zM410 819v273h274v-273h-274zM684 1092v274h272v-274h-272zM956 819v273h273v-273h-273z" />
<glyph unicode="&#xb7;" horiz-adv-x="546" d="M137 272v275h273v-275h-273z" />
<glyph unicode="&#xbb;" horiz-adv-x="1024" d="M55 819l205 547h272l-204 -547h-273zM600 819l205 547h272l-205 -547h-272z" />
<glyph unicode="&#xc0;" d="M137 0v1366h819v-1366h-272v547h-274v-547h-273zM330 1776l141 143l285 -285l-144 -143zM410 819h274v273h-274v-273z" />
<glyph unicode="&#xc2;" d="M137 0v1366h819v-1366h-272v547h-274v-547h-273zM289 1661l256 256l254 -256l-127 -127l-127 127l-127 -127zM410 819h274v273h-274v-273z" />
<glyph unicode="&#xc3;" d="M137 0v1366h819v-1366h-272v547h-274v-547h-273zM252 1634v226h225v-226h-225zM410 819h274v273h-274v-273zM610 1634v226h224v-226h-224z" />
<glyph unicode="&#xc6;" horiz-adv-x="1368" d="M137 0v274v273v272v273v274h275h272h272h273v-274h-273v-273h273v-272h-273v-273h273v-274h-273h-272v274v273h-272v-273v-274h-275zM412 819h272v273h-272v-273z" />
<glyph unicode="&#xc7;" d="M137 0v1366h819v-274h-546v-818h546v-274h-294l-103 -272h-215l102 272h-309z" />
<glyph unicode="&#xc8;" d="M137 0v1366h819v-274h-546v-273h546v-272h-546v-273h546v-274h-819zM332 1776l141 143l285 -285l-142 -143z" />
<glyph unicode="&#xc9;" d="M137 0v1366h819v-274h-546v-273h546v-272h-546v-273h546v-274h-819zM332 1634l284 285l142 -143l-285 -285z" />
<glyph unicode="&#xca;" d="M137 0v1366h819v-274h-546v-273h546v-272h-546v-273h546v-274h-819zM289 1661l256 256l254 -256l-127 -127l-127 127l-127 -127z" />
<glyph unicode="&#xcb;" d="M137 0v1366h819v-274h-546v-273h546v-272h-546v-273h546v-274h-819zM256 1634v226h223v-226h-223zM612 1634v226h226v-226h-226z" />
<glyph unicode="&#xcd;" d="M137 0v274h273v818h-273v274h819v-274h-272v-818h272v-274h-819z" />
<glyph unicode="&#xce;" horiz-adv-x="546" d="M18 1661l254 256l256 -256l-127 -127l-129 127l-127 -127zM137 0v1366h273v-1366h-273z" />
<glyph unicode="&#xcf;" horiz-adv-x="546" d="M-16 1634v226h223v-226h-223zM137 0v1366h273v-1366h-273zM340 1634v226h225v-226h-225z" />
<glyph unicode="&#xd2;" horiz-adv-x="2457" d="M135 549v272h275v-272h-275zM410 274v275h272v-275h-272zM682 549v272h272v-272h-272zM682 1366v274h272v-274h-272zM956 1094v272h273v-272h-273zM1229 1366v274h272v-274h-272zM1501 821v273h273v-273h-273zM1774 549v272h274v-272h-274zM2048 821v273h272v-273h-272z " />
<glyph unicode="&#xd3;" horiz-adv-x="2187" d="M137 547v274h273v-274h-273zM410 274v273h272v-273h-272zM410 821v273h272v-273h-272zM684 0v274h817v-274h-817zM684 1094v272h817v-272h-817zM956 547v274h273v-274h-273zM1501 274v273h275v-273h-275zM1501 821v273h275v-273h-275zM1776 547v274h272v-274h-272z" />
<glyph unicode="&#xd4;" d="M137 0v1366h819v-1366h-819zM293 1661l254 256l254 -256l-127 -127l-127 127l-127 -127zM410 274h274v818h-274v-818z" />
<glyph unicode="&#xd5;" d="M137 0v1366h819v-1366h-819zM254 1634v226h225v-226h-225zM410 274h274v818h-274v-818zM612 1634v226h224v-226h-224z" />
<glyph unicode="&#xd8;" horiz-adv-x="1912" d="M137 274v820h273v-820h-273zM410 2v272h272v-272h-272zM410 1094v272h272v-272h-272zM682 2h819v-272h-819v272zM682 1366v274h819v-274h-819zM956 547v274h273v-274h-273zM1229 274v273h272v-273h-272zM1229 821v273h272v-273h-272zM1501 2v272h275v-272h-275z M1501 1094v272h275v-272h-275z" />
<glyph unicode="&#xd9;" d="M137 0v1366h273v-1092h274v1092h272v-1366h-819zM334 1776l143 143l283 -285l-142 -143z" />
<glyph unicode="&#xda;" horiz-adv-x="1642" d="M139 549v547h273v-547h-273zM412 276v273h274v-273h-274zM412 1096v272h274v-272h-274zM686 2v274h272v-274h-272zM686 823v273h272v-273h-272zM958 276v273h273v-273h-273zM958 1096v272h273v-272h-273zM1231 549v547h274v-547h-274z" />
<glyph unicode="&#xdb;" d="M137 0v1366h273v-1092h274v1092h272v-1366h-819zM289 1661l256 256l254 -256l-127 -127l-127 127l-129 -127z" />
<glyph unicode="&#xdc;" d="M137 0v1366h273v-1092h274v1092h272v-1366h-819zM256 1634v226h225v-226h-225zM612 1634v226h226v-226h-226z" />
<glyph unicode="&#xdd;" horiz-adv-x="1912" />
<glyph unicode="&#xde;" horiz-adv-x="1810" />
<glyph unicode="&#xdf;" d="M137 0v274v273v272v273v274h275h272v-274h-272v-273h272v273h272v-273v-272v-273v-274h-272h-272v-272h-275v272zM412 274h272v273h-272v-273z" />
<glyph unicode="&#xe0;" d="M137 0v547h273v-273h274v273h-274v272h546v-819h-819zM348 1231l144 141l284 -285l-143 -141z" />
<glyph unicode="&#xe2;" d="M137 0v547h273v-273h274v273h-274v272h546v-819h-819zM293 1116l254 254l254 -254l-127 -127l-127 127l-127 -127z" />
<glyph unicode="&#xe4;" d="M137 0v547h275v-273h272v273h-272v272h544v-819h-819zM254 1094v225h225v-225h-225zM610 1094v225h226v-225h-226z" />
<glyph unicode="&#xe6;" horiz-adv-x="1640" d="M137 0v547h273v-273h274v273h-274v272h1093v-545h-272v273h-275v-273h275v-274h-1094z" />
<glyph unicode="&#xe7;" horiz-adv-x="821" d="M137 0v819h547v-272h-274v-273h274v-274h-160l-102 -272h-215l102 272h-172z" />
<glyph unicode="&#xe8;" d="M137 0v819h819v-545h-272v273h-274v-273h274v-274h-547zM330 1235l143 143l283 -284l-142 -144z" />
<glyph unicode="&#xe9;" d="M137 0v819h819v-545h-272v273h-274v-273h274v-274h-547zM330 1094l284 284l144 -143l-285 -285z" />
<glyph unicode="&#xea;" d="M137 0v819h819v-545h-272v273h-274v-273h274v-274h-547zM289 1120l254 256l256 -256l-129 -127l-127 127l-127 -127z" />
<glyph unicode="&#xeb;" d="M137 0v819h819v-545h-272v273h-274v-273h274v-274h-547zM254 1094v225h225v-225h-225zM610 1094v225h226v-225h-226z" />
<glyph unicode="&#xee;" horiz-adv-x="546" d="M18 1128l256 254l254 -254l-127 -129l-127 129l-129 -129zM137 0v274v273v272h273v-272v-273v-274h-273z" />
<glyph unicode="&#xef;" horiz-adv-x="546" d="M-16 1092v225h223v-225h-223zM137 0v274v273v272h273v-272v-273v-274h-273zM340 1092v225h225v-225h-225z" />
<glyph unicode="&#xf4;" d="M137 0v819h819v-819h-819zM291 1120l256 256l254 -256l-127 -127l-127 127l-127 -127zM410 274h274v273h-274v-273z" />
<glyph unicode="&#xf6;" d="M137 0v819h819v-819h-819zM254 1094v225h225v-225h-225zM410 274h274v273h-274v-273zM610 1094v225h226v-225h-226z" />
<glyph unicode="&#xf7;" horiz-adv-x="1638" d="M135 274v273v272v273h275v-273h272v273h-272v274h272h274h273v-274h-273v-273h273v273h272v-273v-272v-273h-272v273h-273h-274h-272v-273h-275zM410 0v274h272v-274h-272zM956 0v274h273v-274h-273z" />
<glyph unicode="&#xf9;" d="M137 0v819h273v-545h2h272v545h272v-819h-819zM330 1235l143 143l285 -284l-144 -144z" />
<glyph unicode="&#xfb;" d="M137 0v819h273v-545h2h272v545h272v-819h-819zM293 1116l254 254l254 -254l-127 -127l-127 127l-127 -127z" />
<glyph unicode="&#xfc;" d="M137 0v819h273v-545h2h272v545h272v-819h-819zM256 1094v225h223v-225h-223zM612 1094v225h226v-225h-226z" />
<glyph unicode="&#x152;" horiz-adv-x="1368" d="M137 0v274v273v272v273v274h275h272h272h273v-274h-273v-273h273v-272h-273v-273h273v-274h-273h-272h-272h-275zM412 274h272v273v272v273h-272v-273v-272v-273z" />
<glyph unicode="&#x153;" horiz-adv-x="1638" d="M137 0v819h1364v-545h-272v273h-275v-273h275v-274h-1092zM410 274h274v273h-274v-273z" />
<glyph unicode="&#x178;" horiz-adv-x="1638" d="M137 1092v274h273v-274h-273zM410 0v274h819v-274h-819zM410 547v272h274v547h272v-547h273v-272h-819zM1229 1092v274h272v-274h-272z" />
<glyph unicode="&#x2c6;" d="M293 1116l254 254l254 -254l-127 -127l-127 127l-127 -127z" />
<glyph unicode="&#x2000;" horiz-adv-x="959" />
<glyph unicode="&#x2001;" horiz-adv-x="1919" />
<glyph unicode="&#x2002;" horiz-adv-x="959" />
<glyph unicode="&#x2003;" horiz-adv-x="1919" />
<glyph unicode="&#x2004;" horiz-adv-x="639" />
<glyph unicode="&#x2005;" horiz-adv-x="479" />
<glyph unicode="&#x2006;" horiz-adv-x="319" />
<glyph unicode="&#x2007;" horiz-adv-x="319" />
<glyph unicode="&#x2008;" horiz-adv-x="239" />
<glyph unicode="&#x2009;" horiz-adv-x="383" />
<glyph unicode="&#x200a;" horiz-adv-x="106" />
<glyph unicode="&#x2010;" horiz-adv-x="819" d="M137 547v272h545v-272h-545z" />
<glyph unicode="&#x2011;" horiz-adv-x="819" d="M137 547v272h545v-272h-545z" />
<glyph unicode="&#x2012;" horiz-adv-x="819" d="M137 547v272h545v-272h-545z" />
<glyph unicode="&#x2013;" horiz-adv-x="819" d="M137 274v273h545v-273h-545z" />
<glyph unicode="&#x2014;" d="M137 274v273h819v-273h-819z" />
<glyph unicode="&#x2018;" horiz-adv-x="483" d="M0 1364h272l205 -547h-272z" />
<glyph unicode="&#x2019;" horiz-adv-x="479" d="M0 819l205 547h272l-205 -547h-272z" />
<glyph unicode="&#x201c;" horiz-adv-x="991" d="M-53 1366h272l205 -547h-272zM459 1366h272l205 -547h-272z" />
<glyph unicode="&#x201d;" horiz-adv-x="991" d="M74 819l205 547zM74 819l205 547h272l-205 -547h-272zM586 819l205 547h272l-205 -547h-272z" />
<glyph unicode="&#x2022;" horiz-adv-x="819" d="M137 0v545h545v-545h-545z" />
<glyph unicode="&#x2026;" horiz-adv-x="1912" d="M137 0v274h275v-274h-275zM819 0v274h275v-274h-275zM1503 0v274h273v-274h-273z" />
<glyph unicode="&#x202f;" horiz-adv-x="383" />
<glyph unicode="&#x205f;" horiz-adv-x="479" />
<glyph unicode="&#x20ac;" horiz-adv-x="1368" d="M137 547v272h275v273h272v-273h272h273v-272h-273h-272v-273h-272v273h-275zM684 0v274h272h273v-274h-273h-272zM684 1092v274h272h273v-274h-273h-272z" />
<glyph unicode="&#x2122;" horiz-adv-x="1865" d="M0 829v207h207v-207h-207zM0 1243v207h207v-207h-207zM207 207v622h207v-622h-207zM207 1036v207h207v-207h-207zM414 0v207h1036v-207h-1036zM414 829v207h1036v-207h-1036zM621 414v209h208v-209h-208zM1036 414v209h207v-209h-207zM1450 207v622h207v-622h-207z M1450 1036v207h207v-207h-207zM1657 829v207h209v-207h-209zM1657 1243v207h209v-207h-209z" />
<glyph unicode="&#xe000;" horiz-adv-x="819" d="M0 0v819h819v-819h-819z" />
</font>
</defs>
</svg>
